G04 #@! TF.GenerationSoftware,KiCad,Pcbnew,8.0.8*
G04 #@! TF.CreationDate,2025-02-13T13:17:33+02:00*
G04 #@! TF.ProjectId,civic_serializer,63697669-635f-4736-9572-69616c697a65,rev?*
G04 #@! TF.SameCoordinates,Original*
G04 #@! TF.FileFunction,Copper,L1,Top*
G04 #@! TF.FilePolarity,Positive*
%FSLAX46Y46*%
G04 Gerber Fmt 4.6, Leading zero omitted, Abs format (unit mm)*
G04 Created by KiCad (PCBNEW 8.0.8) date 2025-02-13 13:17:33*
%MOMM*%
%LPD*%
G01*
G04 APERTURE LIST*
G04 Aperture macros list*
%AMRoundRect*
0 Rectangle with rounded corners*
0 $1 Rounding radius*
0 $2 $3 $4 $5 $6 $7 $8 $9 X,Y pos of 4 corners*
0 Add a 4 corners polygon primitive as box body*
4,1,4,$2,$3,$4,$5,$6,$7,$8,$9,$2,$3,0*
0 Add four circle primitives for the rounded corners*
1,1,$1+$1,$2,$3*
1,1,$1+$1,$4,$5*
1,1,$1+$1,$6,$7*
1,1,$1+$1,$8,$9*
0 Add four rect primitives between the rounded corners*
20,1,$1+$1,$2,$3,$4,$5,0*
20,1,$1+$1,$4,$5,$6,$7,0*
20,1,$1+$1,$6,$7,$8,$9,0*
20,1,$1+$1,$8,$9,$2,$3,0*%
G04 Aperture macros list end*
G04 #@! TA.AperFunction,SMDPad,CuDef*
%ADD10RoundRect,0.237500X-0.300000X-0.237500X0.300000X-0.237500X0.300000X0.237500X-0.300000X0.237500X0*%
G04 #@! TD*
G04 #@! TA.AperFunction,SMDPad,CuDef*
%ADD11RoundRect,0.237500X-0.237500X0.250000X-0.237500X-0.250000X0.237500X-0.250000X0.237500X0.250000X0*%
G04 #@! TD*
G04 #@! TA.AperFunction,ComponentPad*
%ADD12RoundRect,0.412500X0.412500X-0.412500X0.412500X0.412500X-0.412500X0.412500X-0.412500X-0.412500X0*%
G04 #@! TD*
G04 #@! TA.AperFunction,ComponentPad*
%ADD13C,1.650000*%
G04 #@! TD*
G04 #@! TA.AperFunction,SMDPad,CuDef*
%ADD14RoundRect,0.375000X-0.375000X0.625000X-0.375000X-0.625000X0.375000X-0.625000X0.375000X0.625000X0*%
G04 #@! TD*
G04 #@! TA.AperFunction,SMDPad,CuDef*
%ADD15RoundRect,0.500000X-1.400000X0.500000X-1.400000X-0.500000X1.400000X-0.500000X1.400000X0.500000X0*%
G04 #@! TD*
G04 #@! TA.AperFunction,ComponentPad*
%ADD16RoundRect,0.250001X1.099999X-1.099999X1.099999X1.099999X-1.099999X1.099999X-1.099999X-1.099999X0*%
G04 #@! TD*
G04 #@! TA.AperFunction,ComponentPad*
%ADD17C,2.700000*%
G04 #@! TD*
G04 #@! TA.AperFunction,SMDPad,CuDef*
%ADD18R,0.300000X0.900000*%
G04 #@! TD*
G04 #@! TA.AperFunction,SMDPad,CuDef*
%ADD19R,0.900000X0.300000*%
G04 #@! TD*
G04 #@! TA.AperFunction,ComponentPad*
%ADD20C,0.500000*%
G04 #@! TD*
G04 #@! TA.AperFunction,SMDPad,CuDef*
%ADD21R,5.200000X5.200000*%
G04 #@! TD*
G04 #@! TA.AperFunction,SMDPad,CuDef*
%ADD22RoundRect,0.250000X-0.325000X-0.450000X0.325000X-0.450000X0.325000X0.450000X-0.325000X0.450000X0*%
G04 #@! TD*
G04 #@! TA.AperFunction,SMDPad,CuDef*
%ADD23RoundRect,0.250000X-0.350000X-0.450000X0.350000X-0.450000X0.350000X0.450000X-0.350000X0.450000X0*%
G04 #@! TD*
G04 #@! TA.AperFunction,ComponentPad*
%ADD24R,1.700000X1.700000*%
G04 #@! TD*
G04 #@! TA.AperFunction,SMDPad,CuDef*
%ADD25RoundRect,0.237500X0.300000X0.237500X-0.300000X0.237500X-0.300000X-0.237500X0.300000X-0.237500X0*%
G04 #@! TD*
G04 #@! TA.AperFunction,SMDPad,CuDef*
%ADD26RoundRect,0.237500X0.237500X-0.250000X0.237500X0.250000X-0.237500X0.250000X-0.237500X-0.250000X0*%
G04 #@! TD*
G04 #@! TA.AperFunction,ComponentPad*
%ADD27O,1.700000X1.700000*%
G04 #@! TD*
G04 #@! TA.AperFunction,ViaPad*
%ADD28C,0.450000*%
G04 #@! TD*
G04 #@! TA.AperFunction,Conductor*
%ADD29C,0.127000*%
G04 #@! TD*
G04 #@! TA.AperFunction,Conductor*
%ADD30C,0.254000*%
G04 #@! TD*
G04 #@! TA.AperFunction,Conductor*
%ADD31C,0.200000*%
G04 #@! TD*
G04 #@! TA.AperFunction,Conductor*
%ADD32C,0.400000*%
G04 #@! TD*
G04 APERTURE END LIST*
D10*
X149073900Y-89687600D03*
X150798900Y-89687600D03*
D11*
X117272000Y-84355500D03*
X117272000Y-86180500D03*
D10*
X152477500Y-85649000D03*
X154202500Y-85649000D03*
D12*
X126289000Y-94920000D03*
D13*
X126289000Y-92380000D03*
X126289000Y-89840000D03*
D14*
X113222000Y-79324000D03*
X110922000Y-79324000D03*
D15*
X110922000Y-85624000D03*
D14*
X108622000Y-79324000D03*
D10*
X148565900Y-91262400D03*
X150290900Y-91262400D03*
D11*
X127051000Y-84355500D03*
X127051000Y-86180500D03*
D10*
X148159500Y-94539000D03*
X149884500Y-94539000D03*
D16*
X159436000Y-89934000D03*
D17*
X159436000Y-84934000D03*
X159436000Y-79934000D03*
D18*
X140176000Y-91258000D03*
X140676000Y-91258000D03*
X141176000Y-91258000D03*
X141676000Y-91258000D03*
X142176000Y-91258000D03*
X142676000Y-91258000D03*
X143176000Y-91258000D03*
X143676000Y-91258000D03*
X144176000Y-91258000D03*
X144676000Y-91258000D03*
X145176000Y-91258000D03*
X145676000Y-91258000D03*
D19*
X146376000Y-90558000D03*
X146376000Y-90058000D03*
X146376000Y-89558000D03*
X146376000Y-89058000D03*
X146376000Y-88558000D03*
X146376000Y-88058000D03*
X146376000Y-87558000D03*
X146376000Y-87058000D03*
X146376000Y-86558000D03*
X146376000Y-86058000D03*
X146376000Y-85558000D03*
X146376000Y-85058000D03*
D18*
X145676000Y-84358000D03*
X145176000Y-84358000D03*
X144676000Y-84358000D03*
X144176000Y-84358000D03*
X143676000Y-84358000D03*
X143176000Y-84358000D03*
X142676000Y-84358000D03*
X142176000Y-84358000D03*
X141676000Y-84358000D03*
X141176000Y-84358000D03*
X140676000Y-84358000D03*
X140176000Y-84358000D03*
D19*
X139476000Y-85058000D03*
X139476000Y-85558000D03*
X139476000Y-86058000D03*
X139476000Y-86558000D03*
X139476000Y-87058000D03*
X139476000Y-87558000D03*
X139476000Y-88058000D03*
X139476000Y-88558000D03*
X139476000Y-89058000D03*
X139476000Y-89558000D03*
X139476000Y-90058000D03*
X139476000Y-90558000D03*
D20*
X140926000Y-88808000D03*
X142926000Y-88808000D03*
X144926000Y-88808000D03*
X141926000Y-87808000D03*
D21*
X142926000Y-87808000D03*
D20*
X143926000Y-87808000D03*
X140916000Y-86808000D03*
X144926000Y-86808000D03*
X142926000Y-86798000D03*
D12*
X117907000Y-94920000D03*
D13*
X117907000Y-92380000D03*
X117907000Y-89840000D03*
D22*
X102268000Y-79426000D03*
X104318000Y-79426000D03*
D23*
X102302000Y-81712000D03*
X104302000Y-81712000D03*
D24*
X132893000Y-97079000D03*
D25*
X145820500Y-79934000D03*
X144095500Y-79934000D03*
D26*
X118923000Y-86180500D03*
X118923000Y-84355500D03*
D10*
X148159500Y-92888000D03*
X149884500Y-92888000D03*
X138227000Y-80950000D03*
X139952000Y-80950000D03*
D26*
X125400000Y-86180500D03*
X125400000Y-84355500D03*
D10*
X152477500Y-84125000D03*
X154202500Y-84125000D03*
D24*
X142672000Y-96952000D03*
D27*
X145212000Y-96952000D03*
D24*
X111430000Y-97079000D03*
X108370000Y-74770000D03*
D27*
X108370000Y-72230000D03*
X110910000Y-74770000D03*
X110910000Y-72230000D03*
X113450000Y-74770000D03*
X113450000Y-72230000D03*
X115990000Y-74770000D03*
X115990000Y-72230000D03*
X118530000Y-74770000D03*
X118530000Y-72230000D03*
X121070000Y-74770000D03*
X121070000Y-72230000D03*
X123610000Y-74770000D03*
X123610000Y-72230000D03*
X126150000Y-74770000D03*
X126150000Y-72230000D03*
X128690000Y-74770000D03*
X128690000Y-72230000D03*
X131230000Y-74770000D03*
X131230000Y-72230000D03*
X133770000Y-74770000D03*
X133770000Y-72230000D03*
X136310000Y-74770000D03*
X136310000Y-72230000D03*
X138850000Y-74770000D03*
X138850000Y-72230000D03*
X141390000Y-74770000D03*
X141390000Y-72230000D03*
X143930000Y-74770000D03*
X143930000Y-72230000D03*
X146470000Y-74770000D03*
X146470000Y-72230000D03*
X149010000Y-74770000D03*
X149010000Y-72230000D03*
X151550000Y-74770000D03*
X151550000Y-72230000D03*
X154090000Y-74770000D03*
X154090000Y-72230000D03*
X156630000Y-74770000D03*
X156630000Y-72230000D03*
D28*
X147625000Y-84633000D03*
X110922000Y-81839000D03*
X110922000Y-82855000D03*
X140957500Y-79743500D03*
X142291000Y-78664000D03*
X138608000Y-79934000D03*
X144450000Y-77013000D03*
X151435000Y-97079000D03*
X122098000Y-84355500D03*
X146609000Y-79680000D03*
X148006000Y-83109000D03*
X145085000Y-93650000D03*
X143176000Y-92634000D03*
X148641000Y-85776000D03*
X129072012Y-80706343D03*
X146990000Y-83871000D03*
X153480230Y-77153230D03*
X129718000Y-80696000D03*
X140005000Y-82093000D03*
X147510500Y-77025500D03*
X145466000Y-81458000D03*
X131877000Y-78918000D03*
X143751500Y-76568500D03*
X140767000Y-76505000D03*
X131115000Y-81204000D03*
X128702000Y-76378000D03*
X124638000Y-76886000D03*
X127940000Y-94285000D03*
X140005000Y-94285000D03*
X109652000Y-77902000D03*
X112192000Y-73584000D03*
X127432000Y-73512000D03*
X145847000Y-92507000D03*
X115494000Y-79172000D03*
X135941000Y-83744000D03*
X147371000Y-73457000D03*
X143307000Y-78918000D03*
X124003000Y-76412500D03*
X141275000Y-76124000D03*
X130480000Y-80823000D03*
X124638000Y-73584000D03*
X145212000Y-82728000D03*
X141656000Y-83109000D03*
X141656000Y-81666000D03*
X133020000Y-78791000D03*
X135306000Y-76505000D03*
X137211000Y-81458000D03*
X131750000Y-81585000D03*
X123749000Y-77013000D03*
X129892549Y-79054699D03*
X141592500Y-81013500D03*
X128618250Y-78834250D03*
X145339000Y-82093000D03*
X140640000Y-82728000D03*
X116510000Y-78410000D03*
X125654000Y-81204000D03*
X132575500Y-79362500D03*
X138227000Y-76886000D03*
X135052000Y-79934000D03*
X132288954Y-81851796D03*
X147371000Y-76378000D03*
X145212000Y-77988500D03*
X120370800Y-90043200D03*
X139370000Y-82728000D03*
X101778000Y-77775000D03*
X126924000Y-83363000D03*
X142736317Y-79079844D03*
X139751000Y-79934000D03*
X151562000Y-81712000D03*
X115748000Y-84125000D03*
X121183600Y-90043200D03*
X152374800Y-89992400D03*
X150419000Y-82855000D03*
D29*
X147435540Y-85558000D02*
X146376000Y-85558000D01*
X147838500Y-85155040D02*
X147435540Y-85558000D01*
X147838500Y-84846500D02*
X147838500Y-85155040D01*
X147625000Y-84633000D02*
X147838500Y-84846500D01*
X110795000Y-81712000D02*
X110922000Y-81839000D01*
D30*
X110922000Y-79324000D02*
X110922000Y-85624000D01*
D29*
X104302000Y-81712000D02*
X110795000Y-81712000D01*
X143942000Y-77013000D02*
X142291000Y-78664000D01*
X138608000Y-79934000D02*
X138608000Y-80569000D01*
D30*
X140999909Y-79743500D02*
X143176000Y-81919591D01*
D29*
X125400000Y-84355500D02*
X118923000Y-84355500D01*
X150165000Y-98349000D02*
X151435000Y-97079000D01*
D30*
X143176000Y-81919591D02*
X143176000Y-84358000D01*
D29*
X117907000Y-94920000D02*
X126289000Y-94920000D01*
X126289000Y-95047000D02*
X129591000Y-98349000D01*
D30*
X140957500Y-79743500D02*
X140999909Y-79743500D01*
D29*
X144450000Y-77013000D02*
X143942000Y-77013000D01*
X138608000Y-80569000D02*
X138227000Y-80950000D01*
X129591000Y-98349000D02*
X150165000Y-98349000D01*
X126289000Y-94920000D02*
X126289000Y-95047000D01*
X145820500Y-79934000D02*
X146355000Y-79934000D01*
D30*
X148260000Y-83363000D02*
X148260000Y-85182553D01*
X146860400Y-86058000D02*
X146376000Y-86058000D01*
X148260000Y-85182553D02*
X147567053Y-85875500D01*
D29*
X146355000Y-79934000D02*
X146609000Y-79680000D01*
D30*
X147567053Y-85875500D02*
X147042900Y-85875500D01*
X147042900Y-85875500D02*
X146860400Y-86058000D01*
X148006000Y-83109000D02*
X148260000Y-83363000D01*
D29*
X146376000Y-88558000D02*
X147944300Y-88558000D01*
X147944300Y-88558000D02*
X149073900Y-89687600D01*
X143176000Y-92634000D02*
X143176000Y-91258000D01*
X148159500Y-93650000D02*
X145085000Y-93650000D01*
X148159500Y-93650000D02*
X148159500Y-94539000D01*
X148159500Y-92888000D02*
X148159500Y-93650000D01*
X148565900Y-91262400D02*
X147361500Y-90058000D01*
X147361500Y-90058000D02*
X146376000Y-90058000D01*
D31*
X159182000Y-79934000D02*
X159436000Y-79934000D01*
X155245000Y-84125000D02*
X159436000Y-79934000D01*
X154202500Y-84125000D02*
X155245000Y-84125000D01*
X148988500Y-87058000D02*
X151359500Y-84687000D01*
X146376000Y-87058000D02*
X148988500Y-87058000D01*
X151915500Y-84687000D02*
X152477500Y-84125000D01*
X151359500Y-84687000D02*
X151915500Y-84687000D01*
X154202500Y-85649000D02*
X155118000Y-85649000D01*
X155118000Y-85649000D02*
X159403000Y-89934000D01*
X159403000Y-89934000D02*
X159436000Y-89934000D01*
X159436000Y-88951000D02*
X159436000Y-89934000D01*
X146376000Y-87558000D02*
X148950948Y-87558000D01*
X148950948Y-87558000D02*
X151367948Y-85141000D01*
X151367948Y-85141000D02*
X151969500Y-85141000D01*
X151969500Y-85141000D02*
X152477500Y-85649000D01*
D29*
X146857000Y-86558000D02*
X146376000Y-86558000D01*
X148168500Y-85867500D02*
X148024066Y-85867500D01*
X148260000Y-85776000D02*
X148168500Y-85867500D01*
X147698566Y-86193000D02*
X147222000Y-86193000D01*
X147222000Y-86193000D02*
X146857000Y-86558000D01*
X148641000Y-85776000D02*
X148260000Y-85776000D01*
X148024066Y-85867500D02*
X147698566Y-86193000D01*
D30*
X144176000Y-91258000D02*
X144176000Y-95916000D01*
X144176000Y-95916000D02*
X145212000Y-96952000D01*
X143676000Y-95948000D02*
X142672000Y-96952000D01*
X143676000Y-91258000D02*
X143676000Y-95948000D01*
D29*
X138467620Y-90058000D02*
X139476000Y-90058000D01*
X129072012Y-80706343D02*
X129115963Y-80706343D01*
X129115963Y-80706343D02*
X138467620Y-90058000D01*
X146376000Y-84485000D02*
X146376000Y-85058000D01*
X129718000Y-92507000D02*
X126416000Y-92507000D01*
X128295600Y-87425100D02*
X128295600Y-92075200D01*
X146990000Y-83871000D02*
X146376000Y-84485000D01*
X125400000Y-86180500D02*
X127051000Y-86180500D01*
X126416000Y-92507000D02*
X126289000Y-92380000D01*
X127990800Y-92380000D02*
X126289000Y-92380000D01*
X127051000Y-86180500D02*
X128295600Y-87425100D01*
X133147000Y-95936000D02*
X129718000Y-92507000D01*
X132893000Y-97079000D02*
X133147000Y-96825000D01*
X128295600Y-92075200D02*
X127990800Y-92380000D01*
X133147000Y-96825000D02*
X133147000Y-95936000D01*
X146610000Y-82347000D02*
X145176000Y-83781000D01*
X148260000Y-82347000D02*
X146610000Y-82347000D01*
X153480230Y-77153230D02*
X153453770Y-77153230D01*
X153453770Y-77153230D02*
X148260000Y-82347000D01*
X145176000Y-83781000D02*
X145176000Y-84358000D01*
X138326830Y-89558000D02*
X139476000Y-89558000D01*
X129718000Y-80949170D02*
X138326830Y-89558000D01*
X129718000Y-80696000D02*
X129718000Y-80949170D01*
X147510500Y-79413500D02*
X147510500Y-77025500D01*
X145466000Y-81458000D02*
X147510500Y-79413500D01*
X140176000Y-82264000D02*
X140176000Y-84358000D01*
X140005000Y-82093000D02*
X140176000Y-82264000D01*
X136195000Y-82728000D02*
X138525000Y-85058000D01*
X131877000Y-79426000D02*
X135179000Y-82728000D01*
X131877000Y-78918000D02*
X131877000Y-79426000D01*
X138525000Y-85058000D02*
X139476000Y-85058000D01*
X135179000Y-82728000D02*
X136195000Y-82728000D01*
X131242000Y-81754750D02*
X138045250Y-88558000D01*
X131115000Y-81204000D02*
X131242000Y-81331000D01*
X131242000Y-81331000D02*
X131242000Y-81754750D01*
X143751500Y-76568500D02*
X140830500Y-76568500D01*
X138045250Y-88558000D02*
X139476000Y-88558000D01*
X140830500Y-76568500D02*
X140767000Y-76505000D01*
X124638000Y-76886000D02*
X124765000Y-76886000D01*
X128956000Y-76632000D02*
X131908000Y-76632000D01*
X128702000Y-76378000D02*
X128956000Y-76632000D01*
X124892000Y-77013000D02*
X124892000Y-78370160D01*
X137079840Y-90558000D02*
X139476000Y-90558000D01*
X124765000Y-76886000D02*
X124892000Y-77013000D01*
X124892000Y-78370160D02*
X137079840Y-90558000D01*
X131908000Y-76632000D02*
X133770000Y-74770000D01*
X141176000Y-80597000D02*
X138862000Y-78283000D01*
X138862000Y-78283000D02*
X127123000Y-78283000D01*
X127123000Y-78283000D02*
X123610000Y-74770000D01*
X141176000Y-84358000D02*
X141176000Y-80597000D01*
X125146000Y-93777000D02*
X124638000Y-94285000D01*
X124638000Y-94285000D02*
X119812000Y-94285000D01*
X114986000Y-95301000D02*
X117907000Y-92380000D01*
X118923000Y-91364000D02*
X117907000Y-92380000D01*
X111912600Y-95301000D02*
X114986000Y-95301000D01*
X117272000Y-86180500D02*
X118923000Y-86180500D01*
X140005000Y-94285000D02*
X140226000Y-94285000D01*
X127940000Y-94285000D02*
X127432000Y-93777000D01*
X118923000Y-86180500D02*
X118923000Y-91364000D01*
X119812000Y-94285000D02*
X117907000Y-92380000D01*
X140226000Y-94285000D02*
X142676000Y-91835000D01*
X111430000Y-95783600D02*
X111430000Y-97079000D01*
X142676000Y-91835000D02*
X142676000Y-91258000D01*
X127432000Y-93777000D02*
X125146000Y-93777000D01*
X111430000Y-95783600D02*
X111912600Y-95301000D01*
D30*
X109525000Y-72568000D02*
X108708000Y-72568000D01*
X110910000Y-72230000D02*
X109863000Y-72230000D01*
X109652000Y-72568000D02*
X109525000Y-72568000D01*
X109652000Y-78294000D02*
X109652000Y-72568000D01*
X108708000Y-72568000D02*
X108370000Y-72230000D01*
X109863000Y-72230000D02*
X109525000Y-72568000D01*
X108622000Y-79324000D02*
X109652000Y-78294000D01*
D29*
X113081000Y-70790000D02*
X126670000Y-70790000D01*
X126670000Y-70790000D02*
X127432000Y-71552000D01*
X127432000Y-71552000D02*
X127432000Y-73512000D01*
X112192000Y-73584000D02*
X112192000Y-71679000D01*
X112192000Y-71679000D02*
X113081000Y-70790000D01*
X144676000Y-91258000D02*
X144676000Y-92225000D01*
X144958000Y-92507000D02*
X145847000Y-92507000D01*
X144676000Y-92225000D02*
X144958000Y-92507000D01*
X115494000Y-79172000D02*
X117110500Y-80788500D01*
X140242000Y-93269000D02*
X141676000Y-91835000D01*
X141676000Y-91835000D02*
X141676000Y-91258000D01*
X138354000Y-93269000D02*
X140242000Y-93269000D01*
X117110500Y-80788500D02*
X125873500Y-80788500D01*
X125873500Y-80788500D02*
X138354000Y-93269000D01*
X144704000Y-77521000D02*
X145593000Y-77521000D01*
X138255000Y-86058000D02*
X139476000Y-86058000D01*
X147625000Y-73711000D02*
X147371000Y-73457000D01*
X145593000Y-77521000D02*
X147625000Y-75489000D01*
X135941000Y-83744000D02*
X138255000Y-86058000D01*
X147625000Y-75489000D02*
X147625000Y-73711000D01*
X143307000Y-78918000D02*
X144704000Y-77521000D01*
X124164500Y-76574000D02*
X124164500Y-78001870D01*
X124003000Y-76412500D02*
X124164500Y-76574000D01*
X124164500Y-78001870D02*
X137420630Y-91258000D01*
X137420630Y-91258000D02*
X140176000Y-91258000D01*
X146863000Y-82601000D02*
X148768000Y-82601000D01*
X155372000Y-75997000D02*
X155372000Y-73512000D01*
X155372000Y-73512000D02*
X154090000Y-72230000D01*
X145676000Y-84358000D02*
X145676000Y-83788000D01*
X145676000Y-83788000D02*
X146863000Y-82601000D01*
X148768000Y-82601000D02*
X155372000Y-75997000D01*
X130480000Y-81351960D02*
X138186040Y-89058000D01*
X130480000Y-80823000D02*
X130480000Y-81351960D01*
X145116000Y-76124000D02*
X146470000Y-74770000D01*
X141275000Y-76124000D02*
X145116000Y-76124000D01*
X138186040Y-89058000D02*
X139476000Y-89058000D01*
X127432000Y-78029000D02*
X124765000Y-75362000D01*
X143676000Y-81573000D02*
X140132000Y-78029000D01*
X143676000Y-84358000D02*
X143676000Y-81573000D01*
X124765000Y-75362000D02*
X124765000Y-73711000D01*
X124765000Y-73711000D02*
X124638000Y-73584000D01*
X140132000Y-78029000D02*
X127432000Y-78029000D01*
X154090000Y-75882000D02*
X154090000Y-74770000D01*
X146101000Y-82093000D02*
X147879000Y-82093000D01*
X141656000Y-84338000D02*
X141676000Y-84358000D01*
X145466000Y-82728000D02*
X146101000Y-82093000D01*
X141656000Y-83109000D02*
X141656000Y-84338000D01*
X147879000Y-82093000D02*
X154090000Y-75882000D01*
X145212000Y-82728000D02*
X145466000Y-82728000D01*
X142377500Y-83123040D02*
X142176000Y-83324540D01*
X135052000Y-76251000D02*
X135052000Y-73512000D01*
X134544000Y-78791000D02*
X137211000Y-81458000D01*
X135052000Y-73512000D02*
X133770000Y-72230000D01*
X135306000Y-76505000D02*
X135052000Y-76251000D01*
X141656000Y-81666000D02*
X141737000Y-81666000D01*
X141737000Y-81666000D02*
X142377500Y-82306500D01*
X142176000Y-83324540D02*
X142176000Y-84358000D01*
X142377500Y-82306500D02*
X142377500Y-83123040D01*
X133020000Y-78791000D02*
X134544000Y-78791000D01*
X131750000Y-81585000D02*
X131750000Y-81903540D01*
X131750000Y-81903540D02*
X137904460Y-88058000D01*
X137904460Y-88058000D02*
X139476000Y-88058000D01*
X140676000Y-91975790D02*
X140676000Y-91258000D01*
X138450210Y-92646790D02*
X140005000Y-92646790D01*
X123749000Y-77013000D02*
X123749000Y-77945580D01*
X123749000Y-77945580D02*
X138450210Y-92646790D01*
X140005000Y-92646790D02*
X140676000Y-91975790D01*
X144676000Y-81811000D02*
X140386000Y-77521000D01*
X140386000Y-77521000D02*
X128901000Y-77521000D01*
X144676000Y-84358000D02*
X144676000Y-81811000D01*
X128901000Y-77521000D02*
X126150000Y-74770000D01*
X130743699Y-79054699D02*
X135525500Y-83836500D01*
X138247000Y-86558000D02*
X139476000Y-86558000D01*
X135525500Y-83836500D02*
X135525500Y-83916106D01*
X135768894Y-84159500D02*
X135848500Y-84159500D01*
X135848500Y-84159500D02*
X138247000Y-86558000D01*
X129892549Y-79054699D02*
X130743699Y-79054699D01*
X135525500Y-83916106D02*
X135768894Y-84159500D01*
X122352000Y-75362000D02*
X122352000Y-73512000D01*
X138239000Y-87058000D02*
X131403421Y-80222421D01*
X124477790Y-75997000D02*
X122987000Y-75997000D01*
X122987000Y-75997000D02*
X122352000Y-75362000D01*
X122352000Y-73512000D02*
X121070000Y-72230000D01*
X128703211Y-80222421D02*
X124477790Y-75997000D01*
X131403421Y-80222421D02*
X128703211Y-80222421D01*
X139476000Y-87058000D02*
X138239000Y-87058000D01*
X142676000Y-82097000D02*
X142676000Y-84358000D01*
X141592500Y-81013500D02*
X142676000Y-82097000D01*
X136050874Y-83091874D02*
X138517000Y-85558000D01*
X128915500Y-78537000D02*
X130607000Y-78537000D01*
X135161874Y-83091874D02*
X136050874Y-83091874D01*
X128618250Y-78834250D02*
X128915500Y-78537000D01*
X130607000Y-78537000D02*
X135161874Y-83091874D01*
X138517000Y-85558000D02*
X139476000Y-85558000D01*
X148387000Y-77005233D02*
X147965500Y-76583733D01*
X145339000Y-82093000D02*
X145466000Y-82093000D01*
X147965500Y-76583733D02*
X147965500Y-72666131D01*
X140676000Y-82764000D02*
X140640000Y-82728000D01*
X145466000Y-82093000D02*
X148387000Y-79172000D01*
X140676000Y-84358000D02*
X140676000Y-82764000D01*
X148387000Y-79172000D02*
X148387000Y-77005233D01*
X147529369Y-72230000D02*
X146470000Y-72230000D01*
X147965500Y-72666131D02*
X147529369Y-72230000D01*
X125886210Y-80442000D02*
X138459210Y-93015000D01*
X116510000Y-78410000D02*
X116510000Y-79320790D01*
X117631210Y-80442000D02*
X125886210Y-80442000D01*
X139996000Y-93015000D02*
X141176000Y-91835000D01*
X141176000Y-91835000D02*
X141176000Y-91258000D01*
X138459210Y-93015000D02*
X139996000Y-93015000D01*
X116510000Y-79320790D02*
X117631210Y-80442000D01*
X142176000Y-91835000D02*
X140488000Y-93523000D01*
X140488000Y-93523000D02*
X137846000Y-93523000D01*
X142176000Y-91258000D02*
X142176000Y-91835000D01*
X140132000Y-73488000D02*
X141390000Y-72230000D01*
X138227000Y-76886000D02*
X140132000Y-74981000D01*
X125654000Y-81331000D02*
X125654000Y-81204000D01*
X137846000Y-93523000D02*
X125654000Y-81331000D01*
X140132000Y-74981000D02*
X140132000Y-73488000D01*
X132575500Y-79362500D02*
X134480500Y-79362500D01*
X134480500Y-79362500D02*
X135052000Y-79934000D01*
X132288954Y-81851796D02*
X132288954Y-82083284D01*
X145760500Y-77988500D02*
X145212000Y-77988500D01*
X132288954Y-82083284D02*
X137763670Y-87558000D01*
X137763670Y-87558000D02*
X139476000Y-87558000D01*
X147371000Y-76378000D02*
X145760500Y-77988500D01*
X144176000Y-84358000D02*
X144176000Y-81670210D01*
X126150000Y-72913000D02*
X126150000Y-72230000D01*
X140280790Y-77775000D02*
X127683510Y-77775000D01*
X125019000Y-74044000D02*
X126150000Y-72913000D01*
X127683510Y-77775000D02*
X125019000Y-75110490D01*
X125019000Y-75110490D02*
X125019000Y-74044000D01*
X144176000Y-81670210D02*
X140280790Y-77775000D01*
D30*
X122506000Y-71126000D02*
X123610000Y-72230000D01*
D29*
X102268000Y-78265000D02*
X101778000Y-77775000D01*
X142736317Y-79079844D02*
X143590473Y-79934000D01*
X144676000Y-89558000D02*
X142926000Y-87808000D01*
D30*
X113222000Y-79324000D02*
X113976000Y-79324000D01*
X117344000Y-73584000D02*
X118530000Y-74770000D01*
D29*
X149884500Y-91668800D02*
X150290900Y-91262400D01*
X139370000Y-81839000D02*
X139370000Y-82728000D01*
X152070000Y-89687600D02*
X152374800Y-89992400D01*
D30*
X146376000Y-88058000D02*
X143176000Y-88058000D01*
D32*
X150419000Y-82855000D02*
X151562000Y-81712000D01*
D29*
X139952000Y-80950000D02*
X139952000Y-81257000D01*
D30*
X113450000Y-72230000D02*
X114804000Y-73584000D01*
D29*
X143590473Y-79934000D02*
X144095500Y-79934000D01*
X149884500Y-92888000D02*
X149884500Y-91668800D01*
D32*
X121183600Y-90043200D02*
X120370800Y-90043200D01*
D29*
X126924000Y-84228500D02*
X127051000Y-84355500D01*
D30*
X144676000Y-89558000D02*
X144640500Y-89522500D01*
D29*
X142926000Y-87808000D02*
X144602400Y-89484400D01*
D30*
X143176000Y-88058000D02*
X142926000Y-87808000D01*
D29*
X115978500Y-84355500D02*
X115748000Y-84125000D01*
X126924000Y-83363000D02*
X126924000Y-84228500D01*
X150798900Y-89687600D02*
X151027500Y-89916200D01*
X150798900Y-89687600D02*
X152070000Y-89687600D01*
D30*
X146376000Y-89558000D02*
X144676000Y-89558000D01*
X113976000Y-79324000D02*
X118530000Y-74770000D01*
X119812000Y-73488000D02*
X119812000Y-71806000D01*
D29*
X139952000Y-80135000D02*
X139751000Y-79934000D01*
X139952000Y-81257000D02*
X139370000Y-81839000D01*
X149884500Y-92888000D02*
X149884500Y-94539000D01*
X102268000Y-79426000D02*
X102268000Y-78265000D01*
D32*
X121183600Y-90043200D02*
X126085800Y-90043200D01*
D30*
X114804000Y-73584000D02*
X117344000Y-73584000D01*
D29*
X139952000Y-80950000D02*
X139952000Y-80135000D01*
D30*
X120492000Y-71126000D02*
X122506000Y-71126000D01*
X119812000Y-71806000D02*
X120492000Y-71126000D01*
D29*
X151027500Y-90525800D02*
X150290900Y-91262400D01*
X117272000Y-84355500D02*
X115978500Y-84355500D01*
D30*
X118530000Y-74770000D02*
X119812000Y-73488000D01*
D29*
X151027500Y-89916200D02*
X151027500Y-90525800D01*
D32*
X126085800Y-90043200D02*
X126289000Y-89840000D01*
D30*
X144640500Y-89522500D02*
X142926000Y-87808000D01*
D29*
X104318000Y-79426000D02*
X104318000Y-79696000D01*
X104318000Y-79696000D02*
X102302000Y-81712000D01*
G04 #@! TA.AperFunction,Conductor*
G36*
X164306224Y-77312085D02*
G01*
X164351979Y-77364889D01*
X164363184Y-77416815D01*
X164313210Y-92358739D01*
X164293302Y-92425712D01*
X164240345Y-92471290D01*
X164189940Y-92482322D01*
X155734424Y-92532061D01*
X155667270Y-92512771D01*
X155639388Y-92488574D01*
X152120800Y-88366800D01*
X152120798Y-88366799D01*
X152120797Y-88366799D01*
X148210286Y-88326484D01*
X148146856Y-88307147D01*
X148146595Y-88307600D01*
X148144642Y-88306472D01*
X148143453Y-88306110D01*
X148141023Y-88304382D01*
X148067049Y-88261673D01*
X148067047Y-88261672D01*
X148067044Y-88261671D01*
X147986165Y-88240000D01*
X147986164Y-88240000D01*
X147317200Y-88240000D01*
X147250161Y-88220315D01*
X147204406Y-88167511D01*
X147193200Y-88116000D01*
X147193200Y-88036500D01*
X147212885Y-87969461D01*
X147265689Y-87923706D01*
X147317200Y-87912500D01*
X148997617Y-87912500D01*
X148997619Y-87912500D01*
X149087780Y-87888341D01*
X149168616Y-87841671D01*
X151473821Y-85536465D01*
X151535142Y-85502982D01*
X151604834Y-85507966D01*
X151660767Y-85549838D01*
X151685184Y-85615302D01*
X151685500Y-85624148D01*
X151685500Y-85933552D01*
X151685501Y-85933562D01*
X151691800Y-85992159D01*
X151741239Y-86124709D01*
X151741241Y-86124713D01*
X151741242Y-86124715D01*
X151826026Y-86237974D01*
X151939285Y-86322758D01*
X152071843Y-86372200D01*
X152130443Y-86378500D01*
X152824556Y-86378499D01*
X152883157Y-86372200D01*
X153015715Y-86322758D01*
X153128974Y-86237974D01*
X153213758Y-86124715D01*
X153223819Y-86097738D01*
X153265690Y-86041808D01*
X153331154Y-86017391D01*
X153399427Y-86032243D01*
X153448832Y-86081648D01*
X153456177Y-86097730D01*
X153466242Y-86124715D01*
X153551026Y-86237974D01*
X153664285Y-86322758D01*
X153796843Y-86372200D01*
X153855443Y-86378500D01*
X154549556Y-86378499D01*
X154608157Y-86372200D01*
X154740715Y-86322758D01*
X154853974Y-86237974D01*
X154918767Y-86151419D01*
X154974696Y-86109551D01*
X155044387Y-86104565D01*
X155105711Y-86138050D01*
X157795181Y-88827520D01*
X157828666Y-88888843D01*
X157831500Y-88915201D01*
X157831500Y-91082270D01*
X157837959Y-91142338D01*
X157837962Y-91142349D01*
X157888655Y-91278261D01*
X157888656Y-91278264D01*
X157888658Y-91278267D01*
X157917747Y-91317126D01*
X157975595Y-91394404D01*
X158033443Y-91437707D01*
X158091733Y-91481342D01*
X158091737Y-91481343D01*
X158091738Y-91481344D01*
X158227650Y-91532037D01*
X158227653Y-91532037D01*
X158227659Y-91532040D01*
X158240047Y-91533371D01*
X158287729Y-91538499D01*
X158287746Y-91538500D01*
X160584254Y-91538500D01*
X160584270Y-91538499D01*
X160625757Y-91534037D01*
X160644341Y-91532040D01*
X160780267Y-91481342D01*
X160896404Y-91394404D01*
X160983342Y-91278267D01*
X161034040Y-91142341D01*
X161036037Y-91123757D01*
X161040499Y-91082270D01*
X161040500Y-91082253D01*
X161040500Y-88785746D01*
X161040499Y-88785729D01*
X161034040Y-88725661D01*
X161034040Y-88725659D01*
X160983342Y-88589733D01*
X160939707Y-88531443D01*
X160896404Y-88473595D01*
X160819126Y-88415747D01*
X160780267Y-88386658D01*
X160780264Y-88386656D01*
X160780261Y-88386655D01*
X160644349Y-88335962D01*
X160644338Y-88335959D01*
X160584270Y-88329500D01*
X160584254Y-88329500D01*
X158351201Y-88329500D01*
X158284162Y-88309815D01*
X158263520Y-88293181D01*
X155335669Y-85365330D01*
X155335668Y-85365329D01*
X155254832Y-85318659D01*
X155254833Y-85318659D01*
X155217661Y-85308699D01*
X155164671Y-85294500D01*
X155164669Y-85294500D01*
X155070063Y-85294500D01*
X155003024Y-85274815D01*
X154957269Y-85222011D01*
X154953887Y-85213849D01*
X154938758Y-85173285D01*
X154853974Y-85060026D01*
X154755439Y-84986264D01*
X154716315Y-84934000D01*
X157831052Y-84934000D01*
X157850812Y-85185072D01*
X157909603Y-85429956D01*
X158005980Y-85662631D01*
X158137568Y-85877362D01*
X158137571Y-85877367D01*
X158219698Y-85973525D01*
X158752377Y-85440846D01*
X158775762Y-85475844D01*
X158894156Y-85594238D01*
X158929152Y-85617621D01*
X158396473Y-86150300D01*
X158492632Y-86232428D01*
X158492637Y-86232431D01*
X158707368Y-86364019D01*
X158940043Y-86460396D01*
X159184927Y-86519187D01*
X159436000Y-86538947D01*
X159687072Y-86519187D01*
X159931956Y-86460396D01*
X160164631Y-86364019D01*
X160379360Y-86232433D01*
X160379361Y-86232432D01*
X160475525Y-86150300D01*
X159942846Y-85617622D01*
X159977844Y-85594238D01*
X160096238Y-85475844D01*
X160119622Y-85440846D01*
X160652300Y-85973525D01*
X160734432Y-85877361D01*
X160734433Y-85877360D01*
X160866019Y-85662631D01*
X160962396Y-85429956D01*
X161021187Y-85185072D01*
X161040947Y-84934000D01*
X161021187Y-84682927D01*
X160962396Y-84438043D01*
X160866019Y-84205368D01*
X160734431Y-83990637D01*
X160734428Y-83990632D01*
X160652300Y-83894473D01*
X160119621Y-84427152D01*
X160096238Y-84392156D01*
X159977844Y-84273762D01*
X159942845Y-84250376D01*
X160475525Y-83717698D01*
X160379367Y-83635571D01*
X160379362Y-83635568D01*
X160164631Y-83503980D01*
X159931956Y-83407603D01*
X159687072Y-83348812D01*
X159436000Y-83329052D01*
X159184927Y-83348812D01*
X158940043Y-83407603D01*
X158707368Y-83503980D01*
X158492643Y-83635564D01*
X158492634Y-83635570D01*
X158396473Y-83717698D01*
X158929153Y-84250377D01*
X158894156Y-84273762D01*
X158775762Y-84392156D01*
X158752377Y-84427153D01*
X158219698Y-83894473D01*
X158137570Y-83990634D01*
X158137564Y-83990643D01*
X158005980Y-84205368D01*
X157909603Y-84438043D01*
X157850812Y-84682927D01*
X157831052Y-84934000D01*
X154716315Y-84934000D01*
X154713571Y-84930334D01*
X154708586Y-84860643D01*
X154742070Y-84799319D01*
X154755428Y-84787743D01*
X154853974Y-84713974D01*
X154938758Y-84600715D01*
X154953882Y-84560165D01*
X154995752Y-84504233D01*
X155061217Y-84479816D01*
X155070063Y-84479500D01*
X155291669Y-84479500D01*
X155291671Y-84479500D01*
X155381832Y-84455341D01*
X155462668Y-84408671D01*
X158510938Y-81360399D01*
X158572259Y-81326916D01*
X158641951Y-81331900D01*
X158663404Y-81342353D01*
X158696249Y-81362481D01*
X158705323Y-81368042D01*
X158938644Y-81464686D01*
X158938649Y-81464688D01*
X159184225Y-81523646D01*
X159436000Y-81543461D01*
X159687775Y-81523646D01*
X159933351Y-81464688D01*
X160050568Y-81416135D01*
X160166676Y-81368042D01*
X160166677Y-81368041D01*
X160166680Y-81368040D01*
X160382017Y-81236081D01*
X160574061Y-81072061D01*
X160738081Y-80880017D01*
X160870040Y-80664680D01*
X160966688Y-80431351D01*
X161025646Y-80185775D01*
X161045461Y-79934000D01*
X161025646Y-79682225D01*
X160966688Y-79436649D01*
X160915840Y-79313891D01*
X160870042Y-79203323D01*
X160870040Y-79203320D01*
X160738082Y-78987985D01*
X160738079Y-78987980D01*
X160679050Y-78918866D01*
X160574061Y-78795939D01*
X160469070Y-78706269D01*
X160382019Y-78631920D01*
X160382014Y-78631917D01*
X160166679Y-78499959D01*
X160166676Y-78499957D01*
X159933355Y-78403313D01*
X159933351Y-78403312D01*
X159687775Y-78344354D01*
X159687773Y-78344353D01*
X159687770Y-78344353D01*
X159436000Y-78324539D01*
X159184229Y-78344353D01*
X158938644Y-78403313D01*
X158705323Y-78499957D01*
X158705320Y-78499959D01*
X158489985Y-78631917D01*
X158489980Y-78631920D01*
X158297939Y-78795939D01*
X158133920Y-78987980D01*
X158133917Y-78987985D01*
X158001959Y-79203320D01*
X158001957Y-79203323D01*
X157905313Y-79436644D01*
X157846353Y-79682229D01*
X157826539Y-79934000D01*
X157846353Y-80185770D01*
X157905313Y-80431355D01*
X158001957Y-80664676D01*
X158001959Y-80664679D01*
X158027643Y-80706591D01*
X158045888Y-80774036D01*
X158024772Y-80840639D01*
X158009597Y-80859062D01*
X155151424Y-83717236D01*
X155090101Y-83750721D01*
X155020409Y-83745737D01*
X154964476Y-83703865D01*
X154947563Y-83672893D01*
X154938758Y-83649285D01*
X154853974Y-83536026D01*
X154740715Y-83451242D01*
X154684691Y-83430346D01*
X154608159Y-83401800D01*
X154549565Y-83395500D01*
X153855446Y-83395500D01*
X153855437Y-83395501D01*
X153796840Y-83401800D01*
X153664290Y-83451239D01*
X153664281Y-83451244D01*
X153551026Y-83536026D01*
X153466244Y-83649281D01*
X153466240Y-83649288D01*
X153456179Y-83676262D01*
X153414306Y-83732194D01*
X153348840Y-83756608D01*
X153280568Y-83741754D01*
X153231165Y-83692347D01*
X153223820Y-83676262D01*
X153213758Y-83649285D01*
X153128974Y-83536026D01*
X153015715Y-83451242D01*
X152959691Y-83430346D01*
X152883159Y-83401800D01*
X152824565Y-83395500D01*
X152130446Y-83395500D01*
X152130437Y-83395501D01*
X152071840Y-83401800D01*
X151939290Y-83451239D01*
X151939281Y-83451244D01*
X151826026Y-83536026D01*
X151741244Y-83649281D01*
X151741241Y-83649288D01*
X151691800Y-83781839D01*
X151691800Y-83781841D01*
X151685500Y-83840426D01*
X151685500Y-83840443D01*
X151685500Y-84084329D01*
X151685501Y-84208500D01*
X151665817Y-84275539D01*
X151613013Y-84321294D01*
X151561501Y-84332500D01*
X151312829Y-84332500D01*
X151252721Y-84348606D01*
X151222667Y-84356659D01*
X151141833Y-84403328D01*
X151141830Y-84403330D01*
X148877980Y-86667181D01*
X148816657Y-86700666D01*
X148790299Y-86703500D01*
X147913129Y-86703500D01*
X147846090Y-86683815D01*
X147800335Y-86631011D01*
X147790391Y-86561853D01*
X147819416Y-86498297D01*
X147851126Y-86472114D01*
X147893823Y-86447463D01*
X148119467Y-86221819D01*
X148180790Y-86188334D01*
X148207148Y-86185500D01*
X148210362Y-86185500D01*
X148210365Y-86185500D01*
X148285066Y-86165484D01*
X148354911Y-86167147D01*
X148384194Y-86180944D01*
X148439760Y-86216654D01*
X148572057Y-86255500D01*
X148572058Y-86255500D01*
X148709942Y-86255500D01*
X148842240Y-86216654D01*
X148958235Y-86142109D01*
X149048529Y-86037903D01*
X149105808Y-85912480D01*
X149125431Y-85776000D01*
X149114998Y-85703439D01*
X149124941Y-85634282D01*
X149170696Y-85581478D01*
X149176908Y-85577738D01*
X149276000Y-85522000D01*
X152070000Y-82829600D01*
X155589398Y-77349393D01*
X155642187Y-77303622D01*
X155693735Y-77292400D01*
X164239185Y-77292400D01*
X164306224Y-77312085D01*
G37*
G04 #@! TD.AperFunction*
M02*
