G04 #@! TF.GenerationSoftware,KiCad,Pcbnew,8.0.8*
G04 #@! TF.CreationDate,2025-02-13T13:17:33+02:00*
G04 #@! TF.ProjectId,civic_serializer,63697669-635f-4736-9572-69616c697a65,rev?*
G04 #@! TF.SameCoordinates,Original*
G04 #@! TF.FileFunction,Legend,Bot*
G04 #@! TF.FilePolarity,Positive*
%FSLAX46Y46*%
G04 Gerber Fmt 4.6, Leading zero omitted, Abs format (unit mm)*
G04 Created by KiCad (PCBNEW 8.0.8) date 2025-02-13 13:17:33*
%MOMM*%
%LPD*%
G01*
G04 APERTURE LIST*
G04 Aperture macros list*
%AMRoundRect*
0 Rectangle with rounded corners*
0 $1 Rounding radius*
0 $2 $3 $4 $5 $6 $7 $8 $9 X,Y pos of 4 corners*
0 Add a 4 corners polygon primitive as box body*
4,1,4,$2,$3,$4,$5,$6,$7,$8,$9,$2,$3,0*
0 Add four circle primitives for the rounded corners*
1,1,$1+$1,$2,$3*
1,1,$1+$1,$4,$5*
1,1,$1+$1,$6,$7*
1,1,$1+$1,$8,$9*
0 Add four rect primitives between the rounded corners*
20,1,$1+$1,$2,$3,$4,$5,0*
20,1,$1+$1,$4,$5,$6,$7,0*
20,1,$1+$1,$6,$7,$8,$9,0*
20,1,$1+$1,$8,$9,$2,$3,0*%
G04 Aperture macros list end*
%ADD10C,0.150000*%
%ADD11C,0.120000*%
%ADD12C,2.700000*%
%ADD13RoundRect,0.412500X0.412500X-0.412500X0.412500X0.412500X-0.412500X0.412500X-0.412500X-0.412500X0*%
%ADD14C,1.650000*%
%ADD15RoundRect,0.250001X1.099999X-1.099999X1.099999X1.099999X-1.099999X1.099999X-1.099999X-1.099999X0*%
%ADD16C,0.500000*%
%ADD17R,1.700000X1.700000*%
%ADD18O,1.700000X1.700000*%
%ADD19RoundRect,0.250000X0.475000X-0.337500X0.475000X0.337500X-0.475000X0.337500X-0.475000X-0.337500X0*%
%ADD20RoundRect,0.237500X-0.237500X0.300000X-0.237500X-0.300000X0.237500X-0.300000X0.237500X0.300000X0*%
%ADD21RoundRect,0.237500X-0.250000X-0.237500X0.250000X-0.237500X0.250000X0.237500X-0.250000X0.237500X0*%
%ADD22RoundRect,0.237500X-0.287500X-0.237500X0.287500X-0.237500X0.287500X0.237500X-0.287500X0.237500X0*%
%ADD23RoundRect,0.250000X-0.475000X0.337500X-0.475000X-0.337500X0.475000X-0.337500X0.475000X0.337500X0*%
%ADD24RoundRect,0.237500X0.250000X0.237500X-0.250000X0.237500X-0.250000X-0.237500X0.250000X-0.237500X0*%
%ADD25RoundRect,0.237500X-0.300000X-0.237500X0.300000X-0.237500X0.300000X0.237500X-0.300000X0.237500X0*%
G04 APERTURE END LIST*
D10*
X108703333Y-76724819D02*
X108703333Y-77439104D01*
X108703333Y-77439104D02*
X108750952Y-77581961D01*
X108750952Y-77581961D02*
X108846190Y-77677200D01*
X108846190Y-77677200D02*
X108989047Y-77724819D01*
X108989047Y-77724819D02*
X109084285Y-77724819D01*
X107703333Y-77724819D02*
X108274761Y-77724819D01*
X107989047Y-77724819D02*
X107989047Y-76724819D01*
X107989047Y-76724819D02*
X108084285Y-76867676D01*
X108084285Y-76867676D02*
X108179523Y-76962914D01*
X108179523Y-76962914D02*
X108274761Y-77010533D01*
X115802780Y-78598933D02*
X115850400Y-78551314D01*
X115850400Y-78551314D02*
X115898019Y-78408457D01*
X115898019Y-78408457D02*
X115898019Y-78313219D01*
X115898019Y-78313219D02*
X115850400Y-78170362D01*
X115850400Y-78170362D02*
X115755161Y-78075124D01*
X115755161Y-78075124D02*
X115659923Y-78027505D01*
X115659923Y-78027505D02*
X115469447Y-77979886D01*
X115469447Y-77979886D02*
X115326590Y-77979886D01*
X115326590Y-77979886D02*
X115136114Y-78027505D01*
X115136114Y-78027505D02*
X115040876Y-78075124D01*
X115040876Y-78075124D02*
X114945638Y-78170362D01*
X114945638Y-78170362D02*
X114898019Y-78313219D01*
X114898019Y-78313219D02*
X114898019Y-78408457D01*
X114898019Y-78408457D02*
X114945638Y-78551314D01*
X114945638Y-78551314D02*
X114993257Y-78598933D01*
X115231352Y-79456076D02*
X115898019Y-79456076D01*
X114850400Y-79217981D02*
X115564685Y-78979886D01*
X115564685Y-78979886D02*
X115564685Y-79598933D01*
X148205580Y-83704333D02*
X148253200Y-83656714D01*
X148253200Y-83656714D02*
X148300819Y-83513857D01*
X148300819Y-83513857D02*
X148300819Y-83418619D01*
X148300819Y-83418619D02*
X148253200Y-83275762D01*
X148253200Y-83275762D02*
X148157961Y-83180524D01*
X148157961Y-83180524D02*
X148062723Y-83132905D01*
X148062723Y-83132905D02*
X147872247Y-83085286D01*
X147872247Y-83085286D02*
X147729390Y-83085286D01*
X147729390Y-83085286D02*
X147538914Y-83132905D01*
X147538914Y-83132905D02*
X147443676Y-83180524D01*
X147443676Y-83180524D02*
X147348438Y-83275762D01*
X147348438Y-83275762D02*
X147300819Y-83418619D01*
X147300819Y-83418619D02*
X147300819Y-83513857D01*
X147300819Y-83513857D02*
X147348438Y-83656714D01*
X147348438Y-83656714D02*
X147396057Y-83704333D01*
X148300819Y-84656714D02*
X148300819Y-84085286D01*
X148300819Y-84371000D02*
X147300819Y-84371000D01*
X147300819Y-84371000D02*
X147443676Y-84275762D01*
X147443676Y-84275762D02*
X147538914Y-84180524D01*
X147538914Y-84180524D02*
X147586533Y-84085286D01*
X151931866Y-96848019D02*
X152265199Y-96371828D01*
X152503294Y-96848019D02*
X152503294Y-95848019D01*
X152503294Y-95848019D02*
X152122342Y-95848019D01*
X152122342Y-95848019D02*
X152027104Y-95895638D01*
X152027104Y-95895638D02*
X151979485Y-95943257D01*
X151979485Y-95943257D02*
X151931866Y-96038495D01*
X151931866Y-96038495D02*
X151931866Y-96181352D01*
X151931866Y-96181352D02*
X151979485Y-96276590D01*
X151979485Y-96276590D02*
X152027104Y-96324209D01*
X152027104Y-96324209D02*
X152122342Y-96371828D01*
X152122342Y-96371828D02*
X152503294Y-96371828D01*
X151027104Y-95848019D02*
X151503294Y-95848019D01*
X151503294Y-95848019D02*
X151550913Y-96324209D01*
X151550913Y-96324209D02*
X151503294Y-96276590D01*
X151503294Y-96276590D02*
X151408056Y-96228971D01*
X151408056Y-96228971D02*
X151169961Y-96228971D01*
X151169961Y-96228971D02*
X151074723Y-96276590D01*
X151074723Y-96276590D02*
X151027104Y-96324209D01*
X151027104Y-96324209D02*
X150979485Y-96419447D01*
X150979485Y-96419447D02*
X150979485Y-96657542D01*
X150979485Y-96657542D02*
X151027104Y-96752780D01*
X151027104Y-96752780D02*
X151074723Y-96800400D01*
X151074723Y-96800400D02*
X151169961Y-96848019D01*
X151169961Y-96848019D02*
X151408056Y-96848019D01*
X151408056Y-96848019D02*
X151503294Y-96800400D01*
X151503294Y-96800400D02*
X151550913Y-96752780D01*
X152643066Y-87297619D02*
X152976399Y-86821428D01*
X153214494Y-87297619D02*
X153214494Y-86297619D01*
X153214494Y-86297619D02*
X152833542Y-86297619D01*
X152833542Y-86297619D02*
X152738304Y-86345238D01*
X152738304Y-86345238D02*
X152690685Y-86392857D01*
X152690685Y-86392857D02*
X152643066Y-86488095D01*
X152643066Y-86488095D02*
X152643066Y-86630952D01*
X152643066Y-86630952D02*
X152690685Y-86726190D01*
X152690685Y-86726190D02*
X152738304Y-86773809D01*
X152738304Y-86773809D02*
X152833542Y-86821428D01*
X152833542Y-86821428D02*
X153214494Y-86821428D01*
X152262113Y-86392857D02*
X152214494Y-86345238D01*
X152214494Y-86345238D02*
X152119256Y-86297619D01*
X152119256Y-86297619D02*
X151881161Y-86297619D01*
X151881161Y-86297619D02*
X151785923Y-86345238D01*
X151785923Y-86345238D02*
X151738304Y-86392857D01*
X151738304Y-86392857D02*
X151690685Y-86488095D01*
X151690685Y-86488095D02*
X151690685Y-86583333D01*
X151690685Y-86583333D02*
X151738304Y-86726190D01*
X151738304Y-86726190D02*
X152309732Y-87297619D01*
X152309732Y-87297619D02*
X151690685Y-87297619D01*
X113313580Y-78446533D02*
X113361200Y-78398914D01*
X113361200Y-78398914D02*
X113408819Y-78256057D01*
X113408819Y-78256057D02*
X113408819Y-78160819D01*
X113408819Y-78160819D02*
X113361200Y-78017962D01*
X113361200Y-78017962D02*
X113265961Y-77922724D01*
X113265961Y-77922724D02*
X113170723Y-77875105D01*
X113170723Y-77875105D02*
X112980247Y-77827486D01*
X112980247Y-77827486D02*
X112837390Y-77827486D01*
X112837390Y-77827486D02*
X112646914Y-77875105D01*
X112646914Y-77875105D02*
X112551676Y-77922724D01*
X112551676Y-77922724D02*
X112456438Y-78017962D01*
X112456438Y-78017962D02*
X112408819Y-78160819D01*
X112408819Y-78160819D02*
X112408819Y-78256057D01*
X112408819Y-78256057D02*
X112456438Y-78398914D01*
X112456438Y-78398914D02*
X112504057Y-78446533D01*
X112408819Y-78779867D02*
X112408819Y-79398914D01*
X112408819Y-79398914D02*
X112789771Y-79065581D01*
X112789771Y-79065581D02*
X112789771Y-79208438D01*
X112789771Y-79208438D02*
X112837390Y-79303676D01*
X112837390Y-79303676D02*
X112885009Y-79351295D01*
X112885009Y-79351295D02*
X112980247Y-79398914D01*
X112980247Y-79398914D02*
X113218342Y-79398914D01*
X113218342Y-79398914D02*
X113313580Y-79351295D01*
X113313580Y-79351295D02*
X113361200Y-79303676D01*
X113361200Y-79303676D02*
X113408819Y-79208438D01*
X113408819Y-79208438D02*
X113408819Y-78922724D01*
X113408819Y-78922724D02*
X113361200Y-78827486D01*
X113361200Y-78827486D02*
X113313580Y-78779867D01*
X140584333Y-82201809D02*
X140917666Y-82201809D01*
X140917666Y-82725619D02*
X140917666Y-81725619D01*
X140917666Y-81725619D02*
X140441476Y-81725619D01*
X139727190Y-82201809D02*
X139584333Y-82249428D01*
X139584333Y-82249428D02*
X139536714Y-82297047D01*
X139536714Y-82297047D02*
X139489095Y-82392285D01*
X139489095Y-82392285D02*
X139489095Y-82535142D01*
X139489095Y-82535142D02*
X139536714Y-82630380D01*
X139536714Y-82630380D02*
X139584333Y-82678000D01*
X139584333Y-82678000D02*
X139679571Y-82725619D01*
X139679571Y-82725619D02*
X140060523Y-82725619D01*
X140060523Y-82725619D02*
X140060523Y-81725619D01*
X140060523Y-81725619D02*
X139727190Y-81725619D01*
X139727190Y-81725619D02*
X139631952Y-81773238D01*
X139631952Y-81773238D02*
X139584333Y-81820857D01*
X139584333Y-81820857D02*
X139536714Y-81916095D01*
X139536714Y-81916095D02*
X139536714Y-82011333D01*
X139536714Y-82011333D02*
X139584333Y-82106571D01*
X139584333Y-82106571D02*
X139631952Y-82154190D01*
X139631952Y-82154190D02*
X139727190Y-82201809D01*
X139727190Y-82201809D02*
X140060523Y-82201809D01*
X138536714Y-82725619D02*
X139108142Y-82725619D01*
X138822428Y-82725619D02*
X138822428Y-81725619D01*
X138822428Y-81725619D02*
X138917666Y-81868476D01*
X138917666Y-81868476D02*
X139012904Y-81963714D01*
X139012904Y-81963714D02*
X139108142Y-82011333D01*
X107315580Y-82180333D02*
X107363200Y-82132714D01*
X107363200Y-82132714D02*
X107410819Y-81989857D01*
X107410819Y-81989857D02*
X107410819Y-81894619D01*
X107410819Y-81894619D02*
X107363200Y-81751762D01*
X107363200Y-81751762D02*
X107267961Y-81656524D01*
X107267961Y-81656524D02*
X107172723Y-81608905D01*
X107172723Y-81608905D02*
X106982247Y-81561286D01*
X106982247Y-81561286D02*
X106839390Y-81561286D01*
X106839390Y-81561286D02*
X106648914Y-81608905D01*
X106648914Y-81608905D02*
X106553676Y-81656524D01*
X106553676Y-81656524D02*
X106458438Y-81751762D01*
X106458438Y-81751762D02*
X106410819Y-81894619D01*
X106410819Y-81894619D02*
X106410819Y-81989857D01*
X106410819Y-81989857D02*
X106458438Y-82132714D01*
X106458438Y-82132714D02*
X106506057Y-82180333D01*
X106506057Y-82561286D02*
X106458438Y-82608905D01*
X106458438Y-82608905D02*
X106410819Y-82704143D01*
X106410819Y-82704143D02*
X106410819Y-82942238D01*
X106410819Y-82942238D02*
X106458438Y-83037476D01*
X106458438Y-83037476D02*
X106506057Y-83085095D01*
X106506057Y-83085095D02*
X106601295Y-83132714D01*
X106601295Y-83132714D02*
X106696533Y-83132714D01*
X106696533Y-83132714D02*
X106839390Y-83085095D01*
X106839390Y-83085095D02*
X107410819Y-82513667D01*
X107410819Y-82513667D02*
X107410819Y-83132714D01*
X146299333Y-80279009D02*
X146632666Y-80279009D01*
X146632666Y-80802819D02*
X146632666Y-79802819D01*
X146632666Y-79802819D02*
X146156476Y-79802819D01*
X145442190Y-80279009D02*
X145299333Y-80326628D01*
X145299333Y-80326628D02*
X145251714Y-80374247D01*
X145251714Y-80374247D02*
X145204095Y-80469485D01*
X145204095Y-80469485D02*
X145204095Y-80612342D01*
X145204095Y-80612342D02*
X145251714Y-80707580D01*
X145251714Y-80707580D02*
X145299333Y-80755200D01*
X145299333Y-80755200D02*
X145394571Y-80802819D01*
X145394571Y-80802819D02*
X145775523Y-80802819D01*
X145775523Y-80802819D02*
X145775523Y-79802819D01*
X145775523Y-79802819D02*
X145442190Y-79802819D01*
X145442190Y-79802819D02*
X145346952Y-79850438D01*
X145346952Y-79850438D02*
X145299333Y-79898057D01*
X145299333Y-79898057D02*
X145251714Y-79993295D01*
X145251714Y-79993295D02*
X145251714Y-80088533D01*
X145251714Y-80088533D02*
X145299333Y-80183771D01*
X145299333Y-80183771D02*
X145346952Y-80231390D01*
X145346952Y-80231390D02*
X145442190Y-80279009D01*
X145442190Y-80279009D02*
X145775523Y-80279009D01*
X144823142Y-79898057D02*
X144775523Y-79850438D01*
X144775523Y-79850438D02*
X144680285Y-79802819D01*
X144680285Y-79802819D02*
X144442190Y-79802819D01*
X144442190Y-79802819D02*
X144346952Y-79850438D01*
X144346952Y-79850438D02*
X144299333Y-79898057D01*
X144299333Y-79898057D02*
X144251714Y-79993295D01*
X144251714Y-79993295D02*
X144251714Y-80088533D01*
X144251714Y-80088533D02*
X144299333Y-80231390D01*
X144299333Y-80231390D02*
X144870761Y-80802819D01*
X144870761Y-80802819D02*
X144251714Y-80802819D01*
X151931866Y-98422819D02*
X152265199Y-97946628D01*
X152503294Y-98422819D02*
X152503294Y-97422819D01*
X152503294Y-97422819D02*
X152122342Y-97422819D01*
X152122342Y-97422819D02*
X152027104Y-97470438D01*
X152027104Y-97470438D02*
X151979485Y-97518057D01*
X151979485Y-97518057D02*
X151931866Y-97613295D01*
X151931866Y-97613295D02*
X151931866Y-97756152D01*
X151931866Y-97756152D02*
X151979485Y-97851390D01*
X151979485Y-97851390D02*
X152027104Y-97899009D01*
X152027104Y-97899009D02*
X152122342Y-97946628D01*
X152122342Y-97946628D02*
X152503294Y-97946628D01*
X151074723Y-97756152D02*
X151074723Y-98422819D01*
X151312818Y-97375200D02*
X151550913Y-98089485D01*
X151550913Y-98089485D02*
X150931866Y-98089485D01*
X139917666Y-78255219D02*
X140250999Y-77779028D01*
X140489094Y-78255219D02*
X140489094Y-77255219D01*
X140489094Y-77255219D02*
X140108142Y-77255219D01*
X140108142Y-77255219D02*
X140012904Y-77302838D01*
X140012904Y-77302838D02*
X139965285Y-77350457D01*
X139965285Y-77350457D02*
X139917666Y-77445695D01*
X139917666Y-77445695D02*
X139917666Y-77588552D01*
X139917666Y-77588552D02*
X139965285Y-77683790D01*
X139965285Y-77683790D02*
X140012904Y-77731409D01*
X140012904Y-77731409D02*
X140108142Y-77779028D01*
X140108142Y-77779028D02*
X140489094Y-77779028D01*
X139584332Y-77255219D02*
X138965285Y-77255219D01*
X138965285Y-77255219D02*
X139298618Y-77636171D01*
X139298618Y-77636171D02*
X139155761Y-77636171D01*
X139155761Y-77636171D02*
X139060523Y-77683790D01*
X139060523Y-77683790D02*
X139012904Y-77731409D01*
X139012904Y-77731409D02*
X138965285Y-77826647D01*
X138965285Y-77826647D02*
X138965285Y-78064742D01*
X138965285Y-78064742D02*
X139012904Y-78159980D01*
X139012904Y-78159980D02*
X139060523Y-78207600D01*
X139060523Y-78207600D02*
X139155761Y-78255219D01*
X139155761Y-78255219D02*
X139441475Y-78255219D01*
X139441475Y-78255219D02*
X139536713Y-78207600D01*
X139536713Y-78207600D02*
X139584332Y-78159980D01*
X153627257Y-89031180D02*
X153674876Y-89078800D01*
X153674876Y-89078800D02*
X153817733Y-89126419D01*
X153817733Y-89126419D02*
X153912971Y-89126419D01*
X153912971Y-89126419D02*
X154055828Y-89078800D01*
X154055828Y-89078800D02*
X154151066Y-88983561D01*
X154151066Y-88983561D02*
X154198685Y-88888323D01*
X154198685Y-88888323D02*
X154246304Y-88697847D01*
X154246304Y-88697847D02*
X154246304Y-88554990D01*
X154246304Y-88554990D02*
X154198685Y-88364514D01*
X154198685Y-88364514D02*
X154151066Y-88269276D01*
X154151066Y-88269276D02*
X154055828Y-88174038D01*
X154055828Y-88174038D02*
X153912971Y-88126419D01*
X153912971Y-88126419D02*
X153817733Y-88126419D01*
X153817733Y-88126419D02*
X153674876Y-88174038D01*
X153674876Y-88174038D02*
X153627257Y-88221657D01*
X152674876Y-89126419D02*
X153246304Y-89126419D01*
X152960590Y-89126419D02*
X152960590Y-88126419D01*
X152960590Y-88126419D02*
X153055828Y-88269276D01*
X153055828Y-88269276D02*
X153151066Y-88364514D01*
X153151066Y-88364514D02*
X153246304Y-88412133D01*
X152341542Y-88126419D02*
X151722495Y-88126419D01*
X151722495Y-88126419D02*
X152055828Y-88507371D01*
X152055828Y-88507371D02*
X151912971Y-88507371D01*
X151912971Y-88507371D02*
X151817733Y-88554990D01*
X151817733Y-88554990D02*
X151770114Y-88602609D01*
X151770114Y-88602609D02*
X151722495Y-88697847D01*
X151722495Y-88697847D02*
X151722495Y-88935942D01*
X151722495Y-88935942D02*
X151770114Y-89031180D01*
X151770114Y-89031180D02*
X151817733Y-89078800D01*
X151817733Y-89078800D02*
X151912971Y-89126419D01*
X151912971Y-89126419D02*
X152198685Y-89126419D01*
X152198685Y-89126419D02*
X152293923Y-89078800D01*
X152293923Y-89078800D02*
X152341542Y-89031180D01*
D11*
X107040000Y-70900000D02*
X107040000Y-73500000D01*
X107040000Y-70900000D02*
X157960000Y-70900000D01*
X107040000Y-73500000D02*
X109640000Y-73500000D01*
X107040000Y-74770000D02*
X107040000Y-76100000D01*
X107040000Y-76100000D02*
X108370000Y-76100000D01*
X109640000Y-73500000D02*
X109640000Y-76100000D01*
X109640000Y-76100000D02*
X157960000Y-76100000D01*
X157960000Y-70900000D02*
X157960000Y-76100000D01*
X114632000Y-81069748D02*
X114632000Y-81592252D01*
X116102000Y-81069748D02*
X116102000Y-81592252D01*
X148766000Y-84017267D02*
X148766000Y-83724733D01*
X149786000Y-84017267D02*
X149786000Y-83724733D01*
X149276724Y-95921500D02*
X148767276Y-95921500D01*
X149276724Y-96966500D02*
X148767276Y-96966500D01*
X150292724Y-86396500D02*
X149783276Y-86396500D01*
X150292724Y-87441500D02*
X149783276Y-87441500D01*
X112219000Y-81069748D02*
X112219000Y-81592252D01*
X113689000Y-81069748D02*
X113689000Y-81592252D01*
X139922267Y-78408000D02*
X139579733Y-78408000D01*
X139922267Y-79428000D02*
X139579733Y-79428000D01*
X107901000Y-82608252D02*
X107901000Y-82085748D01*
X109371000Y-82608252D02*
X109371000Y-82085748D01*
X145637267Y-78408000D02*
X145294733Y-78408000D01*
X145637267Y-79428000D02*
X145294733Y-79428000D01*
X149300224Y-97445500D02*
X148790776Y-97445500D01*
X149300224Y-98490500D02*
X148790776Y-98490500D01*
X139496276Y-80427500D02*
X140005724Y-80427500D01*
X139496276Y-81472500D02*
X140005724Y-81472500D01*
X150184267Y-88060000D02*
X149891733Y-88060000D01*
X150184267Y-89080000D02*
X149891733Y-89080000D01*
%LPC*%
D12*
X161500000Y-73500000D03*
D13*
X126289000Y-94920000D03*
D14*
X126289000Y-92380000D03*
X126289000Y-89840000D03*
D15*
X159436000Y-89934000D03*
D12*
X159436000Y-84934000D03*
X159436000Y-79934000D03*
X103500000Y-96500000D03*
D16*
X140926000Y-88808000D03*
X142926000Y-88808000D03*
X144926000Y-88808000D03*
X141926000Y-87808000D03*
X143926000Y-87808000D03*
X140916000Y-86808000D03*
X144926000Y-86808000D03*
X142926000Y-86798000D03*
D12*
X103500000Y-73500000D03*
D13*
X117907000Y-94920000D03*
D14*
X117907000Y-92380000D03*
X117907000Y-89840000D03*
D17*
X132893000Y-97079000D03*
D12*
X161500000Y-96500000D03*
D17*
X142672000Y-96952000D03*
D18*
X145212000Y-96952000D03*
D17*
X111430000Y-97079000D03*
X108370000Y-74770000D03*
D18*
X108370000Y-72230000D03*
X110910000Y-74770000D03*
X110910000Y-72230000D03*
X113450000Y-74770000D03*
X113450000Y-72230000D03*
X115990000Y-74770000D03*
X115990000Y-72230000D03*
X118530000Y-74770000D03*
X118530000Y-72230000D03*
X121070000Y-74770000D03*
X121070000Y-72230000D03*
X123610000Y-74770000D03*
X123610000Y-72230000D03*
X126150000Y-74770000D03*
X126150000Y-72230000D03*
X128690000Y-74770000D03*
X128690000Y-72230000D03*
X131230000Y-74770000D03*
X131230000Y-72230000D03*
X133770000Y-74770000D03*
X133770000Y-72230000D03*
X136310000Y-74770000D03*
X136310000Y-72230000D03*
X138850000Y-74770000D03*
X138850000Y-72230000D03*
X141390000Y-74770000D03*
X141390000Y-72230000D03*
X143930000Y-74770000D03*
X143930000Y-72230000D03*
X146470000Y-74770000D03*
X146470000Y-72230000D03*
X149010000Y-74770000D03*
X149010000Y-72230000D03*
X151550000Y-74770000D03*
X151550000Y-72230000D03*
X154090000Y-74770000D03*
X154090000Y-72230000D03*
X156630000Y-74770000D03*
X156630000Y-72230000D03*
D19*
X115367000Y-82368500D03*
X115367000Y-80293500D03*
D20*
X149276000Y-83008500D03*
X149276000Y-84733500D03*
D21*
X148109500Y-96444000D03*
X149934500Y-96444000D03*
X149125500Y-86919000D03*
X150950500Y-86919000D03*
D19*
X112954000Y-82368500D03*
X112954000Y-80293500D03*
D22*
X138876000Y-78918000D03*
X140626000Y-78918000D03*
D23*
X108636000Y-81309500D03*
X108636000Y-83384500D03*
D22*
X144591000Y-78918000D03*
X146341000Y-78918000D03*
D21*
X148133000Y-97968000D03*
X149958000Y-97968000D03*
D24*
X140663500Y-80950000D03*
X138838500Y-80950000D03*
D25*
X149175500Y-88570000D03*
X150900500Y-88570000D03*
%LPD*%
M02*
