%TF.GenerationSoftware,KiCad,Pcbnew,8.0.8*%
%TF.CreationDate,2025-02-13T13:17:44+02:00*%
%TF.ProjectId,civic_serializer,63697669-635f-4736-9572-69616c697a65,rev?*%
%TF.SameCoordinates,Original*%
%TF.FileFunction,Drillmap*%
%TF.FilePolarity,Positive*%
%FSLAX45Y45*%
G04 Gerber Fmt 4.5, Leading zero omitted, Abs format (unit mm)*
G04 Created by KiCad (PCBNEW 8.0.8) date 2025-02-13 13:17:44*
%MOMM*%
%LPD*%
G01*
G04 APERTURE LIST*
%ADD10C,0.100000*%
%ADD11C,0.200000*%
%ADD12C,0.170000*%
G04 APERTURE END LIST*
D10*
X16200000Y-7000000D02*
G75*
G02*
X16500000Y-7300000I0J-300000D01*
G01*
X16500000Y-9700000D02*
X16500000Y-7300000D01*
X10000000Y-7300000D02*
X10000000Y-9700000D01*
X10300000Y-10000000D02*
G75*
G02*
X10000000Y-9700000I0J300000D01*
G01*
X10300000Y-10000000D02*
X16200000Y-10000000D01*
X16500000Y-9700000D02*
G75*
G02*
X16200000Y-10000000I-300000J0D01*
G01*
X10000000Y-7300000D02*
G75*
G02*
X10300000Y-7000000I300000J0D01*
G01*
X16200000Y-7000000D02*
X10300000Y-7000000D01*
D11*
D10*
X10162800Y-7762500D02*
X10192800Y-7792500D01*
X10192800Y-7762500D02*
X10162800Y-7792500D01*
X10950200Y-7775200D02*
X10980200Y-7805200D01*
X10980200Y-7775200D02*
X10950200Y-7805200D01*
X11077200Y-8168900D02*
X11107200Y-8198900D01*
X11107200Y-8168900D02*
X11077200Y-8198900D01*
X11077200Y-8270500D02*
X11107200Y-8300500D01*
X11107200Y-8270500D02*
X11077200Y-8300500D01*
X11204200Y-7343400D02*
X11234200Y-7373400D01*
X11234200Y-7343400D02*
X11204200Y-7373400D01*
X11534400Y-7902200D02*
X11564400Y-7932200D01*
X11564400Y-7902200D02*
X11534400Y-7932200D01*
X11559800Y-8397500D02*
X11589800Y-8427500D01*
X11589800Y-8397500D02*
X11559800Y-8427500D01*
X11636000Y-7826000D02*
X11666000Y-7856000D01*
X11666000Y-7826000D02*
X11636000Y-7856000D01*
X12022080Y-8989320D02*
X12052080Y-9019320D01*
X12052080Y-8989320D02*
X12022080Y-9019320D01*
X12103360Y-8989320D02*
X12133360Y-9019320D01*
X12133360Y-8989320D02*
X12103360Y-9019320D01*
X12194800Y-8420550D02*
X12224800Y-8450550D01*
X12224800Y-8420550D02*
X12194800Y-8450550D01*
X12359900Y-7686300D02*
X12389900Y-7716300D01*
X12389900Y-7686300D02*
X12359900Y-7716300D01*
X12385300Y-7626250D02*
X12415300Y-7656250D01*
X12415300Y-7626250D02*
X12385300Y-7656250D01*
X12448800Y-7343400D02*
X12478800Y-7373400D01*
X12478800Y-7343400D02*
X12448800Y-7373400D01*
X12448800Y-7673600D02*
X12478800Y-7703600D01*
X12478800Y-7673600D02*
X12448800Y-7703600D01*
X12550400Y-8105400D02*
X12580400Y-8135400D01*
X12580400Y-8105400D02*
X12550400Y-8135400D01*
X12677400Y-8321300D02*
X12707400Y-8351300D01*
X12707400Y-8321300D02*
X12677400Y-8351300D01*
X12728200Y-7336200D02*
X12758200Y-7366200D01*
X12758200Y-7336200D02*
X12728200Y-7366200D01*
X12779000Y-9413500D02*
X12809000Y-9443500D01*
X12809000Y-9413500D02*
X12779000Y-9443500D01*
X12846825Y-7868425D02*
X12876825Y-7898425D01*
X12876825Y-7868425D02*
X12846825Y-7898425D01*
X12855200Y-7622800D02*
X12885200Y-7652800D01*
X12885200Y-7622800D02*
X12855200Y-7652800D01*
X12892201Y-8055634D02*
X12922201Y-8085634D01*
X12922201Y-8055634D02*
X12892201Y-8085634D01*
X12956800Y-8054600D02*
X12986800Y-8084600D01*
X12986800Y-8054600D02*
X12956800Y-8084600D01*
X12974255Y-7890470D02*
X13004255Y-7920470D01*
X13004255Y-7890470D02*
X12974255Y-7920470D01*
X13033000Y-8067300D02*
X13063000Y-8097300D01*
X13063000Y-8067300D02*
X13033000Y-8097300D01*
X13096500Y-8105400D02*
X13126500Y-8135400D01*
X13126500Y-8105400D02*
X13096500Y-8135400D01*
X13160000Y-8143500D02*
X13190000Y-8173500D01*
X13190000Y-8143500D02*
X13160000Y-8173500D01*
X13172700Y-7876800D02*
X13202700Y-7906800D01*
X13202700Y-7876800D02*
X13172700Y-7906800D01*
X13213895Y-8170180D02*
X13243895Y-8200180D01*
X13243895Y-8170180D02*
X13213895Y-8200180D01*
X13242550Y-7921250D02*
X13272550Y-7951250D01*
X13272550Y-7921250D02*
X13242550Y-7951250D01*
X13287000Y-7864100D02*
X13317000Y-7894100D01*
X13317000Y-7864100D02*
X13287000Y-7894100D01*
X13490200Y-7978400D02*
X13520200Y-8008400D01*
X13520200Y-7978400D02*
X13490200Y-8008400D01*
X13515600Y-7635500D02*
X13545600Y-7665500D01*
X13545600Y-7635500D02*
X13515600Y-7665500D01*
X13579100Y-8359400D02*
X13609100Y-8389400D01*
X13609100Y-8359400D02*
X13579100Y-8389400D01*
X13706100Y-8130800D02*
X13736100Y-8160800D01*
X13736100Y-8130800D02*
X13706100Y-8160800D01*
X13807700Y-7673600D02*
X13837700Y-7703600D01*
X13837700Y-7673600D02*
X13807700Y-7703600D01*
X13845800Y-7978400D02*
X13875800Y-8008400D01*
X13875800Y-7978400D02*
X13845800Y-8008400D01*
X13922000Y-8257800D02*
X13952000Y-8287800D01*
X13952000Y-8257800D02*
X13922000Y-8287800D01*
X13960100Y-7978400D02*
X13990100Y-8008400D01*
X13990100Y-7978400D02*
X13960100Y-8008400D01*
X13985500Y-8194300D02*
X14015500Y-8224300D01*
X14015500Y-8194300D02*
X13985500Y-8224300D01*
X13985500Y-9413500D02*
X14015500Y-9443500D01*
X14015500Y-9413500D02*
X13985500Y-9443500D01*
X14049000Y-8257800D02*
X14079000Y-8287800D01*
X14079000Y-8257800D02*
X14049000Y-8287800D01*
X14061700Y-7635500D02*
X14091700Y-7665500D01*
X14091700Y-7635500D02*
X14061700Y-7665500D01*
X14080750Y-7959350D02*
X14110750Y-7989350D01*
X14110750Y-7959350D02*
X14080750Y-7989350D01*
X14112500Y-7597400D02*
X14142500Y-7627400D01*
X14142500Y-7597400D02*
X14112500Y-7627400D01*
X14144250Y-8086350D02*
X14174250Y-8116350D01*
X14174250Y-8086350D02*
X14144250Y-8116350D01*
X14150600Y-8151600D02*
X14180600Y-8181600D01*
X14180600Y-8151600D02*
X14150600Y-8181600D01*
X14150600Y-8295900D02*
X14180600Y-8325900D01*
X14180600Y-8295900D02*
X14150600Y-8325900D01*
X14214100Y-7851400D02*
X14244100Y-7881400D01*
X14244100Y-7851400D02*
X14214100Y-7881400D01*
X14258632Y-7892984D02*
X14288632Y-7922984D01*
X14288632Y-7892984D02*
X14258632Y-7922984D01*
X14302600Y-9248400D02*
X14332600Y-9278400D01*
X14332600Y-9248400D02*
X14302600Y-9278400D01*
X14315700Y-7876800D02*
X14345700Y-7906800D01*
X14345700Y-7876800D02*
X14315700Y-7906800D01*
X14360150Y-7641850D02*
X14390150Y-7671850D01*
X14390150Y-7641850D02*
X14360150Y-7671850D01*
X14430000Y-7686300D02*
X14460000Y-7716300D01*
X14460000Y-7686300D02*
X14430000Y-7716300D01*
X14493500Y-9350000D02*
X14523500Y-9380000D01*
X14523500Y-9350000D02*
X14493500Y-9380000D01*
X14506200Y-7783850D02*
X14536200Y-7813850D01*
X14536200Y-7783850D02*
X14506200Y-7813850D01*
X14506200Y-8257800D02*
X14536200Y-8287800D01*
X14536200Y-8257800D02*
X14506200Y-8287800D01*
X14518900Y-8194300D02*
X14548900Y-8224300D01*
X14548900Y-8194300D02*
X14518900Y-8224300D01*
X14531600Y-8130800D02*
X14561600Y-8160800D01*
X14561600Y-8130800D02*
X14531600Y-8160800D01*
X14569700Y-9235700D02*
X14599700Y-9265700D01*
X14599700Y-9235700D02*
X14569700Y-9265700D01*
X14645900Y-7953000D02*
X14675900Y-7983000D01*
X14675900Y-7953000D02*
X14645900Y-7983000D01*
X14684000Y-8372100D02*
X14714000Y-8402100D01*
X14714000Y-8372100D02*
X14684000Y-8402100D01*
X14722100Y-7330700D02*
X14752100Y-7360700D01*
X14752100Y-7330700D02*
X14722100Y-7360700D01*
X14722100Y-7622800D02*
X14752100Y-7652800D01*
X14752100Y-7622800D02*
X14722100Y-7652800D01*
X14736050Y-7687550D02*
X14766050Y-7717550D01*
X14766050Y-7687550D02*
X14736050Y-7717550D01*
X14747500Y-8448300D02*
X14777500Y-8478300D01*
X14777500Y-8448300D02*
X14747500Y-8478300D01*
X14785600Y-8295900D02*
X14815600Y-8325900D01*
X14815600Y-8295900D02*
X14785600Y-8325900D01*
X14849100Y-8562600D02*
X14879100Y-8592600D01*
X14879100Y-8562600D02*
X14849100Y-8592600D01*
X15026900Y-8270500D02*
X15056900Y-8300500D01*
X15056900Y-8270500D02*
X15026900Y-8300500D01*
X15128500Y-9692900D02*
X15158500Y-9722900D01*
X15158500Y-9692900D02*
X15128500Y-9722900D01*
X15141200Y-8156200D02*
X15171200Y-8186200D01*
X15171200Y-8156200D02*
X15141200Y-8186200D01*
X15222480Y-8984240D02*
X15252480Y-9014240D01*
X15252480Y-8984240D02*
X15222480Y-9014240D01*
X15333023Y-7700323D02*
X15363023Y-7730323D01*
X15363023Y-7700323D02*
X15333023Y-7730323D01*
X14106600Y-8680800D02*
G75*
G02*
X14076600Y-8680800I-15000J0D01*
G01*
X14076600Y-8680800D02*
G75*
G02*
X14106600Y-8680800I15000J0D01*
G01*
X14107600Y-8880800D02*
G75*
G02*
X14077600Y-8880800I-15000J0D01*
G01*
X14077600Y-8880800D02*
G75*
G02*
X14107600Y-8880800I15000J0D01*
G01*
X14207600Y-8780800D02*
G75*
G02*
X14177600Y-8780800I-15000J0D01*
G01*
X14177600Y-8780800D02*
G75*
G02*
X14207600Y-8780800I15000J0D01*
G01*
X14307600Y-8679800D02*
G75*
G02*
X14277600Y-8679800I-15000J0D01*
G01*
X14277600Y-8679800D02*
G75*
G02*
X14307600Y-8679800I15000J0D01*
G01*
X14307600Y-8880800D02*
G75*
G02*
X14277600Y-8880800I-15000J0D01*
G01*
X14277600Y-8880800D02*
G75*
G02*
X14307600Y-8880800I15000J0D01*
G01*
X14407600Y-8780800D02*
G75*
G02*
X14377600Y-8780800I-15000J0D01*
G01*
X14377600Y-8780800D02*
G75*
G02*
X14407600Y-8780800I15000J0D01*
G01*
X14507600Y-8680800D02*
G75*
G02*
X14477600Y-8680800I-15000J0D01*
G01*
X14477600Y-8680800D02*
G75*
G02*
X14507600Y-8680800I15000J0D01*
G01*
X14507600Y-8880800D02*
G75*
G02*
X14477600Y-8880800I-15000J0D01*
G01*
X14477600Y-8880800D02*
G75*
G02*
X14507600Y-8880800I15000J0D01*
G01*
X11790700Y-8941500D02*
X11790700Y-9026500D01*
X11748200Y-8984000D02*
X11833200Y-8984000D01*
X11790700Y-9195500D02*
X11790700Y-9280500D01*
X11748200Y-9238000D02*
X11833200Y-9238000D01*
X11790700Y-9449500D02*
X11790700Y-9534500D01*
X11748200Y-9492000D02*
X11833200Y-9492000D01*
X12628900Y-8941500D02*
X12628900Y-9026500D01*
X12586400Y-8984000D02*
X12671400Y-8984000D01*
X12628900Y-9195500D02*
X12628900Y-9280500D01*
X12586400Y-9238000D02*
X12671400Y-9238000D01*
X12628900Y-9449500D02*
X12628900Y-9534500D01*
X12586400Y-9492000D02*
X12671400Y-9492000D01*
X10872356Y-7258356D02*
X10872356Y-7187644D01*
X10801644Y-7187644D01*
X10801644Y-7258356D01*
X10872356Y-7258356D01*
X10872356Y-7512356D02*
X10872356Y-7441644D01*
X10801644Y-7441644D01*
X10801644Y-7512356D01*
X10872356Y-7512356D01*
X11126356Y-7258356D02*
X11126356Y-7187644D01*
X11055644Y-7187644D01*
X11055644Y-7258356D01*
X11126356Y-7258356D01*
X11126356Y-7512356D02*
X11126356Y-7441644D01*
X11055644Y-7441644D01*
X11055644Y-7512356D01*
X11126356Y-7512356D01*
X11178356Y-9743256D02*
X11178356Y-9672544D01*
X11107644Y-9672544D01*
X11107644Y-9743256D01*
X11178356Y-9743256D01*
X11380356Y-7258356D02*
X11380356Y-7187644D01*
X11309644Y-7187644D01*
X11309644Y-7258356D01*
X11380356Y-7258356D01*
X11380356Y-7512356D02*
X11380356Y-7441644D01*
X11309644Y-7441644D01*
X11309644Y-7512356D01*
X11380356Y-7512356D01*
X11634356Y-7258356D02*
X11634356Y-7187644D01*
X11563644Y-7187644D01*
X11563644Y-7258356D01*
X11634356Y-7258356D01*
X11634356Y-7512356D02*
X11634356Y-7441644D01*
X11563644Y-7441644D01*
X11563644Y-7512356D01*
X11634356Y-7512356D01*
X11888356Y-7258356D02*
X11888356Y-7187644D01*
X11817644Y-7187644D01*
X11817644Y-7258356D01*
X11888356Y-7258356D01*
X11888356Y-7512356D02*
X11888356Y-7441644D01*
X11817644Y-7441644D01*
X11817644Y-7512356D01*
X11888356Y-7512356D01*
X12142356Y-7258356D02*
X12142356Y-7187644D01*
X12071644Y-7187644D01*
X12071644Y-7258356D01*
X12142356Y-7258356D01*
X12142356Y-7512356D02*
X12142356Y-7441644D01*
X12071644Y-7441644D01*
X12071644Y-7512356D01*
X12142356Y-7512356D01*
X12396356Y-7258356D02*
X12396356Y-7187644D01*
X12325644Y-7187644D01*
X12325644Y-7258356D01*
X12396356Y-7258356D01*
X12396356Y-7512356D02*
X12396356Y-7441644D01*
X12325644Y-7441644D01*
X12325644Y-7512356D01*
X12396356Y-7512356D01*
X12650356Y-7258356D02*
X12650356Y-7187644D01*
X12579644Y-7187644D01*
X12579644Y-7258356D01*
X12650356Y-7258356D01*
X12650356Y-7512356D02*
X12650356Y-7441644D01*
X12579644Y-7441644D01*
X12579644Y-7512356D01*
X12650356Y-7512356D01*
X12904356Y-7258356D02*
X12904356Y-7187644D01*
X12833644Y-7187644D01*
X12833644Y-7258356D01*
X12904356Y-7258356D01*
X12904356Y-7512356D02*
X12904356Y-7441644D01*
X12833644Y-7441644D01*
X12833644Y-7512356D01*
X12904356Y-7512356D01*
X13158356Y-7258356D02*
X13158356Y-7187644D01*
X13087644Y-7187644D01*
X13087644Y-7258356D01*
X13158356Y-7258356D01*
X13158356Y-7512356D02*
X13158356Y-7441644D01*
X13087644Y-7441644D01*
X13087644Y-7512356D01*
X13158356Y-7512356D01*
X13324656Y-9743256D02*
X13324656Y-9672544D01*
X13253944Y-9672544D01*
X13253944Y-9743256D01*
X13324656Y-9743256D01*
X13412356Y-7258356D02*
X13412356Y-7187644D01*
X13341644Y-7187644D01*
X13341644Y-7258356D01*
X13412356Y-7258356D01*
X13412356Y-7512356D02*
X13412356Y-7441644D01*
X13341644Y-7441644D01*
X13341644Y-7512356D01*
X13412356Y-7512356D01*
X13666356Y-7258356D02*
X13666356Y-7187644D01*
X13595644Y-7187644D01*
X13595644Y-7258356D01*
X13666356Y-7258356D01*
X13666356Y-7512356D02*
X13666356Y-7441644D01*
X13595644Y-7441644D01*
X13595644Y-7512356D01*
X13666356Y-7512356D01*
X13920356Y-7258356D02*
X13920356Y-7187644D01*
X13849644Y-7187644D01*
X13849644Y-7258356D01*
X13920356Y-7258356D01*
X13920356Y-7512356D02*
X13920356Y-7441644D01*
X13849644Y-7441644D01*
X13849644Y-7512356D01*
X13920356Y-7512356D01*
X14174356Y-7258356D02*
X14174356Y-7187644D01*
X14103644Y-7187644D01*
X14103644Y-7258356D01*
X14174356Y-7258356D01*
X14174356Y-7512356D02*
X14174356Y-7441644D01*
X14103644Y-7441644D01*
X14103644Y-7512356D01*
X14174356Y-7512356D01*
X14302556Y-9730556D02*
X14302556Y-9659844D01*
X14231844Y-9659844D01*
X14231844Y-9730556D01*
X14302556Y-9730556D01*
X14428356Y-7258356D02*
X14428356Y-7187644D01*
X14357644Y-7187644D01*
X14357644Y-7258356D01*
X14428356Y-7258356D01*
X14428356Y-7512356D02*
X14428356Y-7441644D01*
X14357644Y-7441644D01*
X14357644Y-7512356D01*
X14428356Y-7512356D01*
X14556556Y-9730556D02*
X14556556Y-9659844D01*
X14485844Y-9659844D01*
X14485844Y-9730556D01*
X14556556Y-9730556D01*
X14682356Y-7258356D02*
X14682356Y-7187644D01*
X14611644Y-7187644D01*
X14611644Y-7258356D01*
X14682356Y-7258356D01*
X14682356Y-7512356D02*
X14682356Y-7441644D01*
X14611644Y-7441644D01*
X14611644Y-7512356D01*
X14682356Y-7512356D01*
X14936356Y-7258356D02*
X14936356Y-7187644D01*
X14865644Y-7187644D01*
X14865644Y-7258356D01*
X14936356Y-7258356D01*
X14936356Y-7512356D02*
X14936356Y-7441644D01*
X14865644Y-7441644D01*
X14865644Y-7512356D01*
X14936356Y-7512356D01*
X15190356Y-7258356D02*
X15190356Y-7187644D01*
X15119644Y-7187644D01*
X15119644Y-7258356D01*
X15190356Y-7258356D01*
X15190356Y-7512356D02*
X15190356Y-7441644D01*
X15119644Y-7441644D01*
X15119644Y-7512356D01*
X15190356Y-7512356D01*
X15444356Y-7258356D02*
X15444356Y-7187644D01*
X15373644Y-7187644D01*
X15373644Y-7258356D01*
X15444356Y-7258356D01*
X15444356Y-7512356D02*
X15444356Y-7441644D01*
X15373644Y-7441644D01*
X15373644Y-7512356D01*
X15444356Y-7512356D01*
X15698356Y-7258356D02*
X15698356Y-7187644D01*
X15627644Y-7187644D01*
X15627644Y-7258356D01*
X15698356Y-7258356D01*
X15698356Y-7512356D02*
X15698356Y-7441644D01*
X15627644Y-7441644D01*
X15627644Y-7512356D01*
X15698356Y-7512356D01*
D12*
X15943600Y-8078400D02*
X16028600Y-7993400D01*
X15943600Y-7908400D01*
X15858600Y-7993400D01*
X15943600Y-8078400D01*
X15943600Y-8578400D02*
X16028600Y-8493400D01*
X15943600Y-8408400D01*
X15858600Y-8493400D01*
X15943600Y-8578400D01*
X15943600Y-9078400D02*
X16028600Y-8993400D01*
X15943600Y-8908400D01*
X15858600Y-8993400D01*
X15943600Y-9078400D01*
D11*
X10255777Y-10316484D02*
X10255777Y-10116484D01*
X10255777Y-10116484D02*
X10303396Y-10116484D01*
X10303396Y-10116484D02*
X10331967Y-10126008D01*
X10331967Y-10126008D02*
X10351015Y-10145055D01*
X10351015Y-10145055D02*
X10360539Y-10164103D01*
X10360539Y-10164103D02*
X10370063Y-10202198D01*
X10370063Y-10202198D02*
X10370063Y-10230770D01*
X10370063Y-10230770D02*
X10360539Y-10268865D01*
X10360539Y-10268865D02*
X10351015Y-10287912D01*
X10351015Y-10287912D02*
X10331967Y-10306960D01*
X10331967Y-10306960D02*
X10303396Y-10316484D01*
X10303396Y-10316484D02*
X10255777Y-10316484D01*
X10455777Y-10316484D02*
X10455777Y-10183150D01*
X10455777Y-10221246D02*
X10465301Y-10202198D01*
X10465301Y-10202198D02*
X10474824Y-10192674D01*
X10474824Y-10192674D02*
X10493872Y-10183150D01*
X10493872Y-10183150D02*
X10512920Y-10183150D01*
X10579586Y-10316484D02*
X10579586Y-10183150D01*
X10579586Y-10116484D02*
X10570063Y-10126008D01*
X10570063Y-10126008D02*
X10579586Y-10135531D01*
X10579586Y-10135531D02*
X10589110Y-10126008D01*
X10589110Y-10126008D02*
X10579586Y-10116484D01*
X10579586Y-10116484D02*
X10579586Y-10135531D01*
X10703396Y-10316484D02*
X10684348Y-10306960D01*
X10684348Y-10306960D02*
X10674824Y-10287912D01*
X10674824Y-10287912D02*
X10674824Y-10116484D01*
X10808158Y-10316484D02*
X10789110Y-10306960D01*
X10789110Y-10306960D02*
X10779586Y-10287912D01*
X10779586Y-10287912D02*
X10779586Y-10116484D01*
X11036729Y-10316484D02*
X11036729Y-10116484D01*
X11036729Y-10116484D02*
X11103396Y-10259341D01*
X11103396Y-10259341D02*
X11170063Y-10116484D01*
X11170063Y-10116484D02*
X11170063Y-10316484D01*
X11351015Y-10316484D02*
X11351015Y-10211722D01*
X11351015Y-10211722D02*
X11341491Y-10192674D01*
X11341491Y-10192674D02*
X11322443Y-10183150D01*
X11322443Y-10183150D02*
X11284348Y-10183150D01*
X11284348Y-10183150D02*
X11265301Y-10192674D01*
X11351015Y-10306960D02*
X11331967Y-10316484D01*
X11331967Y-10316484D02*
X11284348Y-10316484D01*
X11284348Y-10316484D02*
X11265301Y-10306960D01*
X11265301Y-10306960D02*
X11255777Y-10287912D01*
X11255777Y-10287912D02*
X11255777Y-10268865D01*
X11255777Y-10268865D02*
X11265301Y-10249817D01*
X11265301Y-10249817D02*
X11284348Y-10240293D01*
X11284348Y-10240293D02*
X11331967Y-10240293D01*
X11331967Y-10240293D02*
X11351015Y-10230770D01*
X11446253Y-10183150D02*
X11446253Y-10383150D01*
X11446253Y-10192674D02*
X11465301Y-10183150D01*
X11465301Y-10183150D02*
X11503396Y-10183150D01*
X11503396Y-10183150D02*
X11522443Y-10192674D01*
X11522443Y-10192674D02*
X11531967Y-10202198D01*
X11531967Y-10202198D02*
X11541491Y-10221246D01*
X11541491Y-10221246D02*
X11541491Y-10278389D01*
X11541491Y-10278389D02*
X11531967Y-10297436D01*
X11531967Y-10297436D02*
X11522443Y-10306960D01*
X11522443Y-10306960D02*
X11503396Y-10316484D01*
X11503396Y-10316484D02*
X11465301Y-10316484D01*
X11465301Y-10316484D02*
X11446253Y-10306960D01*
X11627205Y-10297436D02*
X11636729Y-10306960D01*
X11636729Y-10306960D02*
X11627205Y-10316484D01*
X11627205Y-10316484D02*
X11617682Y-10306960D01*
X11617682Y-10306960D02*
X11627205Y-10297436D01*
X11627205Y-10297436D02*
X11627205Y-10316484D01*
X11627205Y-10192674D02*
X11636729Y-10202198D01*
X11636729Y-10202198D02*
X11627205Y-10211722D01*
X11627205Y-10211722D02*
X11617682Y-10202198D01*
X11617682Y-10202198D02*
X11627205Y-10192674D01*
X11627205Y-10192674D02*
X11627205Y-10211722D01*
D10*
X9965000Y-10630000D02*
X9995000Y-10660000D01*
X9995000Y-10630000D02*
X9965000Y-10660000D01*
D11*
X10293872Y-10536484D02*
X10312920Y-10536484D01*
X10312920Y-10536484D02*
X10331967Y-10546008D01*
X10331967Y-10546008D02*
X10341491Y-10555531D01*
X10341491Y-10555531D02*
X10351015Y-10574579D01*
X10351015Y-10574579D02*
X10360539Y-10612674D01*
X10360539Y-10612674D02*
X10360539Y-10660293D01*
X10360539Y-10660293D02*
X10351015Y-10698389D01*
X10351015Y-10698389D02*
X10341491Y-10717436D01*
X10341491Y-10717436D02*
X10331967Y-10726960D01*
X10331967Y-10726960D02*
X10312920Y-10736484D01*
X10312920Y-10736484D02*
X10293872Y-10736484D01*
X10293872Y-10736484D02*
X10274824Y-10726960D01*
X10274824Y-10726960D02*
X10265301Y-10717436D01*
X10265301Y-10717436D02*
X10255777Y-10698389D01*
X10255777Y-10698389D02*
X10246253Y-10660293D01*
X10246253Y-10660293D02*
X10246253Y-10612674D01*
X10246253Y-10612674D02*
X10255777Y-10574579D01*
X10255777Y-10574579D02*
X10265301Y-10555531D01*
X10265301Y-10555531D02*
X10274824Y-10546008D01*
X10274824Y-10546008D02*
X10293872Y-10536484D01*
X10446253Y-10717436D02*
X10455777Y-10726960D01*
X10455777Y-10726960D02*
X10446253Y-10736484D01*
X10446253Y-10736484D02*
X10436729Y-10726960D01*
X10436729Y-10726960D02*
X10446253Y-10717436D01*
X10446253Y-10717436D02*
X10446253Y-10736484D01*
X10522444Y-10536484D02*
X10646253Y-10536484D01*
X10646253Y-10536484D02*
X10579586Y-10612674D01*
X10579586Y-10612674D02*
X10608158Y-10612674D01*
X10608158Y-10612674D02*
X10627205Y-10622198D01*
X10627205Y-10622198D02*
X10636729Y-10631722D01*
X10636729Y-10631722D02*
X10646253Y-10650770D01*
X10646253Y-10650770D02*
X10646253Y-10698389D01*
X10646253Y-10698389D02*
X10636729Y-10717436D01*
X10636729Y-10717436D02*
X10627205Y-10726960D01*
X10627205Y-10726960D02*
X10608158Y-10736484D01*
X10608158Y-10736484D02*
X10551015Y-10736484D01*
X10551015Y-10736484D02*
X10531967Y-10726960D01*
X10531967Y-10726960D02*
X10522444Y-10717436D01*
X10770063Y-10536484D02*
X10789110Y-10536484D01*
X10789110Y-10536484D02*
X10808158Y-10546008D01*
X10808158Y-10546008D02*
X10817682Y-10555531D01*
X10817682Y-10555531D02*
X10827205Y-10574579D01*
X10827205Y-10574579D02*
X10836729Y-10612674D01*
X10836729Y-10612674D02*
X10836729Y-10660293D01*
X10836729Y-10660293D02*
X10827205Y-10698389D01*
X10827205Y-10698389D02*
X10817682Y-10717436D01*
X10817682Y-10717436D02*
X10808158Y-10726960D01*
X10808158Y-10726960D02*
X10789110Y-10736484D01*
X10789110Y-10736484D02*
X10770063Y-10736484D01*
X10770063Y-10736484D02*
X10751015Y-10726960D01*
X10751015Y-10726960D02*
X10741491Y-10717436D01*
X10741491Y-10717436D02*
X10731967Y-10698389D01*
X10731967Y-10698389D02*
X10722444Y-10660293D01*
X10722444Y-10660293D02*
X10722444Y-10612674D01*
X10722444Y-10612674D02*
X10731967Y-10574579D01*
X10731967Y-10574579D02*
X10741491Y-10555531D01*
X10741491Y-10555531D02*
X10751015Y-10546008D01*
X10751015Y-10546008D02*
X10770063Y-10536484D01*
X10960539Y-10536484D02*
X10979586Y-10536484D01*
X10979586Y-10536484D02*
X10998634Y-10546008D01*
X10998634Y-10546008D02*
X11008158Y-10555531D01*
X11008158Y-10555531D02*
X11017682Y-10574579D01*
X11017682Y-10574579D02*
X11027205Y-10612674D01*
X11027205Y-10612674D02*
X11027205Y-10660293D01*
X11027205Y-10660293D02*
X11017682Y-10698389D01*
X11017682Y-10698389D02*
X11008158Y-10717436D01*
X11008158Y-10717436D02*
X10998634Y-10726960D01*
X10998634Y-10726960D02*
X10979586Y-10736484D01*
X10979586Y-10736484D02*
X10960539Y-10736484D01*
X10960539Y-10736484D02*
X10941491Y-10726960D01*
X10941491Y-10726960D02*
X10931967Y-10717436D01*
X10931967Y-10717436D02*
X10922444Y-10698389D01*
X10922444Y-10698389D02*
X10912920Y-10660293D01*
X10912920Y-10660293D02*
X10912920Y-10612674D01*
X10912920Y-10612674D02*
X10922444Y-10574579D01*
X10922444Y-10574579D02*
X10931967Y-10555531D01*
X10931967Y-10555531D02*
X10941491Y-10546008D01*
X10941491Y-10546008D02*
X10960539Y-10536484D01*
X11112920Y-10736484D02*
X11112920Y-10603150D01*
X11112920Y-10622198D02*
X11122444Y-10612674D01*
X11122444Y-10612674D02*
X11141491Y-10603150D01*
X11141491Y-10603150D02*
X11170063Y-10603150D01*
X11170063Y-10603150D02*
X11189110Y-10612674D01*
X11189110Y-10612674D02*
X11198634Y-10631722D01*
X11198634Y-10631722D02*
X11198634Y-10736484D01*
X11198634Y-10631722D02*
X11208158Y-10612674D01*
X11208158Y-10612674D02*
X11227205Y-10603150D01*
X11227205Y-10603150D02*
X11255777Y-10603150D01*
X11255777Y-10603150D02*
X11274824Y-10612674D01*
X11274824Y-10612674D02*
X11284348Y-10631722D01*
X11284348Y-10631722D02*
X11284348Y-10736484D01*
X11379586Y-10736484D02*
X11379586Y-10603150D01*
X11379586Y-10622198D02*
X11389110Y-10612674D01*
X11389110Y-10612674D02*
X11408158Y-10603150D01*
X11408158Y-10603150D02*
X11436729Y-10603150D01*
X11436729Y-10603150D02*
X11455777Y-10612674D01*
X11455777Y-10612674D02*
X11465301Y-10631722D01*
X11465301Y-10631722D02*
X11465301Y-10736484D01*
X11465301Y-10631722D02*
X11474824Y-10612674D01*
X11474824Y-10612674D02*
X11493872Y-10603150D01*
X11493872Y-10603150D02*
X11522443Y-10603150D01*
X11522443Y-10603150D02*
X11541491Y-10612674D01*
X11541491Y-10612674D02*
X11551015Y-10631722D01*
X11551015Y-10631722D02*
X11551015Y-10736484D01*
X11941491Y-10526960D02*
X11770063Y-10784103D01*
X12198634Y-10536484D02*
X12217682Y-10536484D01*
X12217682Y-10536484D02*
X12236729Y-10546008D01*
X12236729Y-10546008D02*
X12246253Y-10555531D01*
X12246253Y-10555531D02*
X12255777Y-10574579D01*
X12255777Y-10574579D02*
X12265301Y-10612674D01*
X12265301Y-10612674D02*
X12265301Y-10660293D01*
X12265301Y-10660293D02*
X12255777Y-10698389D01*
X12255777Y-10698389D02*
X12246253Y-10717436D01*
X12246253Y-10717436D02*
X12236729Y-10726960D01*
X12236729Y-10726960D02*
X12217682Y-10736484D01*
X12217682Y-10736484D02*
X12198634Y-10736484D01*
X12198634Y-10736484D02*
X12179586Y-10726960D01*
X12179586Y-10726960D02*
X12170063Y-10717436D01*
X12170063Y-10717436D02*
X12160539Y-10698389D01*
X12160539Y-10698389D02*
X12151015Y-10660293D01*
X12151015Y-10660293D02*
X12151015Y-10612674D01*
X12151015Y-10612674D02*
X12160539Y-10574579D01*
X12160539Y-10574579D02*
X12170063Y-10555531D01*
X12170063Y-10555531D02*
X12179586Y-10546008D01*
X12179586Y-10546008D02*
X12198634Y-10536484D01*
X12351015Y-10717436D02*
X12360539Y-10726960D01*
X12360539Y-10726960D02*
X12351015Y-10736484D01*
X12351015Y-10736484D02*
X12341491Y-10726960D01*
X12341491Y-10726960D02*
X12351015Y-10717436D01*
X12351015Y-10717436D02*
X12351015Y-10736484D01*
X12484348Y-10536484D02*
X12503396Y-10536484D01*
X12503396Y-10536484D02*
X12522444Y-10546008D01*
X12522444Y-10546008D02*
X12531967Y-10555531D01*
X12531967Y-10555531D02*
X12541491Y-10574579D01*
X12541491Y-10574579D02*
X12551015Y-10612674D01*
X12551015Y-10612674D02*
X12551015Y-10660293D01*
X12551015Y-10660293D02*
X12541491Y-10698389D01*
X12541491Y-10698389D02*
X12531967Y-10717436D01*
X12531967Y-10717436D02*
X12522444Y-10726960D01*
X12522444Y-10726960D02*
X12503396Y-10736484D01*
X12503396Y-10736484D02*
X12484348Y-10736484D01*
X12484348Y-10736484D02*
X12465301Y-10726960D01*
X12465301Y-10726960D02*
X12455777Y-10717436D01*
X12455777Y-10717436D02*
X12446253Y-10698389D01*
X12446253Y-10698389D02*
X12436729Y-10660293D01*
X12436729Y-10660293D02*
X12436729Y-10612674D01*
X12436729Y-10612674D02*
X12446253Y-10574579D01*
X12446253Y-10574579D02*
X12455777Y-10555531D01*
X12455777Y-10555531D02*
X12465301Y-10546008D01*
X12465301Y-10546008D02*
X12484348Y-10536484D01*
X12741491Y-10736484D02*
X12627206Y-10736484D01*
X12684348Y-10736484D02*
X12684348Y-10536484D01*
X12684348Y-10536484D02*
X12665301Y-10565055D01*
X12665301Y-10565055D02*
X12646253Y-10584103D01*
X12646253Y-10584103D02*
X12627206Y-10593627D01*
X12931967Y-10736484D02*
X12817682Y-10736484D01*
X12874825Y-10736484D02*
X12874825Y-10536484D01*
X12874825Y-10536484D02*
X12855777Y-10565055D01*
X12855777Y-10565055D02*
X12836729Y-10584103D01*
X12836729Y-10584103D02*
X12817682Y-10593627D01*
X13046253Y-10622198D02*
X13027206Y-10612674D01*
X13027206Y-10612674D02*
X13017682Y-10603150D01*
X13017682Y-10603150D02*
X13008158Y-10584103D01*
X13008158Y-10584103D02*
X13008158Y-10574579D01*
X13008158Y-10574579D02*
X13017682Y-10555531D01*
X13017682Y-10555531D02*
X13027206Y-10546008D01*
X13027206Y-10546008D02*
X13046253Y-10536484D01*
X13046253Y-10536484D02*
X13084348Y-10536484D01*
X13084348Y-10536484D02*
X13103396Y-10546008D01*
X13103396Y-10546008D02*
X13112920Y-10555531D01*
X13112920Y-10555531D02*
X13122444Y-10574579D01*
X13122444Y-10574579D02*
X13122444Y-10584103D01*
X13122444Y-10584103D02*
X13112920Y-10603150D01*
X13112920Y-10603150D02*
X13103396Y-10612674D01*
X13103396Y-10612674D02*
X13084348Y-10622198D01*
X13084348Y-10622198D02*
X13046253Y-10622198D01*
X13046253Y-10622198D02*
X13027206Y-10631722D01*
X13027206Y-10631722D02*
X13017682Y-10641246D01*
X13017682Y-10641246D02*
X13008158Y-10660293D01*
X13008158Y-10660293D02*
X13008158Y-10698389D01*
X13008158Y-10698389D02*
X13017682Y-10717436D01*
X13017682Y-10717436D02*
X13027206Y-10726960D01*
X13027206Y-10726960D02*
X13046253Y-10736484D01*
X13046253Y-10736484D02*
X13084348Y-10736484D01*
X13084348Y-10736484D02*
X13103396Y-10726960D01*
X13103396Y-10726960D02*
X13112920Y-10717436D01*
X13112920Y-10717436D02*
X13122444Y-10698389D01*
X13122444Y-10698389D02*
X13122444Y-10660293D01*
X13122444Y-10660293D02*
X13112920Y-10641246D01*
X13112920Y-10641246D02*
X13103396Y-10631722D01*
X13103396Y-10631722D02*
X13084348Y-10622198D01*
X13198634Y-10536484D02*
X13198634Y-10574579D01*
X13274825Y-10536484D02*
X13274825Y-10574579D01*
X13570063Y-10812674D02*
X13560539Y-10803150D01*
X13560539Y-10803150D02*
X13541491Y-10774579D01*
X13541491Y-10774579D02*
X13531968Y-10755531D01*
X13531968Y-10755531D02*
X13522444Y-10726960D01*
X13522444Y-10726960D02*
X13512920Y-10679341D01*
X13512920Y-10679341D02*
X13512920Y-10641246D01*
X13512920Y-10641246D02*
X13522444Y-10593627D01*
X13522444Y-10593627D02*
X13531968Y-10565055D01*
X13531968Y-10565055D02*
X13541491Y-10546008D01*
X13541491Y-10546008D02*
X13560539Y-10517436D01*
X13560539Y-10517436D02*
X13570063Y-10507912D01*
X13627206Y-10536484D02*
X13760539Y-10536484D01*
X13760539Y-10536484D02*
X13674825Y-10736484D01*
X13817682Y-10536484D02*
X13941491Y-10536484D01*
X13941491Y-10536484D02*
X13874825Y-10612674D01*
X13874825Y-10612674D02*
X13903396Y-10612674D01*
X13903396Y-10612674D02*
X13922444Y-10622198D01*
X13922444Y-10622198D02*
X13931968Y-10631722D01*
X13931968Y-10631722D02*
X13941491Y-10650770D01*
X13941491Y-10650770D02*
X13941491Y-10698389D01*
X13941491Y-10698389D02*
X13931968Y-10717436D01*
X13931968Y-10717436D02*
X13922444Y-10726960D01*
X13922444Y-10726960D02*
X13903396Y-10736484D01*
X13903396Y-10736484D02*
X13846253Y-10736484D01*
X13846253Y-10736484D02*
X13827206Y-10726960D01*
X13827206Y-10726960D02*
X13817682Y-10717436D01*
X14179587Y-10736484D02*
X14179587Y-10536484D01*
X14265301Y-10736484D02*
X14265301Y-10631722D01*
X14265301Y-10631722D02*
X14255777Y-10612674D01*
X14255777Y-10612674D02*
X14236730Y-10603150D01*
X14236730Y-10603150D02*
X14208158Y-10603150D01*
X14208158Y-10603150D02*
X14189110Y-10612674D01*
X14189110Y-10612674D02*
X14179587Y-10622198D01*
X14389110Y-10736484D02*
X14370063Y-10726960D01*
X14370063Y-10726960D02*
X14360539Y-10717436D01*
X14360539Y-10717436D02*
X14351015Y-10698389D01*
X14351015Y-10698389D02*
X14351015Y-10641246D01*
X14351015Y-10641246D02*
X14360539Y-10622198D01*
X14360539Y-10622198D02*
X14370063Y-10612674D01*
X14370063Y-10612674D02*
X14389110Y-10603150D01*
X14389110Y-10603150D02*
X14417682Y-10603150D01*
X14417682Y-10603150D02*
X14436730Y-10612674D01*
X14436730Y-10612674D02*
X14446253Y-10622198D01*
X14446253Y-10622198D02*
X14455777Y-10641246D01*
X14455777Y-10641246D02*
X14455777Y-10698389D01*
X14455777Y-10698389D02*
X14446253Y-10717436D01*
X14446253Y-10717436D02*
X14436730Y-10726960D01*
X14436730Y-10726960D02*
X14417682Y-10736484D01*
X14417682Y-10736484D02*
X14389110Y-10736484D01*
X14570063Y-10736484D02*
X14551015Y-10726960D01*
X14551015Y-10726960D02*
X14541491Y-10707912D01*
X14541491Y-10707912D02*
X14541491Y-10536484D01*
X14722444Y-10726960D02*
X14703396Y-10736484D01*
X14703396Y-10736484D02*
X14665301Y-10736484D01*
X14665301Y-10736484D02*
X14646253Y-10726960D01*
X14646253Y-10726960D02*
X14636730Y-10707912D01*
X14636730Y-10707912D02*
X14636730Y-10631722D01*
X14636730Y-10631722D02*
X14646253Y-10612674D01*
X14646253Y-10612674D02*
X14665301Y-10603150D01*
X14665301Y-10603150D02*
X14703396Y-10603150D01*
X14703396Y-10603150D02*
X14722444Y-10612674D01*
X14722444Y-10612674D02*
X14731968Y-10631722D01*
X14731968Y-10631722D02*
X14731968Y-10650770D01*
X14731968Y-10650770D02*
X14636730Y-10669817D01*
X14808158Y-10726960D02*
X14827206Y-10736484D01*
X14827206Y-10736484D02*
X14865301Y-10736484D01*
X14865301Y-10736484D02*
X14884349Y-10726960D01*
X14884349Y-10726960D02*
X14893872Y-10707912D01*
X14893872Y-10707912D02*
X14893872Y-10698389D01*
X14893872Y-10698389D02*
X14884349Y-10679341D01*
X14884349Y-10679341D02*
X14865301Y-10669817D01*
X14865301Y-10669817D02*
X14836730Y-10669817D01*
X14836730Y-10669817D02*
X14817682Y-10660293D01*
X14817682Y-10660293D02*
X14808158Y-10641246D01*
X14808158Y-10641246D02*
X14808158Y-10631722D01*
X14808158Y-10631722D02*
X14817682Y-10612674D01*
X14817682Y-10612674D02*
X14836730Y-10603150D01*
X14836730Y-10603150D02*
X14865301Y-10603150D01*
X14865301Y-10603150D02*
X14884349Y-10612674D01*
X14960539Y-10812674D02*
X14970063Y-10803150D01*
X14970063Y-10803150D02*
X14989111Y-10774579D01*
X14989111Y-10774579D02*
X14998634Y-10755531D01*
X14998634Y-10755531D02*
X15008158Y-10726960D01*
X15008158Y-10726960D02*
X15017682Y-10679341D01*
X15017682Y-10679341D02*
X15017682Y-10641246D01*
X15017682Y-10641246D02*
X15008158Y-10593627D01*
X15008158Y-10593627D02*
X14998634Y-10565055D01*
X14998634Y-10565055D02*
X14989111Y-10546008D01*
X14989111Y-10546008D02*
X14970063Y-10517436D01*
X14970063Y-10517436D02*
X14960539Y-10507912D01*
D10*
X9995000Y-10909000D02*
G75*
G02*
X9965000Y-10909000I-15000J0D01*
G01*
X9965000Y-10909000D02*
G75*
G02*
X9995000Y-10909000I15000J0D01*
G01*
D11*
X10293872Y-10800484D02*
X10312920Y-10800484D01*
X10312920Y-10800484D02*
X10331967Y-10810008D01*
X10331967Y-10810008D02*
X10341491Y-10819531D01*
X10341491Y-10819531D02*
X10351015Y-10838579D01*
X10351015Y-10838579D02*
X10360539Y-10876674D01*
X10360539Y-10876674D02*
X10360539Y-10924293D01*
X10360539Y-10924293D02*
X10351015Y-10962389D01*
X10351015Y-10962389D02*
X10341491Y-10981436D01*
X10341491Y-10981436D02*
X10331967Y-10990960D01*
X10331967Y-10990960D02*
X10312920Y-11000484D01*
X10312920Y-11000484D02*
X10293872Y-11000484D01*
X10293872Y-11000484D02*
X10274824Y-10990960D01*
X10274824Y-10990960D02*
X10265301Y-10981436D01*
X10265301Y-10981436D02*
X10255777Y-10962389D01*
X10255777Y-10962389D02*
X10246253Y-10924293D01*
X10246253Y-10924293D02*
X10246253Y-10876674D01*
X10246253Y-10876674D02*
X10255777Y-10838579D01*
X10255777Y-10838579D02*
X10265301Y-10819531D01*
X10265301Y-10819531D02*
X10274824Y-10810008D01*
X10274824Y-10810008D02*
X10293872Y-10800484D01*
X10446253Y-10981436D02*
X10455777Y-10990960D01*
X10455777Y-10990960D02*
X10446253Y-11000484D01*
X10446253Y-11000484D02*
X10436729Y-10990960D01*
X10436729Y-10990960D02*
X10446253Y-10981436D01*
X10446253Y-10981436D02*
X10446253Y-11000484D01*
X10522444Y-10800484D02*
X10646253Y-10800484D01*
X10646253Y-10800484D02*
X10579586Y-10876674D01*
X10579586Y-10876674D02*
X10608158Y-10876674D01*
X10608158Y-10876674D02*
X10627205Y-10886198D01*
X10627205Y-10886198D02*
X10636729Y-10895722D01*
X10636729Y-10895722D02*
X10646253Y-10914770D01*
X10646253Y-10914770D02*
X10646253Y-10962389D01*
X10646253Y-10962389D02*
X10636729Y-10981436D01*
X10636729Y-10981436D02*
X10627205Y-10990960D01*
X10627205Y-10990960D02*
X10608158Y-11000484D01*
X10608158Y-11000484D02*
X10551015Y-11000484D01*
X10551015Y-11000484D02*
X10531967Y-10990960D01*
X10531967Y-10990960D02*
X10522444Y-10981436D01*
X10770063Y-10800484D02*
X10789110Y-10800484D01*
X10789110Y-10800484D02*
X10808158Y-10810008D01*
X10808158Y-10810008D02*
X10817682Y-10819531D01*
X10817682Y-10819531D02*
X10827205Y-10838579D01*
X10827205Y-10838579D02*
X10836729Y-10876674D01*
X10836729Y-10876674D02*
X10836729Y-10924293D01*
X10836729Y-10924293D02*
X10827205Y-10962389D01*
X10827205Y-10962389D02*
X10817682Y-10981436D01*
X10817682Y-10981436D02*
X10808158Y-10990960D01*
X10808158Y-10990960D02*
X10789110Y-11000484D01*
X10789110Y-11000484D02*
X10770063Y-11000484D01*
X10770063Y-11000484D02*
X10751015Y-10990960D01*
X10751015Y-10990960D02*
X10741491Y-10981436D01*
X10741491Y-10981436D02*
X10731967Y-10962389D01*
X10731967Y-10962389D02*
X10722444Y-10924293D01*
X10722444Y-10924293D02*
X10722444Y-10876674D01*
X10722444Y-10876674D02*
X10731967Y-10838579D01*
X10731967Y-10838579D02*
X10741491Y-10819531D01*
X10741491Y-10819531D02*
X10751015Y-10810008D01*
X10751015Y-10810008D02*
X10770063Y-10800484D01*
X10960539Y-10800484D02*
X10979586Y-10800484D01*
X10979586Y-10800484D02*
X10998634Y-10810008D01*
X10998634Y-10810008D02*
X11008158Y-10819531D01*
X11008158Y-10819531D02*
X11017682Y-10838579D01*
X11017682Y-10838579D02*
X11027205Y-10876674D01*
X11027205Y-10876674D02*
X11027205Y-10924293D01*
X11027205Y-10924293D02*
X11017682Y-10962389D01*
X11017682Y-10962389D02*
X11008158Y-10981436D01*
X11008158Y-10981436D02*
X10998634Y-10990960D01*
X10998634Y-10990960D02*
X10979586Y-11000484D01*
X10979586Y-11000484D02*
X10960539Y-11000484D01*
X10960539Y-11000484D02*
X10941491Y-10990960D01*
X10941491Y-10990960D02*
X10931967Y-10981436D01*
X10931967Y-10981436D02*
X10922444Y-10962389D01*
X10922444Y-10962389D02*
X10912920Y-10924293D01*
X10912920Y-10924293D02*
X10912920Y-10876674D01*
X10912920Y-10876674D02*
X10922444Y-10838579D01*
X10922444Y-10838579D02*
X10931967Y-10819531D01*
X10931967Y-10819531D02*
X10941491Y-10810008D01*
X10941491Y-10810008D02*
X10960539Y-10800484D01*
X11112920Y-11000484D02*
X11112920Y-10867150D01*
X11112920Y-10886198D02*
X11122444Y-10876674D01*
X11122444Y-10876674D02*
X11141491Y-10867150D01*
X11141491Y-10867150D02*
X11170063Y-10867150D01*
X11170063Y-10867150D02*
X11189110Y-10876674D01*
X11189110Y-10876674D02*
X11198634Y-10895722D01*
X11198634Y-10895722D02*
X11198634Y-11000484D01*
X11198634Y-10895722D02*
X11208158Y-10876674D01*
X11208158Y-10876674D02*
X11227205Y-10867150D01*
X11227205Y-10867150D02*
X11255777Y-10867150D01*
X11255777Y-10867150D02*
X11274824Y-10876674D01*
X11274824Y-10876674D02*
X11284348Y-10895722D01*
X11284348Y-10895722D02*
X11284348Y-11000484D01*
X11379586Y-11000484D02*
X11379586Y-10867150D01*
X11379586Y-10886198D02*
X11389110Y-10876674D01*
X11389110Y-10876674D02*
X11408158Y-10867150D01*
X11408158Y-10867150D02*
X11436729Y-10867150D01*
X11436729Y-10867150D02*
X11455777Y-10876674D01*
X11455777Y-10876674D02*
X11465301Y-10895722D01*
X11465301Y-10895722D02*
X11465301Y-11000484D01*
X11465301Y-10895722D02*
X11474824Y-10876674D01*
X11474824Y-10876674D02*
X11493872Y-10867150D01*
X11493872Y-10867150D02*
X11522443Y-10867150D01*
X11522443Y-10867150D02*
X11541491Y-10876674D01*
X11541491Y-10876674D02*
X11551015Y-10895722D01*
X11551015Y-10895722D02*
X11551015Y-11000484D01*
X11941491Y-10790960D02*
X11770063Y-11048103D01*
X12198634Y-10800484D02*
X12217682Y-10800484D01*
X12217682Y-10800484D02*
X12236729Y-10810008D01*
X12236729Y-10810008D02*
X12246253Y-10819531D01*
X12246253Y-10819531D02*
X12255777Y-10838579D01*
X12255777Y-10838579D02*
X12265301Y-10876674D01*
X12265301Y-10876674D02*
X12265301Y-10924293D01*
X12265301Y-10924293D02*
X12255777Y-10962389D01*
X12255777Y-10962389D02*
X12246253Y-10981436D01*
X12246253Y-10981436D02*
X12236729Y-10990960D01*
X12236729Y-10990960D02*
X12217682Y-11000484D01*
X12217682Y-11000484D02*
X12198634Y-11000484D01*
X12198634Y-11000484D02*
X12179586Y-10990960D01*
X12179586Y-10990960D02*
X12170063Y-10981436D01*
X12170063Y-10981436D02*
X12160539Y-10962389D01*
X12160539Y-10962389D02*
X12151015Y-10924293D01*
X12151015Y-10924293D02*
X12151015Y-10876674D01*
X12151015Y-10876674D02*
X12160539Y-10838579D01*
X12160539Y-10838579D02*
X12170063Y-10819531D01*
X12170063Y-10819531D02*
X12179586Y-10810008D01*
X12179586Y-10810008D02*
X12198634Y-10800484D01*
X12351015Y-10981436D02*
X12360539Y-10990960D01*
X12360539Y-10990960D02*
X12351015Y-11000484D01*
X12351015Y-11000484D02*
X12341491Y-10990960D01*
X12341491Y-10990960D02*
X12351015Y-10981436D01*
X12351015Y-10981436D02*
X12351015Y-11000484D01*
X12484348Y-10800484D02*
X12503396Y-10800484D01*
X12503396Y-10800484D02*
X12522444Y-10810008D01*
X12522444Y-10810008D02*
X12531967Y-10819531D01*
X12531967Y-10819531D02*
X12541491Y-10838579D01*
X12541491Y-10838579D02*
X12551015Y-10876674D01*
X12551015Y-10876674D02*
X12551015Y-10924293D01*
X12551015Y-10924293D02*
X12541491Y-10962389D01*
X12541491Y-10962389D02*
X12531967Y-10981436D01*
X12531967Y-10981436D02*
X12522444Y-10990960D01*
X12522444Y-10990960D02*
X12503396Y-11000484D01*
X12503396Y-11000484D02*
X12484348Y-11000484D01*
X12484348Y-11000484D02*
X12465301Y-10990960D01*
X12465301Y-10990960D02*
X12455777Y-10981436D01*
X12455777Y-10981436D02*
X12446253Y-10962389D01*
X12446253Y-10962389D02*
X12436729Y-10924293D01*
X12436729Y-10924293D02*
X12436729Y-10876674D01*
X12436729Y-10876674D02*
X12446253Y-10838579D01*
X12446253Y-10838579D02*
X12455777Y-10819531D01*
X12455777Y-10819531D02*
X12465301Y-10810008D01*
X12465301Y-10810008D02*
X12484348Y-10800484D01*
X12741491Y-11000484D02*
X12627206Y-11000484D01*
X12684348Y-11000484D02*
X12684348Y-10800484D01*
X12684348Y-10800484D02*
X12665301Y-10829055D01*
X12665301Y-10829055D02*
X12646253Y-10848103D01*
X12646253Y-10848103D02*
X12627206Y-10857627D01*
X12931967Y-11000484D02*
X12817682Y-11000484D01*
X12874825Y-11000484D02*
X12874825Y-10800484D01*
X12874825Y-10800484D02*
X12855777Y-10829055D01*
X12855777Y-10829055D02*
X12836729Y-10848103D01*
X12836729Y-10848103D02*
X12817682Y-10857627D01*
X13046253Y-10886198D02*
X13027206Y-10876674D01*
X13027206Y-10876674D02*
X13017682Y-10867150D01*
X13017682Y-10867150D02*
X13008158Y-10848103D01*
X13008158Y-10848103D02*
X13008158Y-10838579D01*
X13008158Y-10838579D02*
X13017682Y-10819531D01*
X13017682Y-10819531D02*
X13027206Y-10810008D01*
X13027206Y-10810008D02*
X13046253Y-10800484D01*
X13046253Y-10800484D02*
X13084348Y-10800484D01*
X13084348Y-10800484D02*
X13103396Y-10810008D01*
X13103396Y-10810008D02*
X13112920Y-10819531D01*
X13112920Y-10819531D02*
X13122444Y-10838579D01*
X13122444Y-10838579D02*
X13122444Y-10848103D01*
X13122444Y-10848103D02*
X13112920Y-10867150D01*
X13112920Y-10867150D02*
X13103396Y-10876674D01*
X13103396Y-10876674D02*
X13084348Y-10886198D01*
X13084348Y-10886198D02*
X13046253Y-10886198D01*
X13046253Y-10886198D02*
X13027206Y-10895722D01*
X13027206Y-10895722D02*
X13017682Y-10905246D01*
X13017682Y-10905246D02*
X13008158Y-10924293D01*
X13008158Y-10924293D02*
X13008158Y-10962389D01*
X13008158Y-10962389D02*
X13017682Y-10981436D01*
X13017682Y-10981436D02*
X13027206Y-10990960D01*
X13027206Y-10990960D02*
X13046253Y-11000484D01*
X13046253Y-11000484D02*
X13084348Y-11000484D01*
X13084348Y-11000484D02*
X13103396Y-10990960D01*
X13103396Y-10990960D02*
X13112920Y-10981436D01*
X13112920Y-10981436D02*
X13122444Y-10962389D01*
X13122444Y-10962389D02*
X13122444Y-10924293D01*
X13122444Y-10924293D02*
X13112920Y-10905246D01*
X13112920Y-10905246D02*
X13103396Y-10895722D01*
X13103396Y-10895722D02*
X13084348Y-10886198D01*
X13198634Y-10800484D02*
X13198634Y-10838579D01*
X13274825Y-10800484D02*
X13274825Y-10838579D01*
X13570063Y-11076674D02*
X13560539Y-11067150D01*
X13560539Y-11067150D02*
X13541491Y-11038579D01*
X13541491Y-11038579D02*
X13531968Y-11019531D01*
X13531968Y-11019531D02*
X13522444Y-10990960D01*
X13522444Y-10990960D02*
X13512920Y-10943341D01*
X13512920Y-10943341D02*
X13512920Y-10905246D01*
X13512920Y-10905246D02*
X13522444Y-10857627D01*
X13522444Y-10857627D02*
X13531968Y-10829055D01*
X13531968Y-10829055D02*
X13541491Y-10810008D01*
X13541491Y-10810008D02*
X13560539Y-10781436D01*
X13560539Y-10781436D02*
X13570063Y-10771912D01*
X13674825Y-10886198D02*
X13655777Y-10876674D01*
X13655777Y-10876674D02*
X13646253Y-10867150D01*
X13646253Y-10867150D02*
X13636729Y-10848103D01*
X13636729Y-10848103D02*
X13636729Y-10838579D01*
X13636729Y-10838579D02*
X13646253Y-10819531D01*
X13646253Y-10819531D02*
X13655777Y-10810008D01*
X13655777Y-10810008D02*
X13674825Y-10800484D01*
X13674825Y-10800484D02*
X13712920Y-10800484D01*
X13712920Y-10800484D02*
X13731968Y-10810008D01*
X13731968Y-10810008D02*
X13741491Y-10819531D01*
X13741491Y-10819531D02*
X13751015Y-10838579D01*
X13751015Y-10838579D02*
X13751015Y-10848103D01*
X13751015Y-10848103D02*
X13741491Y-10867150D01*
X13741491Y-10867150D02*
X13731968Y-10876674D01*
X13731968Y-10876674D02*
X13712920Y-10886198D01*
X13712920Y-10886198D02*
X13674825Y-10886198D01*
X13674825Y-10886198D02*
X13655777Y-10895722D01*
X13655777Y-10895722D02*
X13646253Y-10905246D01*
X13646253Y-10905246D02*
X13636729Y-10924293D01*
X13636729Y-10924293D02*
X13636729Y-10962389D01*
X13636729Y-10962389D02*
X13646253Y-10981436D01*
X13646253Y-10981436D02*
X13655777Y-10990960D01*
X13655777Y-10990960D02*
X13674825Y-11000484D01*
X13674825Y-11000484D02*
X13712920Y-11000484D01*
X13712920Y-11000484D02*
X13731968Y-10990960D01*
X13731968Y-10990960D02*
X13741491Y-10981436D01*
X13741491Y-10981436D02*
X13751015Y-10962389D01*
X13751015Y-10962389D02*
X13751015Y-10924293D01*
X13751015Y-10924293D02*
X13741491Y-10905246D01*
X13741491Y-10905246D02*
X13731968Y-10895722D01*
X13731968Y-10895722D02*
X13712920Y-10886198D01*
X13989110Y-11000484D02*
X13989110Y-10800484D01*
X14074825Y-11000484D02*
X14074825Y-10895722D01*
X14074825Y-10895722D02*
X14065301Y-10876674D01*
X14065301Y-10876674D02*
X14046253Y-10867150D01*
X14046253Y-10867150D02*
X14017682Y-10867150D01*
X14017682Y-10867150D02*
X13998634Y-10876674D01*
X13998634Y-10876674D02*
X13989110Y-10886198D01*
X14198634Y-11000484D02*
X14179587Y-10990960D01*
X14179587Y-10990960D02*
X14170063Y-10981436D01*
X14170063Y-10981436D02*
X14160539Y-10962389D01*
X14160539Y-10962389D02*
X14160539Y-10905246D01*
X14160539Y-10905246D02*
X14170063Y-10886198D01*
X14170063Y-10886198D02*
X14179587Y-10876674D01*
X14179587Y-10876674D02*
X14198634Y-10867150D01*
X14198634Y-10867150D02*
X14227206Y-10867150D01*
X14227206Y-10867150D02*
X14246253Y-10876674D01*
X14246253Y-10876674D02*
X14255777Y-10886198D01*
X14255777Y-10886198D02*
X14265301Y-10905246D01*
X14265301Y-10905246D02*
X14265301Y-10962389D01*
X14265301Y-10962389D02*
X14255777Y-10981436D01*
X14255777Y-10981436D02*
X14246253Y-10990960D01*
X14246253Y-10990960D02*
X14227206Y-11000484D01*
X14227206Y-11000484D02*
X14198634Y-11000484D01*
X14379587Y-11000484D02*
X14360539Y-10990960D01*
X14360539Y-10990960D02*
X14351015Y-10971912D01*
X14351015Y-10971912D02*
X14351015Y-10800484D01*
X14531968Y-10990960D02*
X14512920Y-11000484D01*
X14512920Y-11000484D02*
X14474825Y-11000484D01*
X14474825Y-11000484D02*
X14455777Y-10990960D01*
X14455777Y-10990960D02*
X14446253Y-10971912D01*
X14446253Y-10971912D02*
X14446253Y-10895722D01*
X14446253Y-10895722D02*
X14455777Y-10876674D01*
X14455777Y-10876674D02*
X14474825Y-10867150D01*
X14474825Y-10867150D02*
X14512920Y-10867150D01*
X14512920Y-10867150D02*
X14531968Y-10876674D01*
X14531968Y-10876674D02*
X14541491Y-10895722D01*
X14541491Y-10895722D02*
X14541491Y-10914770D01*
X14541491Y-10914770D02*
X14446253Y-10933817D01*
X14617682Y-10990960D02*
X14636730Y-11000484D01*
X14636730Y-11000484D02*
X14674825Y-11000484D01*
X14674825Y-11000484D02*
X14693872Y-10990960D01*
X14693872Y-10990960D02*
X14703396Y-10971912D01*
X14703396Y-10971912D02*
X14703396Y-10962389D01*
X14703396Y-10962389D02*
X14693872Y-10943341D01*
X14693872Y-10943341D02*
X14674825Y-10933817D01*
X14674825Y-10933817D02*
X14646253Y-10933817D01*
X14646253Y-10933817D02*
X14627206Y-10924293D01*
X14627206Y-10924293D02*
X14617682Y-10905246D01*
X14617682Y-10905246D02*
X14617682Y-10895722D01*
X14617682Y-10895722D02*
X14627206Y-10876674D01*
X14627206Y-10876674D02*
X14646253Y-10867150D01*
X14646253Y-10867150D02*
X14674825Y-10867150D01*
X14674825Y-10867150D02*
X14693872Y-10876674D01*
X14770063Y-11076674D02*
X14779587Y-11067150D01*
X14779587Y-11067150D02*
X14798634Y-11038579D01*
X14798634Y-11038579D02*
X14808158Y-11019531D01*
X14808158Y-11019531D02*
X14817682Y-10990960D01*
X14817682Y-10990960D02*
X14827206Y-10943341D01*
X14827206Y-10943341D02*
X14827206Y-10905246D01*
X14827206Y-10905246D02*
X14817682Y-10857627D01*
X14817682Y-10857627D02*
X14808158Y-10829055D01*
X14808158Y-10829055D02*
X14798634Y-10810008D01*
X14798634Y-10810008D02*
X14779587Y-10781436D01*
X14779587Y-10781436D02*
X14770063Y-10771912D01*
D10*
X9952500Y-11130500D02*
X9952500Y-11215500D01*
X9910000Y-11173000D02*
X9995000Y-11173000D01*
D11*
X10293872Y-11064484D02*
X10312920Y-11064484D01*
X10312920Y-11064484D02*
X10331967Y-11074008D01*
X10331967Y-11074008D02*
X10341491Y-11083531D01*
X10341491Y-11083531D02*
X10351015Y-11102579D01*
X10351015Y-11102579D02*
X10360539Y-11140674D01*
X10360539Y-11140674D02*
X10360539Y-11188293D01*
X10360539Y-11188293D02*
X10351015Y-11226388D01*
X10351015Y-11226388D02*
X10341491Y-11245436D01*
X10341491Y-11245436D02*
X10331967Y-11254960D01*
X10331967Y-11254960D02*
X10312920Y-11264484D01*
X10312920Y-11264484D02*
X10293872Y-11264484D01*
X10293872Y-11264484D02*
X10274824Y-11254960D01*
X10274824Y-11254960D02*
X10265301Y-11245436D01*
X10265301Y-11245436D02*
X10255777Y-11226388D01*
X10255777Y-11226388D02*
X10246253Y-11188293D01*
X10246253Y-11188293D02*
X10246253Y-11140674D01*
X10246253Y-11140674D02*
X10255777Y-11102579D01*
X10255777Y-11102579D02*
X10265301Y-11083531D01*
X10265301Y-11083531D02*
X10274824Y-11074008D01*
X10274824Y-11074008D02*
X10293872Y-11064484D01*
X10446253Y-11245436D02*
X10455777Y-11254960D01*
X10455777Y-11254960D02*
X10446253Y-11264484D01*
X10446253Y-11264484D02*
X10436729Y-11254960D01*
X10436729Y-11254960D02*
X10446253Y-11245436D01*
X10446253Y-11245436D02*
X10446253Y-11264484D01*
X10570063Y-11150198D02*
X10551015Y-11140674D01*
X10551015Y-11140674D02*
X10541491Y-11131150D01*
X10541491Y-11131150D02*
X10531967Y-11112103D01*
X10531967Y-11112103D02*
X10531967Y-11102579D01*
X10531967Y-11102579D02*
X10541491Y-11083531D01*
X10541491Y-11083531D02*
X10551015Y-11074008D01*
X10551015Y-11074008D02*
X10570063Y-11064484D01*
X10570063Y-11064484D02*
X10608158Y-11064484D01*
X10608158Y-11064484D02*
X10627205Y-11074008D01*
X10627205Y-11074008D02*
X10636729Y-11083531D01*
X10636729Y-11083531D02*
X10646253Y-11102579D01*
X10646253Y-11102579D02*
X10646253Y-11112103D01*
X10646253Y-11112103D02*
X10636729Y-11131150D01*
X10636729Y-11131150D02*
X10627205Y-11140674D01*
X10627205Y-11140674D02*
X10608158Y-11150198D01*
X10608158Y-11150198D02*
X10570063Y-11150198D01*
X10570063Y-11150198D02*
X10551015Y-11159722D01*
X10551015Y-11159722D02*
X10541491Y-11169246D01*
X10541491Y-11169246D02*
X10531967Y-11188293D01*
X10531967Y-11188293D02*
X10531967Y-11226388D01*
X10531967Y-11226388D02*
X10541491Y-11245436D01*
X10541491Y-11245436D02*
X10551015Y-11254960D01*
X10551015Y-11254960D02*
X10570063Y-11264484D01*
X10570063Y-11264484D02*
X10608158Y-11264484D01*
X10608158Y-11264484D02*
X10627205Y-11254960D01*
X10627205Y-11254960D02*
X10636729Y-11245436D01*
X10636729Y-11245436D02*
X10646253Y-11226388D01*
X10646253Y-11226388D02*
X10646253Y-11188293D01*
X10646253Y-11188293D02*
X10636729Y-11169246D01*
X10636729Y-11169246D02*
X10627205Y-11159722D01*
X10627205Y-11159722D02*
X10608158Y-11150198D01*
X10827205Y-11064484D02*
X10731967Y-11064484D01*
X10731967Y-11064484D02*
X10722444Y-11159722D01*
X10722444Y-11159722D02*
X10731967Y-11150198D01*
X10731967Y-11150198D02*
X10751015Y-11140674D01*
X10751015Y-11140674D02*
X10798634Y-11140674D01*
X10798634Y-11140674D02*
X10817682Y-11150198D01*
X10817682Y-11150198D02*
X10827205Y-11159722D01*
X10827205Y-11159722D02*
X10836729Y-11178770D01*
X10836729Y-11178770D02*
X10836729Y-11226388D01*
X10836729Y-11226388D02*
X10827205Y-11245436D01*
X10827205Y-11245436D02*
X10817682Y-11254960D01*
X10817682Y-11254960D02*
X10798634Y-11264484D01*
X10798634Y-11264484D02*
X10751015Y-11264484D01*
X10751015Y-11264484D02*
X10731967Y-11254960D01*
X10731967Y-11254960D02*
X10722444Y-11245436D01*
X10960539Y-11064484D02*
X10979586Y-11064484D01*
X10979586Y-11064484D02*
X10998634Y-11074008D01*
X10998634Y-11074008D02*
X11008158Y-11083531D01*
X11008158Y-11083531D02*
X11017682Y-11102579D01*
X11017682Y-11102579D02*
X11027205Y-11140674D01*
X11027205Y-11140674D02*
X11027205Y-11188293D01*
X11027205Y-11188293D02*
X11017682Y-11226388D01*
X11017682Y-11226388D02*
X11008158Y-11245436D01*
X11008158Y-11245436D02*
X10998634Y-11254960D01*
X10998634Y-11254960D02*
X10979586Y-11264484D01*
X10979586Y-11264484D02*
X10960539Y-11264484D01*
X10960539Y-11264484D02*
X10941491Y-11254960D01*
X10941491Y-11254960D02*
X10931967Y-11245436D01*
X10931967Y-11245436D02*
X10922444Y-11226388D01*
X10922444Y-11226388D02*
X10912920Y-11188293D01*
X10912920Y-11188293D02*
X10912920Y-11140674D01*
X10912920Y-11140674D02*
X10922444Y-11102579D01*
X10922444Y-11102579D02*
X10931967Y-11083531D01*
X10931967Y-11083531D02*
X10941491Y-11074008D01*
X10941491Y-11074008D02*
X10960539Y-11064484D01*
X11112920Y-11264484D02*
X11112920Y-11131150D01*
X11112920Y-11150198D02*
X11122444Y-11140674D01*
X11122444Y-11140674D02*
X11141491Y-11131150D01*
X11141491Y-11131150D02*
X11170063Y-11131150D01*
X11170063Y-11131150D02*
X11189110Y-11140674D01*
X11189110Y-11140674D02*
X11198634Y-11159722D01*
X11198634Y-11159722D02*
X11198634Y-11264484D01*
X11198634Y-11159722D02*
X11208158Y-11140674D01*
X11208158Y-11140674D02*
X11227205Y-11131150D01*
X11227205Y-11131150D02*
X11255777Y-11131150D01*
X11255777Y-11131150D02*
X11274824Y-11140674D01*
X11274824Y-11140674D02*
X11284348Y-11159722D01*
X11284348Y-11159722D02*
X11284348Y-11264484D01*
X11379586Y-11264484D02*
X11379586Y-11131150D01*
X11379586Y-11150198D02*
X11389110Y-11140674D01*
X11389110Y-11140674D02*
X11408158Y-11131150D01*
X11408158Y-11131150D02*
X11436729Y-11131150D01*
X11436729Y-11131150D02*
X11455777Y-11140674D01*
X11455777Y-11140674D02*
X11465301Y-11159722D01*
X11465301Y-11159722D02*
X11465301Y-11264484D01*
X11465301Y-11159722D02*
X11474824Y-11140674D01*
X11474824Y-11140674D02*
X11493872Y-11131150D01*
X11493872Y-11131150D02*
X11522443Y-11131150D01*
X11522443Y-11131150D02*
X11541491Y-11140674D01*
X11541491Y-11140674D02*
X11551015Y-11159722D01*
X11551015Y-11159722D02*
X11551015Y-11264484D01*
X11941491Y-11054960D02*
X11770063Y-11312103D01*
X12198634Y-11064484D02*
X12217682Y-11064484D01*
X12217682Y-11064484D02*
X12236729Y-11074008D01*
X12236729Y-11074008D02*
X12246253Y-11083531D01*
X12246253Y-11083531D02*
X12255777Y-11102579D01*
X12255777Y-11102579D02*
X12265301Y-11140674D01*
X12265301Y-11140674D02*
X12265301Y-11188293D01*
X12265301Y-11188293D02*
X12255777Y-11226388D01*
X12255777Y-11226388D02*
X12246253Y-11245436D01*
X12246253Y-11245436D02*
X12236729Y-11254960D01*
X12236729Y-11254960D02*
X12217682Y-11264484D01*
X12217682Y-11264484D02*
X12198634Y-11264484D01*
X12198634Y-11264484D02*
X12179586Y-11254960D01*
X12179586Y-11254960D02*
X12170063Y-11245436D01*
X12170063Y-11245436D02*
X12160539Y-11226388D01*
X12160539Y-11226388D02*
X12151015Y-11188293D01*
X12151015Y-11188293D02*
X12151015Y-11140674D01*
X12151015Y-11140674D02*
X12160539Y-11102579D01*
X12160539Y-11102579D02*
X12170063Y-11083531D01*
X12170063Y-11083531D02*
X12179586Y-11074008D01*
X12179586Y-11074008D02*
X12198634Y-11064484D01*
X12351015Y-11245436D02*
X12360539Y-11254960D01*
X12360539Y-11254960D02*
X12351015Y-11264484D01*
X12351015Y-11264484D02*
X12341491Y-11254960D01*
X12341491Y-11254960D02*
X12351015Y-11245436D01*
X12351015Y-11245436D02*
X12351015Y-11264484D01*
X12484348Y-11064484D02*
X12503396Y-11064484D01*
X12503396Y-11064484D02*
X12522444Y-11074008D01*
X12522444Y-11074008D02*
X12531967Y-11083531D01*
X12531967Y-11083531D02*
X12541491Y-11102579D01*
X12541491Y-11102579D02*
X12551015Y-11140674D01*
X12551015Y-11140674D02*
X12551015Y-11188293D01*
X12551015Y-11188293D02*
X12541491Y-11226388D01*
X12541491Y-11226388D02*
X12531967Y-11245436D01*
X12531967Y-11245436D02*
X12522444Y-11254960D01*
X12522444Y-11254960D02*
X12503396Y-11264484D01*
X12503396Y-11264484D02*
X12484348Y-11264484D01*
X12484348Y-11264484D02*
X12465301Y-11254960D01*
X12465301Y-11254960D02*
X12455777Y-11245436D01*
X12455777Y-11245436D02*
X12446253Y-11226388D01*
X12446253Y-11226388D02*
X12436729Y-11188293D01*
X12436729Y-11188293D02*
X12436729Y-11140674D01*
X12436729Y-11140674D02*
X12446253Y-11102579D01*
X12446253Y-11102579D02*
X12455777Y-11083531D01*
X12455777Y-11083531D02*
X12465301Y-11074008D01*
X12465301Y-11074008D02*
X12484348Y-11064484D01*
X12617682Y-11064484D02*
X12741491Y-11064484D01*
X12741491Y-11064484D02*
X12674825Y-11140674D01*
X12674825Y-11140674D02*
X12703396Y-11140674D01*
X12703396Y-11140674D02*
X12722444Y-11150198D01*
X12722444Y-11150198D02*
X12731967Y-11159722D01*
X12731967Y-11159722D02*
X12741491Y-11178770D01*
X12741491Y-11178770D02*
X12741491Y-11226388D01*
X12741491Y-11226388D02*
X12731967Y-11245436D01*
X12731967Y-11245436D02*
X12722444Y-11254960D01*
X12722444Y-11254960D02*
X12703396Y-11264484D01*
X12703396Y-11264484D02*
X12646253Y-11264484D01*
X12646253Y-11264484D02*
X12627206Y-11254960D01*
X12627206Y-11254960D02*
X12617682Y-11245436D01*
X12808158Y-11064484D02*
X12931967Y-11064484D01*
X12931967Y-11064484D02*
X12865301Y-11140674D01*
X12865301Y-11140674D02*
X12893872Y-11140674D01*
X12893872Y-11140674D02*
X12912920Y-11150198D01*
X12912920Y-11150198D02*
X12922444Y-11159722D01*
X12922444Y-11159722D02*
X12931967Y-11178770D01*
X12931967Y-11178770D02*
X12931967Y-11226388D01*
X12931967Y-11226388D02*
X12922444Y-11245436D01*
X12922444Y-11245436D02*
X12912920Y-11254960D01*
X12912920Y-11254960D02*
X12893872Y-11264484D01*
X12893872Y-11264484D02*
X12836729Y-11264484D01*
X12836729Y-11264484D02*
X12817682Y-11254960D01*
X12817682Y-11254960D02*
X12808158Y-11245436D01*
X13112920Y-11064484D02*
X13017682Y-11064484D01*
X13017682Y-11064484D02*
X13008158Y-11159722D01*
X13008158Y-11159722D02*
X13017682Y-11150198D01*
X13017682Y-11150198D02*
X13036729Y-11140674D01*
X13036729Y-11140674D02*
X13084348Y-11140674D01*
X13084348Y-11140674D02*
X13103396Y-11150198D01*
X13103396Y-11150198D02*
X13112920Y-11159722D01*
X13112920Y-11159722D02*
X13122444Y-11178770D01*
X13122444Y-11178770D02*
X13122444Y-11226388D01*
X13122444Y-11226388D02*
X13112920Y-11245436D01*
X13112920Y-11245436D02*
X13103396Y-11254960D01*
X13103396Y-11254960D02*
X13084348Y-11264484D01*
X13084348Y-11264484D02*
X13036729Y-11264484D01*
X13036729Y-11264484D02*
X13017682Y-11254960D01*
X13017682Y-11254960D02*
X13008158Y-11245436D01*
X13198634Y-11064484D02*
X13198634Y-11102579D01*
X13274825Y-11064484D02*
X13274825Y-11102579D01*
X13570063Y-11340674D02*
X13560539Y-11331150D01*
X13560539Y-11331150D02*
X13541491Y-11302579D01*
X13541491Y-11302579D02*
X13531968Y-11283531D01*
X13531968Y-11283531D02*
X13522444Y-11254960D01*
X13522444Y-11254960D02*
X13512920Y-11207341D01*
X13512920Y-11207341D02*
X13512920Y-11169246D01*
X13512920Y-11169246D02*
X13522444Y-11121627D01*
X13522444Y-11121627D02*
X13531968Y-11093055D01*
X13531968Y-11093055D02*
X13541491Y-11074008D01*
X13541491Y-11074008D02*
X13560539Y-11045436D01*
X13560539Y-11045436D02*
X13570063Y-11035912D01*
X13731968Y-11064484D02*
X13693872Y-11064484D01*
X13693872Y-11064484D02*
X13674825Y-11074008D01*
X13674825Y-11074008D02*
X13665301Y-11083531D01*
X13665301Y-11083531D02*
X13646253Y-11112103D01*
X13646253Y-11112103D02*
X13636729Y-11150198D01*
X13636729Y-11150198D02*
X13636729Y-11226388D01*
X13636729Y-11226388D02*
X13646253Y-11245436D01*
X13646253Y-11245436D02*
X13655777Y-11254960D01*
X13655777Y-11254960D02*
X13674825Y-11264484D01*
X13674825Y-11264484D02*
X13712920Y-11264484D01*
X13712920Y-11264484D02*
X13731968Y-11254960D01*
X13731968Y-11254960D02*
X13741491Y-11245436D01*
X13741491Y-11245436D02*
X13751015Y-11226388D01*
X13751015Y-11226388D02*
X13751015Y-11178770D01*
X13751015Y-11178770D02*
X13741491Y-11159722D01*
X13741491Y-11159722D02*
X13731968Y-11150198D01*
X13731968Y-11150198D02*
X13712920Y-11140674D01*
X13712920Y-11140674D02*
X13674825Y-11140674D01*
X13674825Y-11140674D02*
X13655777Y-11150198D01*
X13655777Y-11150198D02*
X13646253Y-11159722D01*
X13646253Y-11159722D02*
X13636729Y-11178770D01*
X13989110Y-11264484D02*
X13989110Y-11064484D01*
X14074825Y-11264484D02*
X14074825Y-11159722D01*
X14074825Y-11159722D02*
X14065301Y-11140674D01*
X14065301Y-11140674D02*
X14046253Y-11131150D01*
X14046253Y-11131150D02*
X14017682Y-11131150D01*
X14017682Y-11131150D02*
X13998634Y-11140674D01*
X13998634Y-11140674D02*
X13989110Y-11150198D01*
X14198634Y-11264484D02*
X14179587Y-11254960D01*
X14179587Y-11254960D02*
X14170063Y-11245436D01*
X14170063Y-11245436D02*
X14160539Y-11226388D01*
X14160539Y-11226388D02*
X14160539Y-11169246D01*
X14160539Y-11169246D02*
X14170063Y-11150198D01*
X14170063Y-11150198D02*
X14179587Y-11140674D01*
X14179587Y-11140674D02*
X14198634Y-11131150D01*
X14198634Y-11131150D02*
X14227206Y-11131150D01*
X14227206Y-11131150D02*
X14246253Y-11140674D01*
X14246253Y-11140674D02*
X14255777Y-11150198D01*
X14255777Y-11150198D02*
X14265301Y-11169246D01*
X14265301Y-11169246D02*
X14265301Y-11226388D01*
X14265301Y-11226388D02*
X14255777Y-11245436D01*
X14255777Y-11245436D02*
X14246253Y-11254960D01*
X14246253Y-11254960D02*
X14227206Y-11264484D01*
X14227206Y-11264484D02*
X14198634Y-11264484D01*
X14379587Y-11264484D02*
X14360539Y-11254960D01*
X14360539Y-11254960D02*
X14351015Y-11235912D01*
X14351015Y-11235912D02*
X14351015Y-11064484D01*
X14531968Y-11254960D02*
X14512920Y-11264484D01*
X14512920Y-11264484D02*
X14474825Y-11264484D01*
X14474825Y-11264484D02*
X14455777Y-11254960D01*
X14455777Y-11254960D02*
X14446253Y-11235912D01*
X14446253Y-11235912D02*
X14446253Y-11159722D01*
X14446253Y-11159722D02*
X14455777Y-11140674D01*
X14455777Y-11140674D02*
X14474825Y-11131150D01*
X14474825Y-11131150D02*
X14512920Y-11131150D01*
X14512920Y-11131150D02*
X14531968Y-11140674D01*
X14531968Y-11140674D02*
X14541491Y-11159722D01*
X14541491Y-11159722D02*
X14541491Y-11178770D01*
X14541491Y-11178770D02*
X14446253Y-11197817D01*
X14617682Y-11254960D02*
X14636730Y-11264484D01*
X14636730Y-11264484D02*
X14674825Y-11264484D01*
X14674825Y-11264484D02*
X14693872Y-11254960D01*
X14693872Y-11254960D02*
X14703396Y-11235912D01*
X14703396Y-11235912D02*
X14703396Y-11226388D01*
X14703396Y-11226388D02*
X14693872Y-11207341D01*
X14693872Y-11207341D02*
X14674825Y-11197817D01*
X14674825Y-11197817D02*
X14646253Y-11197817D01*
X14646253Y-11197817D02*
X14627206Y-11188293D01*
X14627206Y-11188293D02*
X14617682Y-11169246D01*
X14617682Y-11169246D02*
X14617682Y-11159722D01*
X14617682Y-11159722D02*
X14627206Y-11140674D01*
X14627206Y-11140674D02*
X14646253Y-11131150D01*
X14646253Y-11131150D02*
X14674825Y-11131150D01*
X14674825Y-11131150D02*
X14693872Y-11140674D01*
X14770063Y-11340674D02*
X14779587Y-11331150D01*
X14779587Y-11331150D02*
X14798634Y-11302579D01*
X14798634Y-11302579D02*
X14808158Y-11283531D01*
X14808158Y-11283531D02*
X14817682Y-11254960D01*
X14817682Y-11254960D02*
X14827206Y-11207341D01*
X14827206Y-11207341D02*
X14827206Y-11169246D01*
X14827206Y-11169246D02*
X14817682Y-11121627D01*
X14817682Y-11121627D02*
X14808158Y-11093055D01*
X14808158Y-11093055D02*
X14798634Y-11074008D01*
X14798634Y-11074008D02*
X14779587Y-11045436D01*
X14779587Y-11045436D02*
X14770063Y-11035912D01*
D10*
X9980356Y-11472356D02*
X9980356Y-11401644D01*
X9909644Y-11401644D01*
X9909644Y-11472356D01*
X9980356Y-11472356D01*
D11*
X10360539Y-11528484D02*
X10246253Y-11528484D01*
X10303396Y-11528484D02*
X10303396Y-11328484D01*
X10303396Y-11328484D02*
X10284348Y-11357055D01*
X10284348Y-11357055D02*
X10265301Y-11376103D01*
X10265301Y-11376103D02*
X10246253Y-11385627D01*
X10446253Y-11509436D02*
X10455777Y-11518960D01*
X10455777Y-11518960D02*
X10446253Y-11528484D01*
X10446253Y-11528484D02*
X10436729Y-11518960D01*
X10436729Y-11518960D02*
X10446253Y-11509436D01*
X10446253Y-11509436D02*
X10446253Y-11528484D01*
X10579586Y-11328484D02*
X10598634Y-11328484D01*
X10598634Y-11328484D02*
X10617682Y-11338008D01*
X10617682Y-11338008D02*
X10627205Y-11347531D01*
X10627205Y-11347531D02*
X10636729Y-11366579D01*
X10636729Y-11366579D02*
X10646253Y-11404674D01*
X10646253Y-11404674D02*
X10646253Y-11452293D01*
X10646253Y-11452293D02*
X10636729Y-11490388D01*
X10636729Y-11490388D02*
X10627205Y-11509436D01*
X10627205Y-11509436D02*
X10617682Y-11518960D01*
X10617682Y-11518960D02*
X10598634Y-11528484D01*
X10598634Y-11528484D02*
X10579586Y-11528484D01*
X10579586Y-11528484D02*
X10560539Y-11518960D01*
X10560539Y-11518960D02*
X10551015Y-11509436D01*
X10551015Y-11509436D02*
X10541491Y-11490388D01*
X10541491Y-11490388D02*
X10531967Y-11452293D01*
X10531967Y-11452293D02*
X10531967Y-11404674D01*
X10531967Y-11404674D02*
X10541491Y-11366579D01*
X10541491Y-11366579D02*
X10551015Y-11347531D01*
X10551015Y-11347531D02*
X10560539Y-11338008D01*
X10560539Y-11338008D02*
X10579586Y-11328484D01*
X10770063Y-11328484D02*
X10789110Y-11328484D01*
X10789110Y-11328484D02*
X10808158Y-11338008D01*
X10808158Y-11338008D02*
X10817682Y-11347531D01*
X10817682Y-11347531D02*
X10827205Y-11366579D01*
X10827205Y-11366579D02*
X10836729Y-11404674D01*
X10836729Y-11404674D02*
X10836729Y-11452293D01*
X10836729Y-11452293D02*
X10827205Y-11490388D01*
X10827205Y-11490388D02*
X10817682Y-11509436D01*
X10817682Y-11509436D02*
X10808158Y-11518960D01*
X10808158Y-11518960D02*
X10789110Y-11528484D01*
X10789110Y-11528484D02*
X10770063Y-11528484D01*
X10770063Y-11528484D02*
X10751015Y-11518960D01*
X10751015Y-11518960D02*
X10741491Y-11509436D01*
X10741491Y-11509436D02*
X10731967Y-11490388D01*
X10731967Y-11490388D02*
X10722444Y-11452293D01*
X10722444Y-11452293D02*
X10722444Y-11404674D01*
X10722444Y-11404674D02*
X10731967Y-11366579D01*
X10731967Y-11366579D02*
X10741491Y-11347531D01*
X10741491Y-11347531D02*
X10751015Y-11338008D01*
X10751015Y-11338008D02*
X10770063Y-11328484D01*
X10960539Y-11328484D02*
X10979586Y-11328484D01*
X10979586Y-11328484D02*
X10998634Y-11338008D01*
X10998634Y-11338008D02*
X11008158Y-11347531D01*
X11008158Y-11347531D02*
X11017682Y-11366579D01*
X11017682Y-11366579D02*
X11027205Y-11404674D01*
X11027205Y-11404674D02*
X11027205Y-11452293D01*
X11027205Y-11452293D02*
X11017682Y-11490388D01*
X11017682Y-11490388D02*
X11008158Y-11509436D01*
X11008158Y-11509436D02*
X10998634Y-11518960D01*
X10998634Y-11518960D02*
X10979586Y-11528484D01*
X10979586Y-11528484D02*
X10960539Y-11528484D01*
X10960539Y-11528484D02*
X10941491Y-11518960D01*
X10941491Y-11518960D02*
X10931967Y-11509436D01*
X10931967Y-11509436D02*
X10922444Y-11490388D01*
X10922444Y-11490388D02*
X10912920Y-11452293D01*
X10912920Y-11452293D02*
X10912920Y-11404674D01*
X10912920Y-11404674D02*
X10922444Y-11366579D01*
X10922444Y-11366579D02*
X10931967Y-11347531D01*
X10931967Y-11347531D02*
X10941491Y-11338008D01*
X10941491Y-11338008D02*
X10960539Y-11328484D01*
X11112920Y-11528484D02*
X11112920Y-11395150D01*
X11112920Y-11414198D02*
X11122444Y-11404674D01*
X11122444Y-11404674D02*
X11141491Y-11395150D01*
X11141491Y-11395150D02*
X11170063Y-11395150D01*
X11170063Y-11395150D02*
X11189110Y-11404674D01*
X11189110Y-11404674D02*
X11198634Y-11423722D01*
X11198634Y-11423722D02*
X11198634Y-11528484D01*
X11198634Y-11423722D02*
X11208158Y-11404674D01*
X11208158Y-11404674D02*
X11227205Y-11395150D01*
X11227205Y-11395150D02*
X11255777Y-11395150D01*
X11255777Y-11395150D02*
X11274824Y-11404674D01*
X11274824Y-11404674D02*
X11284348Y-11423722D01*
X11284348Y-11423722D02*
X11284348Y-11528484D01*
X11379586Y-11528484D02*
X11379586Y-11395150D01*
X11379586Y-11414198D02*
X11389110Y-11404674D01*
X11389110Y-11404674D02*
X11408158Y-11395150D01*
X11408158Y-11395150D02*
X11436729Y-11395150D01*
X11436729Y-11395150D02*
X11455777Y-11404674D01*
X11455777Y-11404674D02*
X11465301Y-11423722D01*
X11465301Y-11423722D02*
X11465301Y-11528484D01*
X11465301Y-11423722D02*
X11474824Y-11404674D01*
X11474824Y-11404674D02*
X11493872Y-11395150D01*
X11493872Y-11395150D02*
X11522443Y-11395150D01*
X11522443Y-11395150D02*
X11541491Y-11404674D01*
X11541491Y-11404674D02*
X11551015Y-11423722D01*
X11551015Y-11423722D02*
X11551015Y-11528484D01*
X11941491Y-11318960D02*
X11770063Y-11576103D01*
X12198634Y-11328484D02*
X12217682Y-11328484D01*
X12217682Y-11328484D02*
X12236729Y-11338008D01*
X12236729Y-11338008D02*
X12246253Y-11347531D01*
X12246253Y-11347531D02*
X12255777Y-11366579D01*
X12255777Y-11366579D02*
X12265301Y-11404674D01*
X12265301Y-11404674D02*
X12265301Y-11452293D01*
X12265301Y-11452293D02*
X12255777Y-11490388D01*
X12255777Y-11490388D02*
X12246253Y-11509436D01*
X12246253Y-11509436D02*
X12236729Y-11518960D01*
X12236729Y-11518960D02*
X12217682Y-11528484D01*
X12217682Y-11528484D02*
X12198634Y-11528484D01*
X12198634Y-11528484D02*
X12179586Y-11518960D01*
X12179586Y-11518960D02*
X12170063Y-11509436D01*
X12170063Y-11509436D02*
X12160539Y-11490388D01*
X12160539Y-11490388D02*
X12151015Y-11452293D01*
X12151015Y-11452293D02*
X12151015Y-11404674D01*
X12151015Y-11404674D02*
X12160539Y-11366579D01*
X12160539Y-11366579D02*
X12170063Y-11347531D01*
X12170063Y-11347531D02*
X12179586Y-11338008D01*
X12179586Y-11338008D02*
X12198634Y-11328484D01*
X12351015Y-11509436D02*
X12360539Y-11518960D01*
X12360539Y-11518960D02*
X12351015Y-11528484D01*
X12351015Y-11528484D02*
X12341491Y-11518960D01*
X12341491Y-11518960D02*
X12351015Y-11509436D01*
X12351015Y-11509436D02*
X12351015Y-11528484D01*
X12484348Y-11328484D02*
X12503396Y-11328484D01*
X12503396Y-11328484D02*
X12522444Y-11338008D01*
X12522444Y-11338008D02*
X12531967Y-11347531D01*
X12531967Y-11347531D02*
X12541491Y-11366579D01*
X12541491Y-11366579D02*
X12551015Y-11404674D01*
X12551015Y-11404674D02*
X12551015Y-11452293D01*
X12551015Y-11452293D02*
X12541491Y-11490388D01*
X12541491Y-11490388D02*
X12531967Y-11509436D01*
X12531967Y-11509436D02*
X12522444Y-11518960D01*
X12522444Y-11518960D02*
X12503396Y-11528484D01*
X12503396Y-11528484D02*
X12484348Y-11528484D01*
X12484348Y-11528484D02*
X12465301Y-11518960D01*
X12465301Y-11518960D02*
X12455777Y-11509436D01*
X12455777Y-11509436D02*
X12446253Y-11490388D01*
X12446253Y-11490388D02*
X12436729Y-11452293D01*
X12436729Y-11452293D02*
X12436729Y-11404674D01*
X12436729Y-11404674D02*
X12446253Y-11366579D01*
X12446253Y-11366579D02*
X12455777Y-11347531D01*
X12455777Y-11347531D02*
X12465301Y-11338008D01*
X12465301Y-11338008D02*
X12484348Y-11328484D01*
X12617682Y-11328484D02*
X12741491Y-11328484D01*
X12741491Y-11328484D02*
X12674825Y-11404674D01*
X12674825Y-11404674D02*
X12703396Y-11404674D01*
X12703396Y-11404674D02*
X12722444Y-11414198D01*
X12722444Y-11414198D02*
X12731967Y-11423722D01*
X12731967Y-11423722D02*
X12741491Y-11442769D01*
X12741491Y-11442769D02*
X12741491Y-11490388D01*
X12741491Y-11490388D02*
X12731967Y-11509436D01*
X12731967Y-11509436D02*
X12722444Y-11518960D01*
X12722444Y-11518960D02*
X12703396Y-11528484D01*
X12703396Y-11528484D02*
X12646253Y-11528484D01*
X12646253Y-11528484D02*
X12627206Y-11518960D01*
X12627206Y-11518960D02*
X12617682Y-11509436D01*
X12836729Y-11528484D02*
X12874825Y-11528484D01*
X12874825Y-11528484D02*
X12893872Y-11518960D01*
X12893872Y-11518960D02*
X12903396Y-11509436D01*
X12903396Y-11509436D02*
X12922444Y-11480865D01*
X12922444Y-11480865D02*
X12931967Y-11442769D01*
X12931967Y-11442769D02*
X12931967Y-11366579D01*
X12931967Y-11366579D02*
X12922444Y-11347531D01*
X12922444Y-11347531D02*
X12912920Y-11338008D01*
X12912920Y-11338008D02*
X12893872Y-11328484D01*
X12893872Y-11328484D02*
X12855777Y-11328484D01*
X12855777Y-11328484D02*
X12836729Y-11338008D01*
X12836729Y-11338008D02*
X12827206Y-11347531D01*
X12827206Y-11347531D02*
X12817682Y-11366579D01*
X12817682Y-11366579D02*
X12817682Y-11414198D01*
X12817682Y-11414198D02*
X12827206Y-11433246D01*
X12827206Y-11433246D02*
X12836729Y-11442769D01*
X12836729Y-11442769D02*
X12855777Y-11452293D01*
X12855777Y-11452293D02*
X12893872Y-11452293D01*
X12893872Y-11452293D02*
X12912920Y-11442769D01*
X12912920Y-11442769D02*
X12922444Y-11433246D01*
X12922444Y-11433246D02*
X12931967Y-11414198D01*
X13103396Y-11395150D02*
X13103396Y-11528484D01*
X13055777Y-11318960D02*
X13008158Y-11461817D01*
X13008158Y-11461817D02*
X13131967Y-11461817D01*
X13198634Y-11328484D02*
X13198634Y-11366579D01*
X13274825Y-11328484D02*
X13274825Y-11366579D01*
X13570063Y-11604674D02*
X13560539Y-11595150D01*
X13560539Y-11595150D02*
X13541491Y-11566579D01*
X13541491Y-11566579D02*
X13531968Y-11547531D01*
X13531968Y-11547531D02*
X13522444Y-11518960D01*
X13522444Y-11518960D02*
X13512920Y-11471341D01*
X13512920Y-11471341D02*
X13512920Y-11433246D01*
X13512920Y-11433246D02*
X13522444Y-11385627D01*
X13522444Y-11385627D02*
X13531968Y-11357055D01*
X13531968Y-11357055D02*
X13541491Y-11338008D01*
X13541491Y-11338008D02*
X13560539Y-11309436D01*
X13560539Y-11309436D02*
X13570063Y-11299912D01*
X13731968Y-11395150D02*
X13731968Y-11528484D01*
X13684348Y-11318960D02*
X13636729Y-11461817D01*
X13636729Y-11461817D02*
X13760539Y-11461817D01*
X13922444Y-11395150D02*
X13922444Y-11528484D01*
X13874825Y-11318960D02*
X13827206Y-11461817D01*
X13827206Y-11461817D02*
X13951015Y-11461817D01*
X14179587Y-11528484D02*
X14179587Y-11328484D01*
X14265301Y-11528484D02*
X14265301Y-11423722D01*
X14265301Y-11423722D02*
X14255777Y-11404674D01*
X14255777Y-11404674D02*
X14236730Y-11395150D01*
X14236730Y-11395150D02*
X14208158Y-11395150D01*
X14208158Y-11395150D02*
X14189110Y-11404674D01*
X14189110Y-11404674D02*
X14179587Y-11414198D01*
X14389110Y-11528484D02*
X14370063Y-11518960D01*
X14370063Y-11518960D02*
X14360539Y-11509436D01*
X14360539Y-11509436D02*
X14351015Y-11490388D01*
X14351015Y-11490388D02*
X14351015Y-11433246D01*
X14351015Y-11433246D02*
X14360539Y-11414198D01*
X14360539Y-11414198D02*
X14370063Y-11404674D01*
X14370063Y-11404674D02*
X14389110Y-11395150D01*
X14389110Y-11395150D02*
X14417682Y-11395150D01*
X14417682Y-11395150D02*
X14436730Y-11404674D01*
X14436730Y-11404674D02*
X14446253Y-11414198D01*
X14446253Y-11414198D02*
X14455777Y-11433246D01*
X14455777Y-11433246D02*
X14455777Y-11490388D01*
X14455777Y-11490388D02*
X14446253Y-11509436D01*
X14446253Y-11509436D02*
X14436730Y-11518960D01*
X14436730Y-11518960D02*
X14417682Y-11528484D01*
X14417682Y-11528484D02*
X14389110Y-11528484D01*
X14570063Y-11528484D02*
X14551015Y-11518960D01*
X14551015Y-11518960D02*
X14541491Y-11499912D01*
X14541491Y-11499912D02*
X14541491Y-11328484D01*
X14722444Y-11518960D02*
X14703396Y-11528484D01*
X14703396Y-11528484D02*
X14665301Y-11528484D01*
X14665301Y-11528484D02*
X14646253Y-11518960D01*
X14646253Y-11518960D02*
X14636730Y-11499912D01*
X14636730Y-11499912D02*
X14636730Y-11423722D01*
X14636730Y-11423722D02*
X14646253Y-11404674D01*
X14646253Y-11404674D02*
X14665301Y-11395150D01*
X14665301Y-11395150D02*
X14703396Y-11395150D01*
X14703396Y-11395150D02*
X14722444Y-11404674D01*
X14722444Y-11404674D02*
X14731968Y-11423722D01*
X14731968Y-11423722D02*
X14731968Y-11442769D01*
X14731968Y-11442769D02*
X14636730Y-11461817D01*
X14808158Y-11518960D02*
X14827206Y-11528484D01*
X14827206Y-11528484D02*
X14865301Y-11528484D01*
X14865301Y-11528484D02*
X14884349Y-11518960D01*
X14884349Y-11518960D02*
X14893872Y-11499912D01*
X14893872Y-11499912D02*
X14893872Y-11490388D01*
X14893872Y-11490388D02*
X14884349Y-11471341D01*
X14884349Y-11471341D02*
X14865301Y-11461817D01*
X14865301Y-11461817D02*
X14836730Y-11461817D01*
X14836730Y-11461817D02*
X14817682Y-11452293D01*
X14817682Y-11452293D02*
X14808158Y-11433246D01*
X14808158Y-11433246D02*
X14808158Y-11423722D01*
X14808158Y-11423722D02*
X14817682Y-11404674D01*
X14817682Y-11404674D02*
X14836730Y-11395150D01*
X14836730Y-11395150D02*
X14865301Y-11395150D01*
X14865301Y-11395150D02*
X14884349Y-11404674D01*
X14960539Y-11604674D02*
X14970063Y-11595150D01*
X14970063Y-11595150D02*
X14989111Y-11566579D01*
X14989111Y-11566579D02*
X14998634Y-11547531D01*
X14998634Y-11547531D02*
X15008158Y-11518960D01*
X15008158Y-11518960D02*
X15017682Y-11471341D01*
X15017682Y-11471341D02*
X15017682Y-11433246D01*
X15017682Y-11433246D02*
X15008158Y-11385627D01*
X15008158Y-11385627D02*
X14998634Y-11357055D01*
X14998634Y-11357055D02*
X14989111Y-11338008D01*
X14989111Y-11338008D02*
X14970063Y-11309436D01*
X14970063Y-11309436D02*
X14960539Y-11299912D01*
D12*
X9910000Y-11786000D02*
X9995000Y-11701000D01*
X9910000Y-11616000D01*
X9825000Y-11701000D01*
X9910000Y-11786000D01*
D11*
X10360539Y-11792484D02*
X10246253Y-11792484D01*
X10303396Y-11792484D02*
X10303396Y-11592484D01*
X10303396Y-11592484D02*
X10284348Y-11621055D01*
X10284348Y-11621055D02*
X10265301Y-11640103D01*
X10265301Y-11640103D02*
X10246253Y-11649627D01*
X10446253Y-11773436D02*
X10455777Y-11782960D01*
X10455777Y-11782960D02*
X10446253Y-11792484D01*
X10446253Y-11792484D02*
X10436729Y-11782960D01*
X10436729Y-11782960D02*
X10446253Y-11773436D01*
X10446253Y-11773436D02*
X10446253Y-11792484D01*
X10522444Y-11592484D02*
X10655777Y-11592484D01*
X10655777Y-11592484D02*
X10570063Y-11792484D01*
X10770063Y-11592484D02*
X10789110Y-11592484D01*
X10789110Y-11592484D02*
X10808158Y-11602008D01*
X10808158Y-11602008D02*
X10817682Y-11611531D01*
X10817682Y-11611531D02*
X10827205Y-11630579D01*
X10827205Y-11630579D02*
X10836729Y-11668674D01*
X10836729Y-11668674D02*
X10836729Y-11716293D01*
X10836729Y-11716293D02*
X10827205Y-11754388D01*
X10827205Y-11754388D02*
X10817682Y-11773436D01*
X10817682Y-11773436D02*
X10808158Y-11782960D01*
X10808158Y-11782960D02*
X10789110Y-11792484D01*
X10789110Y-11792484D02*
X10770063Y-11792484D01*
X10770063Y-11792484D02*
X10751015Y-11782960D01*
X10751015Y-11782960D02*
X10741491Y-11773436D01*
X10741491Y-11773436D02*
X10731967Y-11754388D01*
X10731967Y-11754388D02*
X10722444Y-11716293D01*
X10722444Y-11716293D02*
X10722444Y-11668674D01*
X10722444Y-11668674D02*
X10731967Y-11630579D01*
X10731967Y-11630579D02*
X10741491Y-11611531D01*
X10741491Y-11611531D02*
X10751015Y-11602008D01*
X10751015Y-11602008D02*
X10770063Y-11592484D01*
X10960539Y-11592484D02*
X10979586Y-11592484D01*
X10979586Y-11592484D02*
X10998634Y-11602008D01*
X10998634Y-11602008D02*
X11008158Y-11611531D01*
X11008158Y-11611531D02*
X11017682Y-11630579D01*
X11017682Y-11630579D02*
X11027205Y-11668674D01*
X11027205Y-11668674D02*
X11027205Y-11716293D01*
X11027205Y-11716293D02*
X11017682Y-11754388D01*
X11017682Y-11754388D02*
X11008158Y-11773436D01*
X11008158Y-11773436D02*
X10998634Y-11782960D01*
X10998634Y-11782960D02*
X10979586Y-11792484D01*
X10979586Y-11792484D02*
X10960539Y-11792484D01*
X10960539Y-11792484D02*
X10941491Y-11782960D01*
X10941491Y-11782960D02*
X10931967Y-11773436D01*
X10931967Y-11773436D02*
X10922444Y-11754388D01*
X10922444Y-11754388D02*
X10912920Y-11716293D01*
X10912920Y-11716293D02*
X10912920Y-11668674D01*
X10912920Y-11668674D02*
X10922444Y-11630579D01*
X10922444Y-11630579D02*
X10931967Y-11611531D01*
X10931967Y-11611531D02*
X10941491Y-11602008D01*
X10941491Y-11602008D02*
X10960539Y-11592484D01*
X11112920Y-11792484D02*
X11112920Y-11659150D01*
X11112920Y-11678198D02*
X11122444Y-11668674D01*
X11122444Y-11668674D02*
X11141491Y-11659150D01*
X11141491Y-11659150D02*
X11170063Y-11659150D01*
X11170063Y-11659150D02*
X11189110Y-11668674D01*
X11189110Y-11668674D02*
X11198634Y-11687722D01*
X11198634Y-11687722D02*
X11198634Y-11792484D01*
X11198634Y-11687722D02*
X11208158Y-11668674D01*
X11208158Y-11668674D02*
X11227205Y-11659150D01*
X11227205Y-11659150D02*
X11255777Y-11659150D01*
X11255777Y-11659150D02*
X11274824Y-11668674D01*
X11274824Y-11668674D02*
X11284348Y-11687722D01*
X11284348Y-11687722D02*
X11284348Y-11792484D01*
X11379586Y-11792484D02*
X11379586Y-11659150D01*
X11379586Y-11678198D02*
X11389110Y-11668674D01*
X11389110Y-11668674D02*
X11408158Y-11659150D01*
X11408158Y-11659150D02*
X11436729Y-11659150D01*
X11436729Y-11659150D02*
X11455777Y-11668674D01*
X11455777Y-11668674D02*
X11465301Y-11687722D01*
X11465301Y-11687722D02*
X11465301Y-11792484D01*
X11465301Y-11687722D02*
X11474824Y-11668674D01*
X11474824Y-11668674D02*
X11493872Y-11659150D01*
X11493872Y-11659150D02*
X11522443Y-11659150D01*
X11522443Y-11659150D02*
X11541491Y-11668674D01*
X11541491Y-11668674D02*
X11551015Y-11687722D01*
X11551015Y-11687722D02*
X11551015Y-11792484D01*
X11941491Y-11582960D02*
X11770063Y-11840103D01*
X12198634Y-11592484D02*
X12217682Y-11592484D01*
X12217682Y-11592484D02*
X12236729Y-11602008D01*
X12236729Y-11602008D02*
X12246253Y-11611531D01*
X12246253Y-11611531D02*
X12255777Y-11630579D01*
X12255777Y-11630579D02*
X12265301Y-11668674D01*
X12265301Y-11668674D02*
X12265301Y-11716293D01*
X12265301Y-11716293D02*
X12255777Y-11754388D01*
X12255777Y-11754388D02*
X12246253Y-11773436D01*
X12246253Y-11773436D02*
X12236729Y-11782960D01*
X12236729Y-11782960D02*
X12217682Y-11792484D01*
X12217682Y-11792484D02*
X12198634Y-11792484D01*
X12198634Y-11792484D02*
X12179586Y-11782960D01*
X12179586Y-11782960D02*
X12170063Y-11773436D01*
X12170063Y-11773436D02*
X12160539Y-11754388D01*
X12160539Y-11754388D02*
X12151015Y-11716293D01*
X12151015Y-11716293D02*
X12151015Y-11668674D01*
X12151015Y-11668674D02*
X12160539Y-11630579D01*
X12160539Y-11630579D02*
X12170063Y-11611531D01*
X12170063Y-11611531D02*
X12179586Y-11602008D01*
X12179586Y-11602008D02*
X12198634Y-11592484D01*
X12351015Y-11773436D02*
X12360539Y-11782960D01*
X12360539Y-11782960D02*
X12351015Y-11792484D01*
X12351015Y-11792484D02*
X12341491Y-11782960D01*
X12341491Y-11782960D02*
X12351015Y-11773436D01*
X12351015Y-11773436D02*
X12351015Y-11792484D01*
X12484348Y-11592484D02*
X12503396Y-11592484D01*
X12503396Y-11592484D02*
X12522444Y-11602008D01*
X12522444Y-11602008D02*
X12531967Y-11611531D01*
X12531967Y-11611531D02*
X12541491Y-11630579D01*
X12541491Y-11630579D02*
X12551015Y-11668674D01*
X12551015Y-11668674D02*
X12551015Y-11716293D01*
X12551015Y-11716293D02*
X12541491Y-11754388D01*
X12541491Y-11754388D02*
X12531967Y-11773436D01*
X12531967Y-11773436D02*
X12522444Y-11782960D01*
X12522444Y-11782960D02*
X12503396Y-11792484D01*
X12503396Y-11792484D02*
X12484348Y-11792484D01*
X12484348Y-11792484D02*
X12465301Y-11782960D01*
X12465301Y-11782960D02*
X12455777Y-11773436D01*
X12455777Y-11773436D02*
X12446253Y-11754388D01*
X12446253Y-11754388D02*
X12436729Y-11716293D01*
X12436729Y-11716293D02*
X12436729Y-11668674D01*
X12436729Y-11668674D02*
X12446253Y-11630579D01*
X12446253Y-11630579D02*
X12455777Y-11611531D01*
X12455777Y-11611531D02*
X12465301Y-11602008D01*
X12465301Y-11602008D02*
X12484348Y-11592484D01*
X12722444Y-11592484D02*
X12684348Y-11592484D01*
X12684348Y-11592484D02*
X12665301Y-11602008D01*
X12665301Y-11602008D02*
X12655777Y-11611531D01*
X12655777Y-11611531D02*
X12636729Y-11640103D01*
X12636729Y-11640103D02*
X12627206Y-11678198D01*
X12627206Y-11678198D02*
X12627206Y-11754388D01*
X12627206Y-11754388D02*
X12636729Y-11773436D01*
X12636729Y-11773436D02*
X12646253Y-11782960D01*
X12646253Y-11782960D02*
X12665301Y-11792484D01*
X12665301Y-11792484D02*
X12703396Y-11792484D01*
X12703396Y-11792484D02*
X12722444Y-11782960D01*
X12722444Y-11782960D02*
X12731967Y-11773436D01*
X12731967Y-11773436D02*
X12741491Y-11754388D01*
X12741491Y-11754388D02*
X12741491Y-11706769D01*
X12741491Y-11706769D02*
X12731967Y-11687722D01*
X12731967Y-11687722D02*
X12722444Y-11678198D01*
X12722444Y-11678198D02*
X12703396Y-11668674D01*
X12703396Y-11668674D02*
X12665301Y-11668674D01*
X12665301Y-11668674D02*
X12646253Y-11678198D01*
X12646253Y-11678198D02*
X12636729Y-11687722D01*
X12636729Y-11687722D02*
X12627206Y-11706769D01*
X12912920Y-11592484D02*
X12874825Y-11592484D01*
X12874825Y-11592484D02*
X12855777Y-11602008D01*
X12855777Y-11602008D02*
X12846253Y-11611531D01*
X12846253Y-11611531D02*
X12827206Y-11640103D01*
X12827206Y-11640103D02*
X12817682Y-11678198D01*
X12817682Y-11678198D02*
X12817682Y-11754388D01*
X12817682Y-11754388D02*
X12827206Y-11773436D01*
X12827206Y-11773436D02*
X12836729Y-11782960D01*
X12836729Y-11782960D02*
X12855777Y-11792484D01*
X12855777Y-11792484D02*
X12893872Y-11792484D01*
X12893872Y-11792484D02*
X12912920Y-11782960D01*
X12912920Y-11782960D02*
X12922444Y-11773436D01*
X12922444Y-11773436D02*
X12931967Y-11754388D01*
X12931967Y-11754388D02*
X12931967Y-11706769D01*
X12931967Y-11706769D02*
X12922444Y-11687722D01*
X12922444Y-11687722D02*
X12912920Y-11678198D01*
X12912920Y-11678198D02*
X12893872Y-11668674D01*
X12893872Y-11668674D02*
X12855777Y-11668674D01*
X12855777Y-11668674D02*
X12836729Y-11678198D01*
X12836729Y-11678198D02*
X12827206Y-11687722D01*
X12827206Y-11687722D02*
X12817682Y-11706769D01*
X13027206Y-11792484D02*
X13065301Y-11792484D01*
X13065301Y-11792484D02*
X13084348Y-11782960D01*
X13084348Y-11782960D02*
X13093872Y-11773436D01*
X13093872Y-11773436D02*
X13112920Y-11744865D01*
X13112920Y-11744865D02*
X13122444Y-11706769D01*
X13122444Y-11706769D02*
X13122444Y-11630579D01*
X13122444Y-11630579D02*
X13112920Y-11611531D01*
X13112920Y-11611531D02*
X13103396Y-11602008D01*
X13103396Y-11602008D02*
X13084348Y-11592484D01*
X13084348Y-11592484D02*
X13046253Y-11592484D01*
X13046253Y-11592484D02*
X13027206Y-11602008D01*
X13027206Y-11602008D02*
X13017682Y-11611531D01*
X13017682Y-11611531D02*
X13008158Y-11630579D01*
X13008158Y-11630579D02*
X13008158Y-11678198D01*
X13008158Y-11678198D02*
X13017682Y-11697246D01*
X13017682Y-11697246D02*
X13027206Y-11706769D01*
X13027206Y-11706769D02*
X13046253Y-11716293D01*
X13046253Y-11716293D02*
X13084348Y-11716293D01*
X13084348Y-11716293D02*
X13103396Y-11706769D01*
X13103396Y-11706769D02*
X13112920Y-11697246D01*
X13112920Y-11697246D02*
X13122444Y-11678198D01*
X13198634Y-11592484D02*
X13198634Y-11630579D01*
X13274825Y-11592484D02*
X13274825Y-11630579D01*
X13570063Y-11868674D02*
X13560539Y-11859150D01*
X13560539Y-11859150D02*
X13541491Y-11830579D01*
X13541491Y-11830579D02*
X13531968Y-11811531D01*
X13531968Y-11811531D02*
X13522444Y-11782960D01*
X13522444Y-11782960D02*
X13512920Y-11735341D01*
X13512920Y-11735341D02*
X13512920Y-11697246D01*
X13512920Y-11697246D02*
X13522444Y-11649627D01*
X13522444Y-11649627D02*
X13531968Y-11621055D01*
X13531968Y-11621055D02*
X13541491Y-11602008D01*
X13541491Y-11602008D02*
X13560539Y-11573436D01*
X13560539Y-11573436D02*
X13570063Y-11563912D01*
X13627206Y-11592484D02*
X13751015Y-11592484D01*
X13751015Y-11592484D02*
X13684348Y-11668674D01*
X13684348Y-11668674D02*
X13712920Y-11668674D01*
X13712920Y-11668674D02*
X13731968Y-11678198D01*
X13731968Y-11678198D02*
X13741491Y-11687722D01*
X13741491Y-11687722D02*
X13751015Y-11706769D01*
X13751015Y-11706769D02*
X13751015Y-11754388D01*
X13751015Y-11754388D02*
X13741491Y-11773436D01*
X13741491Y-11773436D02*
X13731968Y-11782960D01*
X13731968Y-11782960D02*
X13712920Y-11792484D01*
X13712920Y-11792484D02*
X13655777Y-11792484D01*
X13655777Y-11792484D02*
X13636729Y-11782960D01*
X13636729Y-11782960D02*
X13627206Y-11773436D01*
X13989110Y-11792484D02*
X13989110Y-11592484D01*
X14074825Y-11792484D02*
X14074825Y-11687722D01*
X14074825Y-11687722D02*
X14065301Y-11668674D01*
X14065301Y-11668674D02*
X14046253Y-11659150D01*
X14046253Y-11659150D02*
X14017682Y-11659150D01*
X14017682Y-11659150D02*
X13998634Y-11668674D01*
X13998634Y-11668674D02*
X13989110Y-11678198D01*
X14198634Y-11792484D02*
X14179587Y-11782960D01*
X14179587Y-11782960D02*
X14170063Y-11773436D01*
X14170063Y-11773436D02*
X14160539Y-11754388D01*
X14160539Y-11754388D02*
X14160539Y-11697246D01*
X14160539Y-11697246D02*
X14170063Y-11678198D01*
X14170063Y-11678198D02*
X14179587Y-11668674D01*
X14179587Y-11668674D02*
X14198634Y-11659150D01*
X14198634Y-11659150D02*
X14227206Y-11659150D01*
X14227206Y-11659150D02*
X14246253Y-11668674D01*
X14246253Y-11668674D02*
X14255777Y-11678198D01*
X14255777Y-11678198D02*
X14265301Y-11697246D01*
X14265301Y-11697246D02*
X14265301Y-11754388D01*
X14265301Y-11754388D02*
X14255777Y-11773436D01*
X14255777Y-11773436D02*
X14246253Y-11782960D01*
X14246253Y-11782960D02*
X14227206Y-11792484D01*
X14227206Y-11792484D02*
X14198634Y-11792484D01*
X14379587Y-11792484D02*
X14360539Y-11782960D01*
X14360539Y-11782960D02*
X14351015Y-11763912D01*
X14351015Y-11763912D02*
X14351015Y-11592484D01*
X14531968Y-11782960D02*
X14512920Y-11792484D01*
X14512920Y-11792484D02*
X14474825Y-11792484D01*
X14474825Y-11792484D02*
X14455777Y-11782960D01*
X14455777Y-11782960D02*
X14446253Y-11763912D01*
X14446253Y-11763912D02*
X14446253Y-11687722D01*
X14446253Y-11687722D02*
X14455777Y-11668674D01*
X14455777Y-11668674D02*
X14474825Y-11659150D01*
X14474825Y-11659150D02*
X14512920Y-11659150D01*
X14512920Y-11659150D02*
X14531968Y-11668674D01*
X14531968Y-11668674D02*
X14541491Y-11687722D01*
X14541491Y-11687722D02*
X14541491Y-11706769D01*
X14541491Y-11706769D02*
X14446253Y-11725817D01*
X14617682Y-11782960D02*
X14636730Y-11792484D01*
X14636730Y-11792484D02*
X14674825Y-11792484D01*
X14674825Y-11792484D02*
X14693872Y-11782960D01*
X14693872Y-11782960D02*
X14703396Y-11763912D01*
X14703396Y-11763912D02*
X14703396Y-11754388D01*
X14703396Y-11754388D02*
X14693872Y-11735341D01*
X14693872Y-11735341D02*
X14674825Y-11725817D01*
X14674825Y-11725817D02*
X14646253Y-11725817D01*
X14646253Y-11725817D02*
X14627206Y-11716293D01*
X14627206Y-11716293D02*
X14617682Y-11697246D01*
X14617682Y-11697246D02*
X14617682Y-11687722D01*
X14617682Y-11687722D02*
X14627206Y-11668674D01*
X14627206Y-11668674D02*
X14646253Y-11659150D01*
X14646253Y-11659150D02*
X14674825Y-11659150D01*
X14674825Y-11659150D02*
X14693872Y-11668674D01*
X14770063Y-11868674D02*
X14779587Y-11859150D01*
X14779587Y-11859150D02*
X14798634Y-11830579D01*
X14798634Y-11830579D02*
X14808158Y-11811531D01*
X14808158Y-11811531D02*
X14817682Y-11782960D01*
X14817682Y-11782960D02*
X14827206Y-11735341D01*
X14827206Y-11735341D02*
X14827206Y-11697246D01*
X14827206Y-11697246D02*
X14817682Y-11649627D01*
X14817682Y-11649627D02*
X14808158Y-11621055D01*
X14808158Y-11621055D02*
X14798634Y-11602008D01*
X14798634Y-11602008D02*
X14779587Y-11573436D01*
X14779587Y-11573436D02*
X14770063Y-11563912D01*
M02*
