M48
; DRILL file {KiCad 8.0.8} date 2025-02-13T13:17:43+0200
; FORMAT={-:-/ absolute / metric / decimal}
; #@! TF.CreationDate,2025-02-13T13:17:43+02:00
; #@! TF.GenerationSoftware,Kicad,Pcbnew,8.0.8
; #@! TF.FileFunction,Plated,1,2,PTH
FMAT,2
METRIC
; #@! TA.AperFunction,Plated,PTH,ViaDrill
T1C0.300
; #@! TA.AperFunction,Plated,PTH,ComponentDrill
T2C0.300
; #@! TA.AperFunction,Plated,PTH,ComponentDrill
T3C0.850
; #@! TA.AperFunction,Plated,PTH,ComponentDrill
T4C1.000
; #@! TA.AperFunction,Plated,PTH,ComponentDrill
T5C1.700
%
G90
G05
T1
X101.778Y-77.775
X109.652Y-77.902
X110.922Y-81.839
X110.922Y-82.855
X112.192Y-73.584
X115.494Y-79.172
X115.748Y-84.125
X116.51Y-78.41
X120.371Y-90.043
X121.184Y-90.043
X122.098Y-84.355
X123.749Y-77.013
X124.003Y-76.412
X124.638Y-73.584
X124.638Y-76.886
X125.654Y-81.204
X126.924Y-83.363
X127.432Y-73.512
X127.94Y-94.285
X128.618Y-78.834
X128.702Y-76.378
X129.072Y-80.706
X129.718Y-80.696
X129.893Y-79.055
X130.48Y-80.823
X131.115Y-81.204
X131.75Y-81.585
X131.877Y-78.918
X132.289Y-81.852
X132.576Y-79.362
X133.02Y-78.791
X135.052Y-79.934
X135.306Y-76.505
X135.941Y-83.744
X137.211Y-81.458
X138.227Y-76.886
X138.608Y-79.934
X139.37Y-82.728
X139.751Y-79.934
X140.005Y-82.093
X140.005Y-94.285
X140.64Y-82.728
X140.767Y-76.505
X140.957Y-79.743
X141.275Y-76.124
X141.593Y-81.013
X141.656Y-81.666
X141.656Y-83.109
X142.291Y-78.664
X142.736Y-79.08
X143.176Y-92.634
X143.307Y-78.918
X143.751Y-76.569
X144.45Y-77.013
X145.085Y-93.65
X145.212Y-77.989
X145.212Y-82.728
X145.339Y-82.093
X145.466Y-81.458
X145.847Y-92.507
X146.609Y-79.68
X146.99Y-83.871
X147.371Y-73.457
X147.371Y-76.378
X147.511Y-77.025
X147.625Y-84.633
X148.006Y-83.109
X148.641Y-85.776
X150.419Y-82.855
X151.435Y-97.079
X151.562Y-81.712
X152.375Y-89.992
X153.48Y-77.153
T2
X140.916Y-86.808
X140.926Y-88.808
X141.926Y-87.808
X142.926Y-86.798
X142.926Y-88.808
X143.926Y-87.808
X144.926Y-86.808
X144.926Y-88.808
T3
X117.907Y-89.84
X117.907Y-92.38
X117.907Y-94.92
X126.289Y-89.84
X126.289Y-92.38
X126.289Y-94.92
T4
X108.37Y-72.23
X108.37Y-74.77
X110.91Y-72.23
X110.91Y-74.77
X111.43Y-97.079
X113.45Y-72.23
X113.45Y-74.77
X115.99Y-72.23
X115.99Y-74.77
X118.53Y-72.23
X118.53Y-74.77
X121.07Y-72.23
X121.07Y-74.77
X123.61Y-72.23
X123.61Y-74.77
X126.15Y-72.23
X126.15Y-74.77
X128.69Y-72.23
X128.69Y-74.77
X131.23Y-72.23
X131.23Y-74.77
X132.893Y-97.079
X133.77Y-72.23
X133.77Y-74.77
X136.31Y-72.23
X136.31Y-74.77
X138.85Y-72.23
X138.85Y-74.77
X141.39Y-72.23
X141.39Y-74.77
X142.672Y-96.952
X143.93Y-72.23
X143.93Y-74.77
X145.212Y-96.952
X146.47Y-72.23
X146.47Y-74.77
X149.01Y-72.23
X149.01Y-74.77
X151.55Y-72.23
X151.55Y-74.77
X154.09Y-72.23
X154.09Y-74.77
X156.63Y-72.23
X156.63Y-74.77
T5
X159.436Y-79.934
X159.436Y-84.934
X159.436Y-89.934
M30
