M48
; DRILL file {KiCad 8.0.8} date 2025-02-13T09:25:53+0200
; FORMAT={-:-/ absolute / metric / decimal}
; #@! TF.CreationDate,2025-02-13T09:25:53+02:00
; #@! TF.GenerationSoftware,Kicad,Pcbnew,8.0.8
; #@! TF.FileFunction,Plated,1,2,PTH
FMAT,2
METRIC
; #@! TA.AperFunction,Plated,PTH,ViaDrill
T1C0.150
; #@! TA.AperFunction,Plated,PTH,ComponentDrill
T2C0.200
; #@! TA.AperFunction,Plated,PTH,ComponentDrill
T3C0.850
; #@! TA.AperFunction,Plated,PTH,ComponentDrill
T4C1.000
; #@! TA.AperFunction,Plated,PTH,ComponentDrill
T5C1.700
%
G90
G05
T1
X101.778Y-77.775
X109.652Y-77.902
X110.922Y-81.839
X110.922Y-82.855
X112.192Y-72.441
X115.748Y-78.918
X115.748Y-84.125
X116.256Y-78.918
X120.371Y-90.043
X121.184Y-90.043
X122.098Y-84.355
X124.297Y-77.838
X124.638Y-77.307
X124.98Y-77.052
X125.654Y-81.204
X126.543Y-70.79
X127.94Y-94.285
X128.194Y-84.379
X128.829Y-76.632
X130.099Y-78.623
X130.226Y-79.045
X130.353Y-80.418
X130.694Y-80.823
X130.861Y-78.623
X130.977Y-81.176
X131.328Y-81.498
X131.808Y-81.839
X132.287Y-81.959
X132.893Y-79.045
X133.274Y-78.664
X134.671Y-77.013
X135.052Y-79.934
X135.604Y-83.954
X137.211Y-81.458
X139.37Y-82.728
X139.497Y-77.013
X139.881Y-79.938
X140.005Y-94.285
X140.259Y-82.347
X140.64Y-82.728
X141.275Y-76.378
X141.529Y-81.666
X141.91Y-76.759
X141.91Y-81.331
X142.037Y-82.982
X142.164Y-80.823
X142.291Y-78.664
X143.176Y-92.634
X143.18Y-79.045
X143.561Y-76.759
X144.069Y-77.267
X145.085Y-82.982
X145.085Y-93.65
X145.212Y-77.989
X145.847Y-81.204
X145.847Y-81.712
X145.847Y-82.22
X145.847Y-92.507
X146.609Y-79.68
X147.371Y-76.505
X147.498Y-85.014
X147.511Y-77.025
X147.625Y-73.965
X147.752Y-83.871
X147.778Y-84.506
X148.768Y-85.522
X150.495Y-83.896
X151.435Y-97.079
X151.867Y-82.423
X152.375Y-89.992
X153.48Y-77.153
T2
X140.916Y-86.808
X140.926Y-88.808
X141.926Y-87.808
X142.926Y-86.798
X142.926Y-88.808
X143.926Y-87.808
X144.926Y-86.808
X144.926Y-88.808
T3
X117.907Y-89.84
X117.907Y-92.38
X117.907Y-94.92
X126.289Y-89.84
X126.289Y-92.38
X126.289Y-94.92
T4
X108.37Y-72.23
X108.37Y-74.77
X110.91Y-72.23
X110.91Y-74.77
X111.43Y-97.079
X113.45Y-72.23
X113.45Y-74.77
X115.99Y-72.23
X115.99Y-74.77
X118.53Y-72.23
X118.53Y-74.77
X121.07Y-72.23
X121.07Y-74.77
X123.61Y-72.23
X123.61Y-74.77
X126.15Y-72.23
X126.15Y-74.77
X128.69Y-72.23
X128.69Y-74.77
X131.23Y-72.23
X131.23Y-74.77
X132.893Y-97.079
X133.77Y-72.23
X133.77Y-74.77
X136.31Y-72.23
X136.31Y-74.77
X138.85Y-72.23
X138.85Y-74.77
X141.39Y-72.23
X141.39Y-74.77
X142.672Y-96.952
X143.93Y-72.23
X143.93Y-74.77
X145.212Y-96.952
X146.47Y-72.23
X146.47Y-74.77
X149.01Y-72.23
X149.01Y-74.77
X151.55Y-72.23
X151.55Y-74.77
X154.09Y-72.23
X154.09Y-74.77
X156.63Y-72.23
X156.63Y-74.77
T5
X159.436Y-79.934
X159.436Y-84.934
X159.436Y-89.934
M30
