G04 #@! TF.GenerationSoftware,KiCad,Pcbnew,8.0.8*
G04 #@! TF.CreationDate,2025-02-13T09:25:44+02:00*
G04 #@! TF.ProjectId,civic_serializer,63697669-635f-4736-9572-69616c697a65,rev?*
G04 #@! TF.SameCoordinates,Original*
G04 #@! TF.FileFunction,Copper,L2,Bot*
G04 #@! TF.FilePolarity,Positive*
%FSLAX46Y46*%
G04 Gerber Fmt 4.6, Leading zero omitted, Abs format (unit mm)*
G04 Created by KiCad (PCBNEW 8.0.8) date 2025-02-13 09:25:44*
%MOMM*%
%LPD*%
G01*
G04 APERTURE LIST*
G04 Aperture macros list*
%AMRoundRect*
0 Rectangle with rounded corners*
0 $1 Rounding radius*
0 $2 $3 $4 $5 $6 $7 $8 $9 X,Y pos of 4 corners*
0 Add a 4 corners polygon primitive as box body*
4,1,4,$2,$3,$4,$5,$6,$7,$8,$9,$2,$3,0*
0 Add four circle primitives for the rounded corners*
1,1,$1+$1,$2,$3*
1,1,$1+$1,$4,$5*
1,1,$1+$1,$6,$7*
1,1,$1+$1,$8,$9*
0 Add four rect primitives between the rounded corners*
20,1,$1+$1,$2,$3,$4,$5,0*
20,1,$1+$1,$4,$5,$6,$7,0*
20,1,$1+$1,$6,$7,$8,$9,0*
20,1,$1+$1,$8,$9,$2,$3,0*%
G04 Aperture macros list end*
G04 #@! TA.AperFunction,ComponentPad*
%ADD10RoundRect,0.412500X0.412500X-0.412500X0.412500X0.412500X-0.412500X0.412500X-0.412500X-0.412500X0*%
G04 #@! TD*
G04 #@! TA.AperFunction,ComponentPad*
%ADD11C,1.650000*%
G04 #@! TD*
G04 #@! TA.AperFunction,ComponentPad*
%ADD12RoundRect,0.250001X1.099999X-1.099999X1.099999X1.099999X-1.099999X1.099999X-1.099999X-1.099999X0*%
G04 #@! TD*
G04 #@! TA.AperFunction,ComponentPad*
%ADD13C,2.700000*%
G04 #@! TD*
G04 #@! TA.AperFunction,ComponentPad*
%ADD14C,0.500000*%
G04 #@! TD*
G04 #@! TA.AperFunction,ComponentPad*
%ADD15R,1.700000X1.700000*%
G04 #@! TD*
G04 #@! TA.AperFunction,ComponentPad*
%ADD16O,1.700000X1.700000*%
G04 #@! TD*
G04 #@! TA.AperFunction,SMDPad,CuDef*
%ADD17RoundRect,0.250000X0.475000X-0.337500X0.475000X0.337500X-0.475000X0.337500X-0.475000X-0.337500X0*%
G04 #@! TD*
G04 #@! TA.AperFunction,SMDPad,CuDef*
%ADD18RoundRect,0.237500X-0.237500X0.300000X-0.237500X-0.300000X0.237500X-0.300000X0.237500X0.300000X0*%
G04 #@! TD*
G04 #@! TA.AperFunction,SMDPad,CuDef*
%ADD19RoundRect,0.237500X-0.250000X-0.237500X0.250000X-0.237500X0.250000X0.237500X-0.250000X0.237500X0*%
G04 #@! TD*
G04 #@! TA.AperFunction,SMDPad,CuDef*
%ADD20RoundRect,0.237500X-0.287500X-0.237500X0.287500X-0.237500X0.287500X0.237500X-0.287500X0.237500X0*%
G04 #@! TD*
G04 #@! TA.AperFunction,SMDPad,CuDef*
%ADD21RoundRect,0.250000X-0.475000X0.337500X-0.475000X-0.337500X0.475000X-0.337500X0.475000X0.337500X0*%
G04 #@! TD*
G04 #@! TA.AperFunction,SMDPad,CuDef*
%ADD22RoundRect,0.237500X0.250000X0.237500X-0.250000X0.237500X-0.250000X-0.237500X0.250000X-0.237500X0*%
G04 #@! TD*
G04 #@! TA.AperFunction,SMDPad,CuDef*
%ADD23RoundRect,0.237500X-0.300000X-0.237500X0.300000X-0.237500X0.300000X0.237500X-0.300000X0.237500X0*%
G04 #@! TD*
G04 #@! TA.AperFunction,ViaPad*
%ADD24C,0.300000*%
G04 #@! TD*
G04 #@! TA.AperFunction,ViaPad*
%ADD25C,0.350000*%
G04 #@! TD*
G04 #@! TA.AperFunction,Conductor*
%ADD26C,0.127000*%
G04 #@! TD*
G04 #@! TA.AperFunction,Conductor*
%ADD27C,0.254000*%
G04 #@! TD*
G04 APERTURE END LIST*
D10*
X126289000Y-94920000D03*
D11*
X126289000Y-92380000D03*
X126289000Y-89840000D03*
D12*
X159436000Y-89934000D03*
D13*
X159436000Y-84934000D03*
X159436000Y-79934000D03*
D14*
X140926000Y-88808000D03*
X142926000Y-88808000D03*
X144926000Y-88808000D03*
X141926000Y-87808000D03*
X143926000Y-87808000D03*
X140916000Y-86808000D03*
X144926000Y-86808000D03*
X142926000Y-86798000D03*
D10*
X117907000Y-94920000D03*
D11*
X117907000Y-92380000D03*
X117907000Y-89840000D03*
D15*
X132893000Y-97079000D03*
X142672000Y-96952000D03*
D16*
X145212000Y-96952000D03*
D15*
X111430000Y-97079000D03*
X108370000Y-74770000D03*
D16*
X108370000Y-72230000D03*
X110910000Y-74770000D03*
X110910000Y-72230000D03*
X113450000Y-74770000D03*
X113450000Y-72230000D03*
X115990000Y-74770000D03*
X115990000Y-72230000D03*
X118530000Y-74770000D03*
X118530000Y-72230000D03*
X121070000Y-74770000D03*
X121070000Y-72230000D03*
X123610000Y-74770000D03*
X123610000Y-72230000D03*
X126150000Y-74770000D03*
X126150000Y-72230000D03*
X128690000Y-74770000D03*
X128690000Y-72230000D03*
X131230000Y-74770000D03*
X131230000Y-72230000D03*
X133770000Y-74770000D03*
X133770000Y-72230000D03*
X136310000Y-74770000D03*
X136310000Y-72230000D03*
X138850000Y-74770000D03*
X138850000Y-72230000D03*
X141390000Y-74770000D03*
X141390000Y-72230000D03*
X143930000Y-74770000D03*
X143930000Y-72230000D03*
X146470000Y-74770000D03*
X146470000Y-72230000D03*
X149010000Y-74770000D03*
X149010000Y-72230000D03*
X151550000Y-74770000D03*
X151550000Y-72230000D03*
X154090000Y-74770000D03*
X154090000Y-72230000D03*
X156630000Y-74770000D03*
X156630000Y-72230000D03*
D17*
X115367000Y-82368500D03*
X115367000Y-80293500D03*
D18*
X149276000Y-83008500D03*
X149276000Y-84733500D03*
D19*
X148109500Y-96444000D03*
X149934500Y-96444000D03*
X149125500Y-86919000D03*
X150950500Y-86919000D03*
D17*
X112954000Y-82368500D03*
X112954000Y-80293500D03*
D20*
X138876000Y-78918000D03*
X140626000Y-78918000D03*
D21*
X108636000Y-81309500D03*
X108636000Y-83384500D03*
D20*
X144591000Y-78918000D03*
X146341000Y-78918000D03*
D19*
X148133000Y-97968000D03*
X149958000Y-97968000D03*
D22*
X140663500Y-80950000D03*
X138838500Y-80950000D03*
D23*
X149175500Y-88570000D03*
X150900500Y-88570000D03*
D24*
X147778500Y-84506000D03*
X110922000Y-81839000D03*
X110922000Y-82855000D03*
X142164000Y-80823000D03*
X142291000Y-78664000D03*
X139881500Y-79937500D03*
X144069000Y-77267000D03*
X151435000Y-97079000D03*
X122098000Y-84355500D03*
X146609000Y-79680000D03*
X147752000Y-83871000D03*
X145085000Y-93650000D03*
X143176000Y-92634000D03*
X148768000Y-85522000D03*
X130353000Y-80417776D03*
X147498000Y-85014000D03*
X153480230Y-77153230D03*
X130693500Y-80823000D03*
X140259000Y-82347000D03*
X147510500Y-77025500D03*
X145847000Y-81204000D03*
X130861000Y-78623500D03*
X143561000Y-76759000D03*
X141910000Y-76759000D03*
X131328500Y-81498500D03*
X128829000Y-76632000D03*
X124980264Y-77052184D03*
D25*
X127940000Y-94285000D03*
D24*
X140005000Y-94285000D03*
X109652000Y-77902000D03*
X112192000Y-72441000D03*
X126543000Y-70790000D03*
X145847000Y-92507000D03*
X115748000Y-78918000D03*
X135604145Y-83953855D03*
X147625000Y-73965000D03*
X143180000Y-79045000D03*
X124638000Y-77307500D03*
X141275000Y-76378000D03*
X130976766Y-81176250D03*
X145847000Y-82220000D03*
X142037000Y-82982000D03*
X141529000Y-81666000D03*
X133274000Y-78664000D03*
X134671000Y-77013000D03*
X137211000Y-81458000D03*
X131807789Y-81838999D03*
X124297500Y-77838500D03*
X130226000Y-79045000D03*
X141910000Y-81331000D03*
X130099000Y-78623500D03*
X145847000Y-81712000D03*
X140640000Y-82728000D03*
X116256000Y-78918000D03*
X125654000Y-81204000D03*
X132893000Y-79045000D03*
X139497000Y-77013000D03*
X135052000Y-79934000D03*
X132287183Y-81959183D03*
X147371000Y-76505000D03*
X145212000Y-77988500D03*
X145085000Y-82982000D03*
X151866800Y-82423200D03*
X120370800Y-90043200D03*
X139370000Y-82728000D03*
X101778000Y-77775000D03*
X128194000Y-84379000D03*
X150495200Y-83896400D03*
X115748000Y-84125000D03*
X121183600Y-90043200D03*
X152374800Y-89992400D03*
D26*
X126502500Y-92166500D02*
X126289000Y-92380000D01*
X147411500Y-90583290D02*
X145828290Y-92166500D01*
X147498000Y-86205250D02*
X147411500Y-86291750D01*
X147411500Y-86291750D02*
X147411500Y-90583290D01*
X145828290Y-92166500D02*
X126502500Y-92166500D01*
X126162000Y-94920000D02*
X126289000Y-94920000D01*
X122098000Y-90856000D02*
X126162000Y-94920000D01*
X122098000Y-84355500D02*
X122098000Y-90856000D01*
X147498000Y-85014000D02*
X147498000Y-86205250D01*
X147778500Y-84506000D02*
X149276000Y-83008500D01*
D27*
X135193000Y-82601000D02*
X111176000Y-82601000D01*
X110922000Y-82855000D02*
X110922000Y-81839000D01*
X144316000Y-78918000D02*
X142919000Y-77521000D01*
X140273000Y-77521000D02*
X135193000Y-82601000D01*
X142919000Y-77521000D02*
X140273000Y-77521000D01*
X111176000Y-82601000D02*
X110922000Y-82855000D01*
D26*
X151308000Y-97206000D02*
X151435000Y-97079000D01*
D27*
X142164000Y-80061000D02*
X141148000Y-79045000D01*
D26*
X148768000Y-79172000D02*
X146863000Y-77267000D01*
X150172500Y-87697000D02*
X150172500Y-89807100D01*
X149934500Y-97206000D02*
X151308000Y-97206000D01*
X139881500Y-79937500D02*
X140901000Y-78918000D01*
X150950500Y-86919000D02*
X150172500Y-87697000D01*
X142037000Y-78918000D02*
X140626000Y-78918000D01*
X138869000Y-80950000D02*
X139881500Y-79937500D01*
X146863000Y-77267000D02*
X144069000Y-77267000D01*
X148768000Y-80208136D02*
X148768000Y-79172000D01*
X150950500Y-82390636D02*
X148768000Y-80208136D01*
X150139600Y-89840000D02*
X151435000Y-91135400D01*
X149934500Y-96444000D02*
X149934500Y-97206000D01*
X150950500Y-86919000D02*
X150950500Y-82390636D01*
X150172500Y-89807100D02*
X150139600Y-89840000D01*
X142291000Y-78664000D02*
X142037000Y-78918000D01*
X149934500Y-97206000D02*
X149934500Y-97944500D01*
X151435000Y-91135400D02*
X151435000Y-97079000D01*
X149934500Y-97944500D02*
X149958000Y-97968000D01*
D27*
X142164000Y-80823000D02*
X142164000Y-80061000D01*
X146616000Y-82735000D02*
X146616000Y-78918000D01*
X147752000Y-83871000D02*
X146616000Y-82735000D01*
D26*
X143176000Y-92634000D02*
X144069000Y-92634000D01*
X144069000Y-92634000D02*
X145085000Y-93650000D01*
X149125500Y-88520000D02*
X149175500Y-88570000D01*
X149125500Y-86919000D02*
X149125500Y-88520000D01*
X148768000Y-85522000D02*
X148768000Y-86561500D01*
X148768000Y-86561500D02*
X149125500Y-86919000D01*
X145720000Y-96444000D02*
X145212000Y-96952000D01*
X148109500Y-96444000D02*
X145720000Y-96444000D01*
X143712500Y-97992500D02*
X142672000Y-96952000D01*
X148108500Y-97992500D02*
X143712500Y-97992500D01*
X148133000Y-97968000D02*
X148108500Y-97992500D01*
X132432133Y-80119357D02*
X137465000Y-75086490D01*
X137465000Y-73385000D02*
X136310000Y-72230000D01*
X130353000Y-80417776D02*
X130651419Y-80119357D01*
X130651419Y-80119357D02*
X132432133Y-80119357D01*
X137465000Y-75086490D02*
X137465000Y-73385000D01*
X153480230Y-77153230D02*
X155372000Y-75261460D01*
X155372000Y-75261460D02*
X155372000Y-73488000D01*
X155372000Y-73488000D02*
X156630000Y-72230000D01*
X137719000Y-73361000D02*
X138850000Y-72230000D01*
X130693500Y-80753590D02*
X131073733Y-80373357D01*
X137719000Y-75191700D02*
X137719000Y-73361000D01*
X131073733Y-80373357D02*
X132537343Y-80373357D01*
X130693500Y-80823000D02*
X130693500Y-80753590D01*
X132537343Y-80373357D02*
X137719000Y-75191700D01*
X144082120Y-81204000D02*
X145847000Y-81204000D01*
X146968210Y-77013000D02*
X146968210Y-76399790D01*
X148598000Y-74770000D02*
X149010000Y-74770000D01*
X140259000Y-82347000D02*
X142939120Y-82347000D01*
X147510500Y-77025500D02*
X146980710Y-77025500D01*
X146980710Y-77025500D02*
X146968210Y-77013000D01*
X146968210Y-76399790D02*
X148598000Y-74770000D01*
X142939120Y-82347000D02*
X144082120Y-81204000D01*
X123241000Y-79553000D02*
X119812000Y-76124000D01*
X130199540Y-79553000D02*
X123241000Y-79553000D01*
X130861000Y-78623500D02*
X130861000Y-78891540D01*
X119812000Y-76124000D02*
X119812000Y-74219000D01*
X117344000Y-73584000D02*
X115990000Y-72230000D01*
X130861000Y-78891540D02*
X130199540Y-79553000D01*
X119177000Y-73584000D02*
X117344000Y-73584000D01*
X119812000Y-74219000D02*
X119177000Y-73584000D01*
X141174460Y-76759000D02*
X141910000Y-76759000D01*
X143561000Y-76759000D02*
X143930000Y-76390000D01*
X131945643Y-80881357D02*
X132747763Y-80881357D01*
X132747763Y-80881357D02*
X137251120Y-76378000D01*
X137251120Y-76378000D02*
X140793460Y-76378000D01*
X131328500Y-81498500D02*
X131945643Y-80881357D01*
X143930000Y-76390000D02*
X143930000Y-74770000D01*
X140793460Y-76378000D02*
X141174460Y-76759000D01*
X128408816Y-77052184D02*
X128829000Y-76632000D01*
X124980264Y-77052184D02*
X128408816Y-77052184D01*
X140005000Y-94285000D02*
X127940000Y-94285000D01*
X108636000Y-78918000D02*
X109652000Y-77902000D01*
X108636000Y-81309500D02*
X108636000Y-78918000D01*
X127432000Y-73512000D02*
X127432000Y-71679000D01*
X128690000Y-74770000D02*
X127432000Y-73512000D01*
X111684000Y-73584000D02*
X109556000Y-73584000D01*
X112192000Y-72441000D02*
X112192000Y-73076000D01*
X112192000Y-73076000D02*
X111684000Y-73584000D01*
X109556000Y-73584000D02*
X108370000Y-74770000D01*
X127432000Y-71679000D02*
X126543000Y-70790000D01*
X149941500Y-83610000D02*
X149941500Y-81742500D01*
X147056500Y-78857500D02*
X147056500Y-78476500D01*
X148907210Y-83736500D02*
X149815000Y-83736500D01*
X149815000Y-83736500D02*
X149941500Y-83610000D01*
X147665500Y-90688500D02*
X147665500Y-86396960D01*
X141390000Y-75096000D02*
X141390000Y-74770000D01*
X143942000Y-77648000D02*
X141390000Y-75096000D01*
X145847000Y-92507000D02*
X147665500Y-90688500D01*
X147665500Y-86396960D02*
X148119000Y-85943460D01*
X148119000Y-85943460D02*
X148119000Y-84524710D01*
X148119000Y-84524710D02*
X148907210Y-83736500D01*
X147056500Y-78476500D02*
X146228000Y-77648000D01*
X146228000Y-77648000D02*
X143942000Y-77648000D01*
X149941500Y-81742500D02*
X147056500Y-78857500D01*
X115748000Y-78918000D02*
X115058000Y-78918000D01*
X115058000Y-78918000D02*
X110910000Y-74770000D01*
X150323000Y-73457000D02*
X151550000Y-72230000D01*
X135604145Y-83953855D02*
X135604145Y-83191855D01*
X143180000Y-81465864D02*
X143180000Y-79045000D01*
X142639364Y-82006500D02*
X143180000Y-81465864D01*
X135604145Y-83191855D02*
X136789500Y-82006500D01*
X147625000Y-73965000D02*
X148133000Y-73457000D01*
X136789500Y-82006500D02*
X142639364Y-82006500D01*
X148133000Y-73457000D02*
X150323000Y-73457000D01*
X124724500Y-77394000D02*
X128606000Y-77394000D01*
X128606000Y-77394000D02*
X131230000Y-74770000D01*
X124638000Y-77307500D02*
X124724500Y-77394000D01*
X137145910Y-76124000D02*
X141021000Y-76124000D01*
X141021000Y-76124000D02*
X141275000Y-76378000D01*
X130976766Y-81176250D02*
X131525659Y-80627357D01*
X131525659Y-80627357D02*
X132642553Y-80627357D01*
X132642553Y-80627357D02*
X137145910Y-76124000D01*
X143022540Y-82982000D02*
X143784540Y-82220000D01*
X143784540Y-82220000D02*
X145847000Y-82220000D01*
X142037000Y-82982000D02*
X143022540Y-82982000D01*
X134426210Y-77013000D02*
X134671000Y-77013000D01*
X133537210Y-77902000D02*
X134426210Y-77013000D01*
X141529000Y-81666000D02*
X137419000Y-81666000D01*
X133020000Y-78156000D02*
X133274000Y-77902000D01*
X133274000Y-78664000D02*
X133020000Y-78410000D01*
X137419000Y-81666000D02*
X137211000Y-81458000D01*
X133020000Y-78410000D02*
X133020000Y-78156000D01*
X133274000Y-77902000D02*
X133537210Y-77902000D01*
X131807788Y-81839000D02*
X123059000Y-81839000D01*
X123059000Y-81839000D02*
X115990000Y-74770000D01*
X131807789Y-81838999D02*
X131807788Y-81839000D01*
X124488000Y-77648000D02*
X133432000Y-77648000D01*
X124297500Y-77838500D02*
X124488000Y-77648000D01*
X133432000Y-77648000D02*
X136310000Y-74770000D01*
X130226000Y-79045000D02*
X129972000Y-79299000D01*
X121070000Y-75731000D02*
X121070000Y-74770000D01*
X124638000Y-79299000D02*
X121070000Y-75731000D01*
X129972000Y-79299000D02*
X124638000Y-79299000D01*
X141529000Y-80950000D02*
X140751000Y-80950000D01*
X141910000Y-81331000D02*
X141529000Y-80950000D01*
X121403500Y-73270500D02*
X119570500Y-73270500D01*
X122352000Y-74219000D02*
X121403500Y-73270500D01*
X129804500Y-78918000D02*
X125146000Y-78918000D01*
X130099000Y-78623500D02*
X129804500Y-78918000D01*
X119570500Y-73270500D02*
X118530000Y-72230000D01*
X125146000Y-78918000D02*
X124765000Y-78537000D01*
X124514460Y-78537000D02*
X122352000Y-76374540D01*
X122352000Y-76374540D02*
X122352000Y-74219000D01*
X124765000Y-78537000D02*
X124514460Y-78537000D01*
X140767000Y-82601000D02*
X143044330Y-82601000D01*
X143044330Y-82601000D02*
X143933330Y-81712000D01*
X140640000Y-82728000D02*
X140767000Y-82601000D01*
X143933330Y-81712000D02*
X145847000Y-81712000D01*
X113450000Y-76112000D02*
X113450000Y-74770000D01*
X116256000Y-78918000D02*
X113450000Y-76112000D01*
X137719000Y-77267000D02*
X139243000Y-77267000D01*
X139243000Y-77267000D02*
X139497000Y-77013000D01*
X135052000Y-79934000D02*
X137719000Y-77267000D01*
X125654000Y-81204000D02*
X126797000Y-80061000D01*
X126797000Y-80061000D02*
X130226000Y-80061000D01*
X130226000Y-80061000D02*
X131242000Y-79045000D01*
X131242000Y-79045000D02*
X132893000Y-79045000D01*
X141768960Y-77099500D02*
X143034290Y-77099500D01*
X143923290Y-77988500D02*
X145212000Y-77988500D01*
X140688250Y-76632000D02*
X141069250Y-77013000D01*
X147371000Y-76505000D02*
X149815000Y-76505000D01*
X132287183Y-81959183D02*
X137614366Y-76632000D01*
X137614366Y-76632000D02*
X140688250Y-76632000D01*
X149815000Y-76505000D02*
X151550000Y-74770000D01*
X141682460Y-77013000D02*
X141768960Y-77099500D01*
X143034290Y-77099500D02*
X143923290Y-77988500D01*
X141069250Y-77013000D02*
X141682460Y-77013000D01*
X139890500Y-73729500D02*
X142430500Y-73729500D01*
X138850000Y-74770000D02*
X139890500Y-73729500D01*
X143930000Y-72230000D02*
X145161200Y-70998800D01*
X113450000Y-72230000D02*
X112192000Y-70972000D01*
X132258000Y-71202000D02*
X132258000Y-70840800D01*
X119253200Y-76276400D02*
X119202400Y-76327200D01*
X131230000Y-72230000D02*
X132258000Y-71202000D01*
X112192000Y-70972000D02*
X112192000Y-70942400D01*
X143027600Y-71327600D02*
X143027600Y-70942400D01*
X114681200Y-70998800D02*
X113450000Y-72230000D01*
X143930000Y-72230000D02*
X143027600Y-71327600D01*
X131230000Y-72230000D02*
X130124400Y-71124400D01*
X130124400Y-71124400D02*
X130124400Y-70942400D01*
X118530000Y-74770000D02*
X119253200Y-75493200D01*
X142430500Y-73729500D02*
X143930000Y-72230000D01*
X114681200Y-70998800D02*
X114681200Y-70993200D01*
X149010000Y-72230000D02*
X147904400Y-71124400D01*
X145161200Y-70998800D02*
X145161200Y-70993200D01*
X147904400Y-71124400D02*
X147904400Y-70942400D01*
X149276000Y-84733500D02*
X150113100Y-83896400D01*
X119253200Y-75493200D02*
X119253200Y-76276400D01*
X150113100Y-83896400D02*
X150495200Y-83896400D01*
G04 #@! TA.AperFunction,Conductor*
G36*
X126102814Y-70520185D02*
G01*
X126148569Y-70572989D01*
X126158513Y-70642147D01*
X126153704Y-70662826D01*
X126153499Y-70663454D01*
X126133458Y-70789996D01*
X126133458Y-70790003D01*
X126153500Y-70916551D01*
X126153501Y-70916555D01*
X126168100Y-70945206D01*
X126180996Y-71013875D01*
X126154719Y-71078615D01*
X126097613Y-71118872D01*
X126057615Y-71125500D01*
X126047653Y-71125500D01*
X125846444Y-71163112D01*
X125846441Y-71163112D01*
X125846441Y-71163113D01*
X125655575Y-71237054D01*
X125655569Y-71237057D01*
X125481539Y-71344812D01*
X125481537Y-71344814D01*
X125330269Y-71482712D01*
X125206912Y-71646064D01*
X125121619Y-71817354D01*
X125074116Y-71868591D01*
X125006453Y-71886012D01*
X124940112Y-71864086D01*
X124896158Y-71809775D01*
X124890844Y-71794174D01*
X124883434Y-71766518D01*
X124883429Y-71766507D01*
X124783600Y-71552422D01*
X124783599Y-71552420D01*
X124648113Y-71358926D01*
X124648108Y-71358920D01*
X124481082Y-71191894D01*
X124287578Y-71056399D01*
X124073492Y-70956570D01*
X124073486Y-70956567D01*
X123860000Y-70899364D01*
X123860000Y-71796988D01*
X123802993Y-71764075D01*
X123675826Y-71730000D01*
X123544174Y-71730000D01*
X123417007Y-71764075D01*
X123360000Y-71796988D01*
X123360000Y-70899364D01*
X123359999Y-70899364D01*
X123146513Y-70956567D01*
X123146507Y-70956570D01*
X122932422Y-71056399D01*
X122932420Y-71056400D01*
X122738926Y-71191886D01*
X122738920Y-71191891D01*
X122571891Y-71358920D01*
X122571886Y-71358926D01*
X122436400Y-71552420D01*
X122436399Y-71552422D01*
X122336570Y-71766507D01*
X122336564Y-71766522D01*
X122329154Y-71794177D01*
X122292788Y-71853837D01*
X122229941Y-71884365D01*
X122160566Y-71876070D01*
X122106688Y-71831583D01*
X122098380Y-71817354D01*
X122086838Y-71794174D01*
X122013088Y-71646065D01*
X121953904Y-71567693D01*
X121889730Y-71482712D01*
X121738462Y-71344814D01*
X121738460Y-71344812D01*
X121564430Y-71237057D01*
X121564424Y-71237054D01*
X121413993Y-71178777D01*
X121373556Y-71163112D01*
X121172347Y-71125500D01*
X120967653Y-71125500D01*
X120766444Y-71163112D01*
X120766441Y-71163112D01*
X120766441Y-71163113D01*
X120575575Y-71237054D01*
X120575569Y-71237057D01*
X120401539Y-71344812D01*
X120401537Y-71344814D01*
X120250269Y-71482712D01*
X120126912Y-71646064D01*
X120035673Y-71829295D01*
X119979654Y-72026183D01*
X119960768Y-72229999D01*
X119960768Y-72230000D01*
X119979654Y-72433816D01*
X119979654Y-72433818D01*
X119979655Y-72433821D01*
X120035672Y-72630701D01*
X120035673Y-72630704D01*
X120106642Y-72773228D01*
X120118903Y-72842014D01*
X120092030Y-72906508D01*
X120034554Y-72946236D01*
X119995642Y-72952500D01*
X119753582Y-72952500D01*
X119686543Y-72932815D01*
X119665901Y-72916181D01*
X119566281Y-72816561D01*
X119532796Y-72755238D01*
X119537780Y-72685546D01*
X119542962Y-72673609D01*
X119564328Y-72630701D01*
X119620345Y-72433821D01*
X119639232Y-72230000D01*
X119620345Y-72026179D01*
X119564328Y-71829299D01*
X119473088Y-71646065D01*
X119413904Y-71567693D01*
X119349730Y-71482712D01*
X119198462Y-71344814D01*
X119198460Y-71344812D01*
X119024430Y-71237057D01*
X119024424Y-71237054D01*
X118873993Y-71178777D01*
X118833556Y-71163112D01*
X118632347Y-71125500D01*
X118427653Y-71125500D01*
X118226444Y-71163112D01*
X118226441Y-71163112D01*
X118226441Y-71163113D01*
X118035575Y-71237054D01*
X118035569Y-71237057D01*
X117861539Y-71344812D01*
X117861537Y-71344814D01*
X117710269Y-71482712D01*
X117586912Y-71646064D01*
X117495673Y-71829295D01*
X117439654Y-72026183D01*
X117420768Y-72229999D01*
X117420768Y-72230000D01*
X117439654Y-72433816D01*
X117439654Y-72433818D01*
X117439655Y-72433821D01*
X117495672Y-72630701D01*
X117495673Y-72630704D01*
X117586912Y-72813935D01*
X117710269Y-72977287D01*
X117790430Y-73050363D01*
X117826712Y-73110074D01*
X117824951Y-73179922D01*
X117785708Y-73237729D01*
X117721441Y-73265144D01*
X117706892Y-73266000D01*
X117527082Y-73266000D01*
X117460043Y-73246315D01*
X117439401Y-73229681D01*
X117026281Y-72816561D01*
X116992796Y-72755238D01*
X116997780Y-72685546D01*
X117002962Y-72673609D01*
X117024328Y-72630701D01*
X117080345Y-72433821D01*
X117099232Y-72230000D01*
X117080345Y-72026179D01*
X117024328Y-71829299D01*
X116933088Y-71646065D01*
X116873904Y-71567693D01*
X116809730Y-71482712D01*
X116658462Y-71344814D01*
X116658460Y-71344812D01*
X116484430Y-71237057D01*
X116484424Y-71237054D01*
X116333993Y-71178777D01*
X116293556Y-71163112D01*
X116092347Y-71125500D01*
X115887653Y-71125500D01*
X115686444Y-71163112D01*
X115686441Y-71163112D01*
X115686441Y-71163113D01*
X115495575Y-71237054D01*
X115495569Y-71237057D01*
X115321539Y-71344812D01*
X115321537Y-71344814D01*
X115170269Y-71482712D01*
X115046912Y-71646064D01*
X114961619Y-71817354D01*
X114914116Y-71868591D01*
X114846453Y-71886012D01*
X114780112Y-71864086D01*
X114736158Y-71809775D01*
X114730844Y-71794174D01*
X114723434Y-71766518D01*
X114723429Y-71766507D01*
X114623600Y-71552422D01*
X114623599Y-71552420D01*
X114488113Y-71358926D01*
X114488108Y-71358920D01*
X114321082Y-71191894D01*
X114127578Y-71056399D01*
X113913492Y-70956570D01*
X113913486Y-70956567D01*
X113700000Y-70899364D01*
X113700000Y-71796988D01*
X113642993Y-71764075D01*
X113515826Y-71730000D01*
X113384174Y-71730000D01*
X113257007Y-71764075D01*
X113200000Y-71796988D01*
X113200000Y-70899364D01*
X113199999Y-70899364D01*
X112986513Y-70956567D01*
X112986507Y-70956570D01*
X112772422Y-71056399D01*
X112772420Y-71056400D01*
X112578926Y-71191886D01*
X112578920Y-71191891D01*
X112411891Y-71358920D01*
X112411886Y-71358926D01*
X112276400Y-71552420D01*
X112276399Y-71552422D01*
X112176570Y-71766507D01*
X112176564Y-71766522D01*
X112169154Y-71794177D01*
X112132788Y-71853837D01*
X112069941Y-71884365D01*
X112000566Y-71876070D01*
X111946688Y-71831583D01*
X111938380Y-71817354D01*
X111926838Y-71794174D01*
X111853088Y-71646065D01*
X111793904Y-71567693D01*
X111729730Y-71482712D01*
X111578462Y-71344814D01*
X111578460Y-71344812D01*
X111404430Y-71237057D01*
X111404424Y-71237054D01*
X111253993Y-71178777D01*
X111213556Y-71163112D01*
X111012347Y-71125500D01*
X110807653Y-71125500D01*
X110606444Y-71163112D01*
X110606441Y-71163112D01*
X110606441Y-71163113D01*
X110415575Y-71237054D01*
X110415569Y-71237057D01*
X110241539Y-71344812D01*
X110241537Y-71344814D01*
X110090269Y-71482712D01*
X109966912Y-71646064D01*
X109875673Y-71829295D01*
X109819654Y-72026183D01*
X109800768Y-72229999D01*
X109800768Y-72230000D01*
X109819654Y-72433816D01*
X109819654Y-72433818D01*
X109819655Y-72433821D01*
X109875672Y-72630701D01*
X109875673Y-72630704D01*
X109966912Y-72813935D01*
X110090269Y-72977287D01*
X110170430Y-73050363D01*
X110206712Y-73110074D01*
X110204951Y-73179922D01*
X110165708Y-73237729D01*
X110101441Y-73265144D01*
X110086892Y-73266000D01*
X109514135Y-73266000D01*
X109433257Y-73287671D01*
X109433256Y-73287671D01*
X109433254Y-73287672D01*
X109433251Y-73287673D01*
X109390487Y-73312364D01*
X109390486Y-73312365D01*
X109381648Y-73317467D01*
X109360743Y-73329536D01*
X109061098Y-73629181D01*
X108999775Y-73662666D01*
X108973417Y-73665500D01*
X107494936Y-73665500D01*
X107420698Y-73680266D01*
X107336515Y-73736515D01*
X107280266Y-73820699D01*
X107280264Y-73820703D01*
X107265500Y-73894928D01*
X107265500Y-75645063D01*
X107280266Y-75719301D01*
X107336515Y-75803484D01*
X107370234Y-75826014D01*
X107420699Y-75859734D01*
X107420702Y-75859734D01*
X107420703Y-75859735D01*
X107445666Y-75864700D01*
X107494933Y-75874500D01*
X109245066Y-75874499D01*
X109319301Y-75859734D01*
X109403484Y-75803484D01*
X109459734Y-75719301D01*
X109474500Y-75645067D01*
X109474499Y-74166581D01*
X109494184Y-74099543D01*
X109510813Y-74078906D01*
X109651402Y-73938317D01*
X109712724Y-73904834D01*
X109739082Y-73902000D01*
X109932402Y-73902000D01*
X109999441Y-73921685D01*
X110045196Y-73974489D01*
X110055140Y-74043647D01*
X110031356Y-74100727D01*
X109966912Y-74186064D01*
X109875673Y-74369295D01*
X109819654Y-74566183D01*
X109800768Y-74769999D01*
X109800768Y-74770000D01*
X109819654Y-74973816D01*
X109819654Y-74973818D01*
X109819655Y-74973821D01*
X109875672Y-75170701D01*
X109875673Y-75170704D01*
X109966912Y-75353935D01*
X110090269Y-75517287D01*
X110241537Y-75655185D01*
X110241539Y-75655187D01*
X110415569Y-75762942D01*
X110415575Y-75762945D01*
X110453737Y-75777729D01*
X110606444Y-75836888D01*
X110807653Y-75874500D01*
X110807656Y-75874500D01*
X111012344Y-75874500D01*
X111012347Y-75874500D01*
X111213556Y-75836888D01*
X111364257Y-75778505D01*
X111433878Y-75772643D01*
X111495619Y-75805352D01*
X111496731Y-75806451D01*
X114722939Y-79032659D01*
X114756424Y-79093982D01*
X114751440Y-79163674D01*
X114709568Y-79219607D01*
X114674263Y-79238046D01*
X114572878Y-79271642D01*
X114572875Y-79271643D01*
X114423654Y-79363684D01*
X114299683Y-79487655D01*
X114299680Y-79487659D01*
X114266038Y-79542202D01*
X114214090Y-79588927D01*
X114145128Y-79600148D01*
X114081046Y-79572305D01*
X114054962Y-79542202D01*
X114021319Y-79487659D01*
X114021316Y-79487655D01*
X113897345Y-79363684D01*
X113748124Y-79271643D01*
X113748119Y-79271641D01*
X113581697Y-79216494D01*
X113581690Y-79216493D01*
X113478986Y-79206000D01*
X113204000Y-79206000D01*
X113204000Y-80043500D01*
X116591999Y-80043500D01*
X116591999Y-79906028D01*
X116591998Y-79906013D01*
X116581505Y-79803302D01*
X116526358Y-79636880D01*
X116526356Y-79636875D01*
X116434315Y-79487654D01*
X116418180Y-79471519D01*
X116384695Y-79410196D01*
X116389679Y-79340504D01*
X116431551Y-79284571D01*
X116449558Y-79273357D01*
X116496723Y-79249326D01*
X116587326Y-79158723D01*
X116645498Y-79044555D01*
X116647382Y-79032659D01*
X116665542Y-78918003D01*
X116665542Y-78917996D01*
X116645499Y-78791448D01*
X116645498Y-78791446D01*
X116645498Y-78791445D01*
X116587326Y-78677277D01*
X116587322Y-78677273D01*
X116587321Y-78677271D01*
X116496728Y-78586678D01*
X116496725Y-78586676D01*
X116496723Y-78586674D01*
X116382555Y-78528502D01*
X116382554Y-78528501D01*
X116382551Y-78528500D01*
X116343530Y-78522320D01*
X116280396Y-78492390D01*
X116275248Y-78487528D01*
X113804319Y-76016599D01*
X113770834Y-75955276D01*
X113768000Y-75928918D01*
X113768000Y-75916234D01*
X113787685Y-75849195D01*
X113840489Y-75803440D01*
X113847207Y-75800607D01*
X113884099Y-75786315D01*
X113944427Y-75762944D01*
X114118462Y-75655186D01*
X114269732Y-75517285D01*
X114393088Y-75353935D01*
X114484328Y-75170701D01*
X114540345Y-74973821D01*
X114559232Y-74770000D01*
X114540345Y-74566179D01*
X114484328Y-74369299D01*
X114393088Y-74186065D01*
X114327750Y-74099543D01*
X114269730Y-74022712D01*
X114118462Y-73884814D01*
X114118460Y-73884812D01*
X113944430Y-73777057D01*
X113944424Y-73777054D01*
X113868261Y-73747549D01*
X113812859Y-73704976D01*
X113789269Y-73639209D01*
X113804980Y-73571129D01*
X113855004Y-73522350D01*
X113880963Y-73512147D01*
X113913481Y-73503434D01*
X113913492Y-73503429D01*
X114127578Y-73403600D01*
X114321082Y-73268105D01*
X114488105Y-73101082D01*
X114623600Y-72907578D01*
X114723429Y-72693492D01*
X114723435Y-72693478D01*
X114730844Y-72665826D01*
X114767207Y-72606165D01*
X114830054Y-72575634D01*
X114899429Y-72583928D01*
X114953308Y-72628412D01*
X114961619Y-72642645D01*
X115046912Y-72813935D01*
X115170269Y-72977287D01*
X115321537Y-73115185D01*
X115321539Y-73115187D01*
X115495569Y-73222942D01*
X115495575Y-73222945D01*
X115533737Y-73237729D01*
X115686444Y-73296888D01*
X115887653Y-73334500D01*
X115887656Y-73334500D01*
X116092344Y-73334500D01*
X116092347Y-73334500D01*
X116293556Y-73296888D01*
X116444257Y-73238505D01*
X116513878Y-73232643D01*
X116575619Y-73265352D01*
X116576731Y-73266451D01*
X117148743Y-73838463D01*
X117165994Y-73848423D01*
X117221250Y-73880326D01*
X117221252Y-73880327D01*
X117221253Y-73880327D01*
X117221256Y-73880329D01*
X117289042Y-73898491D01*
X117348701Y-73934855D01*
X117379231Y-73997702D01*
X117370937Y-74067078D01*
X117358526Y-74089385D01*
X117356400Y-74092420D01*
X117356399Y-74092422D01*
X117256570Y-74306507D01*
X117256564Y-74306522D01*
X117249154Y-74334177D01*
X117212788Y-74393837D01*
X117149941Y-74424365D01*
X117080566Y-74416070D01*
X117026688Y-74371583D01*
X117018380Y-74357354D01*
X116997017Y-74314452D01*
X116933088Y-74186065D01*
X116867750Y-74099543D01*
X116809730Y-74022712D01*
X116658462Y-73884814D01*
X116658460Y-73884812D01*
X116484430Y-73777057D01*
X116484424Y-73777054D01*
X116314508Y-73711229D01*
X116293556Y-73703112D01*
X116092347Y-73665500D01*
X115887653Y-73665500D01*
X115686444Y-73703112D01*
X115686441Y-73703112D01*
X115686441Y-73703113D01*
X115495575Y-73777054D01*
X115495569Y-73777057D01*
X115321539Y-73884812D01*
X115321537Y-73884814D01*
X115170269Y-74022712D01*
X115046912Y-74186064D01*
X114955673Y-74369295D01*
X114899654Y-74566183D01*
X114880768Y-74769999D01*
X114880768Y-74770000D01*
X114899654Y-74973816D01*
X114899654Y-74973818D01*
X114899655Y-74973821D01*
X114955672Y-75170701D01*
X114955673Y-75170704D01*
X115046912Y-75353935D01*
X115170269Y-75517287D01*
X115321537Y-75655185D01*
X115321539Y-75655187D01*
X115495569Y-75762942D01*
X115495575Y-75762945D01*
X115533737Y-75777729D01*
X115686444Y-75836888D01*
X115887653Y-75874500D01*
X115887656Y-75874500D01*
X116092344Y-75874500D01*
X116092347Y-75874500D01*
X116293556Y-75836888D01*
X116444257Y-75778505D01*
X116513878Y-75772643D01*
X116575619Y-75805352D01*
X116576731Y-75806451D01*
X122778099Y-82007819D01*
X122811584Y-82069142D01*
X122806600Y-82138834D01*
X122764728Y-82194767D01*
X122699264Y-82219184D01*
X122690418Y-82219500D01*
X116470499Y-82219500D01*
X116403460Y-82199815D01*
X116357705Y-82147011D01*
X116346499Y-82095500D01*
X116346499Y-81982748D01*
X116346499Y-81982745D01*
X116340040Y-81922658D01*
X116340039Y-81922655D01*
X116289344Y-81786738D01*
X116289343Y-81786737D01*
X116289342Y-81786733D01*
X116233734Y-81712448D01*
X116202404Y-81670595D01*
X116105796Y-81598277D01*
X116086267Y-81583658D01*
X116086264Y-81583657D01*
X116086263Y-81583656D01*
X116070584Y-81577808D01*
X116014652Y-81535935D01*
X115990238Y-81470470D01*
X116005092Y-81402197D01*
X116054499Y-81352794D01*
X116074919Y-81343922D01*
X116161117Y-81315359D01*
X116161124Y-81315356D01*
X116310345Y-81223315D01*
X116434315Y-81099345D01*
X116526356Y-80950124D01*
X116526358Y-80950119D01*
X116581505Y-80783697D01*
X116581506Y-80783690D01*
X116591999Y-80680986D01*
X116592000Y-80680973D01*
X116592000Y-80543500D01*
X111729001Y-80543500D01*
X111729001Y-80680986D01*
X111739494Y-80783697D01*
X111794641Y-80950119D01*
X111794643Y-80950124D01*
X111886684Y-81099345D01*
X112010654Y-81223315D01*
X112159875Y-81315356D01*
X112159882Y-81315359D01*
X112246081Y-81343922D01*
X112303526Y-81383694D01*
X112330350Y-81448210D01*
X112318035Y-81516985D01*
X112270493Y-81568186D01*
X112250416Y-81577808D01*
X112234736Y-81583656D01*
X112234730Y-81583660D01*
X112118595Y-81670595D01*
X112055155Y-81755344D01*
X112031658Y-81786733D01*
X111980960Y-81922658D01*
X111980959Y-81922662D01*
X111974500Y-81982728D01*
X111974500Y-82095500D01*
X111954815Y-82162539D01*
X111902011Y-82208294D01*
X111850500Y-82219500D01*
X111427500Y-82219500D01*
X111360461Y-82199815D01*
X111314706Y-82147011D01*
X111303500Y-82095500D01*
X111303500Y-82009811D01*
X111309569Y-81971493D01*
X111311499Y-81965552D01*
X111331542Y-81839003D01*
X111331542Y-81838996D01*
X111311499Y-81712448D01*
X111311498Y-81712446D01*
X111311498Y-81712445D01*
X111253326Y-81598277D01*
X111253322Y-81598273D01*
X111253321Y-81598271D01*
X111162728Y-81507678D01*
X111162725Y-81507676D01*
X111162723Y-81507674D01*
X111048555Y-81449502D01*
X111048554Y-81449501D01*
X111048551Y-81449500D01*
X110922003Y-81429458D01*
X110921997Y-81429458D01*
X110795448Y-81449500D01*
X110747142Y-81474114D01*
X110681277Y-81507674D01*
X110681276Y-81507675D01*
X110681271Y-81507678D01*
X110590678Y-81598271D01*
X110590675Y-81598276D01*
X110532500Y-81712448D01*
X110512458Y-81838996D01*
X110512458Y-81839003D01*
X110532500Y-81965552D01*
X110534431Y-81971493D01*
X110540500Y-82009811D01*
X110540500Y-82684191D01*
X110534430Y-82722512D01*
X110532500Y-82728449D01*
X110512458Y-82854996D01*
X110512458Y-82855003D01*
X110532500Y-82981551D01*
X110532501Y-82981554D01*
X110532502Y-82981555D01*
X110590674Y-83095723D01*
X110590676Y-83095725D01*
X110590678Y-83095728D01*
X110681271Y-83186321D01*
X110681273Y-83186322D01*
X110681277Y-83186326D01*
X110795445Y-83244498D01*
X110795446Y-83244498D01*
X110795448Y-83244499D01*
X110921997Y-83264542D01*
X110922000Y-83264542D01*
X110922003Y-83264542D01*
X111048551Y-83244499D01*
X111048552Y-83244498D01*
X111048555Y-83244498D01*
X111162723Y-83186326D01*
X111253326Y-83095723D01*
X111276517Y-83050206D01*
X111324491Y-82999410D01*
X111387003Y-82982500D01*
X111993716Y-82982500D01*
X112060755Y-83002185D01*
X112092983Y-83032190D01*
X112118594Y-83066403D01*
X112157758Y-83095720D01*
X112234733Y-83153342D01*
X112370658Y-83204040D01*
X112430745Y-83210500D01*
X113477254Y-83210499D01*
X113537342Y-83204040D01*
X113673267Y-83153342D01*
X113789404Y-83066404D01*
X113789405Y-83066403D01*
X113815017Y-83032190D01*
X113870950Y-82990318D01*
X113914284Y-82982500D01*
X114406716Y-82982500D01*
X114473755Y-83002185D01*
X114505983Y-83032190D01*
X114531594Y-83066403D01*
X114570758Y-83095720D01*
X114647733Y-83153342D01*
X114783658Y-83204040D01*
X114843745Y-83210500D01*
X115890254Y-83210499D01*
X115950342Y-83204040D01*
X116086267Y-83153342D01*
X116202404Y-83066404D01*
X116202405Y-83066403D01*
X116228017Y-83032190D01*
X116283950Y-82990318D01*
X116327284Y-82982500D01*
X135169424Y-82982500D01*
X135236463Y-83002185D01*
X135282218Y-83054989D01*
X135292162Y-83124147D01*
X135289199Y-83138592D01*
X135286145Y-83149988D01*
X135286145Y-83657209D01*
X135272630Y-83713501D01*
X135262826Y-83732744D01*
X135214645Y-83827303D01*
X135194603Y-83953851D01*
X135194603Y-83953858D01*
X135214645Y-84080406D01*
X135214646Y-84080409D01*
X135214647Y-84080410D01*
X135272819Y-84194578D01*
X135272821Y-84194580D01*
X135272823Y-84194583D01*
X135363416Y-84285176D01*
X135363418Y-84285177D01*
X135363422Y-84285181D01*
X135477590Y-84343353D01*
X135477591Y-84343353D01*
X135477593Y-84343354D01*
X135604142Y-84363397D01*
X135604145Y-84363397D01*
X135604148Y-84363397D01*
X135730696Y-84343354D01*
X135730697Y-84343353D01*
X135730700Y-84343353D01*
X135844868Y-84285181D01*
X135935471Y-84194578D01*
X135993643Y-84080410D01*
X135999187Y-84045407D01*
X136013687Y-83953858D01*
X136013687Y-83953851D01*
X135993644Y-83827303D01*
X135993643Y-83827301D01*
X135993643Y-83827300D01*
X135935659Y-83713501D01*
X135922145Y-83657209D01*
X135922145Y-83374937D01*
X135941830Y-83307898D01*
X135958464Y-83287256D01*
X136884901Y-82360819D01*
X136946224Y-82327334D01*
X136972582Y-82324500D01*
X139739988Y-82324500D01*
X139807027Y-82344185D01*
X139852782Y-82396989D01*
X139862461Y-82429103D01*
X139869500Y-82473551D01*
X139869501Y-82473554D01*
X139869502Y-82473555D01*
X139927674Y-82587723D01*
X139927676Y-82587725D01*
X139927678Y-82587728D01*
X140018271Y-82678321D01*
X140018273Y-82678322D01*
X140018277Y-82678326D01*
X140132445Y-82736498D01*
X140145374Y-82738545D01*
X140208509Y-82768472D01*
X140245443Y-82827782D01*
X140248452Y-82841615D01*
X140250502Y-82854555D01*
X140308674Y-82968723D01*
X140308676Y-82968725D01*
X140308678Y-82968728D01*
X140399271Y-83059321D01*
X140399273Y-83059322D01*
X140399277Y-83059326D01*
X140513445Y-83117498D01*
X140513446Y-83117498D01*
X140513448Y-83117499D01*
X140639997Y-83137542D01*
X140640000Y-83137542D01*
X140640003Y-83137542D01*
X140766551Y-83117499D01*
X140766552Y-83117498D01*
X140766555Y-83117498D01*
X140880723Y-83059326D01*
X140916446Y-83023603D01*
X140978227Y-82961823D01*
X140979464Y-82963060D01*
X141025640Y-82927451D01*
X141070633Y-82919000D01*
X141511574Y-82919000D01*
X141578613Y-82938685D01*
X141624368Y-82991489D01*
X141634046Y-83023597D01*
X141647502Y-83108555D01*
X141705674Y-83222723D01*
X141705676Y-83222725D01*
X141705678Y-83222728D01*
X141796271Y-83313321D01*
X141796273Y-83313322D01*
X141796277Y-83313326D01*
X141910445Y-83371498D01*
X141910446Y-83371498D01*
X141910448Y-83371499D01*
X142036997Y-83391542D01*
X142037000Y-83391542D01*
X142037003Y-83391542D01*
X142163551Y-83371499D01*
X142163552Y-83371498D01*
X142163555Y-83371498D01*
X142277353Y-83313514D01*
X142333646Y-83300000D01*
X143064403Y-83300000D01*
X143064405Y-83300000D01*
X143145284Y-83278329D01*
X143217797Y-83236463D01*
X143879941Y-82574319D01*
X143941264Y-82540834D01*
X143967622Y-82538000D01*
X145550354Y-82538000D01*
X145606646Y-82551514D01*
X145720445Y-82609498D01*
X145720446Y-82609498D01*
X145720448Y-82609499D01*
X145846997Y-82629542D01*
X145847000Y-82629542D01*
X145847003Y-82629542D01*
X145973551Y-82609499D01*
X145973553Y-82609498D01*
X145973555Y-82609498D01*
X146054206Y-82568403D01*
X146122873Y-82555507D01*
X146187614Y-82581782D01*
X146227871Y-82638888D01*
X146234500Y-82678888D01*
X146234500Y-82785225D01*
X146260499Y-82882254D01*
X146295609Y-82943066D01*
X146310724Y-82969247D01*
X146310726Y-82969250D01*
X146310727Y-82969251D01*
X147372995Y-84031518D01*
X147395798Y-84062902D01*
X147420674Y-84111723D01*
X147420678Y-84111728D01*
X147426355Y-84117405D01*
X147459840Y-84178728D01*
X147454856Y-84248420D01*
X147449159Y-84261381D01*
X147389000Y-84379447D01*
X147389000Y-84379448D01*
X147368958Y-84505996D01*
X147368958Y-84505997D01*
X147372418Y-84527844D01*
X147363462Y-84597137D01*
X147318465Y-84650589D01*
X147306241Y-84657725D01*
X147257276Y-84682674D01*
X147257271Y-84682678D01*
X147166678Y-84773271D01*
X147166675Y-84773276D01*
X147166674Y-84773277D01*
X147137011Y-84831493D01*
X147108500Y-84887448D01*
X147088458Y-85013996D01*
X147088458Y-85014003D01*
X147108500Y-85140551D01*
X147108501Y-85140554D01*
X147108502Y-85140555D01*
X147166484Y-85254351D01*
X147180000Y-85310645D01*
X147180000Y-86024474D01*
X147160945Y-86089365D01*
X147161100Y-86089455D01*
X147160732Y-86090091D01*
X147160315Y-86091513D01*
X147158058Y-86094722D01*
X147115172Y-86169002D01*
X147107993Y-86195798D01*
X147107992Y-86195800D01*
X147093500Y-86249885D01*
X147093500Y-90400208D01*
X147073815Y-90467247D01*
X147057181Y-90487889D01*
X145732889Y-91812181D01*
X145671566Y-91845666D01*
X145645208Y-91848500D01*
X127302103Y-91848500D01*
X127235064Y-91828815D01*
X127203149Y-91799227D01*
X127090176Y-91649628D01*
X126942332Y-91514851D01*
X126942331Y-91514850D01*
X126772236Y-91409531D01*
X126772235Y-91409530D01*
X126626857Y-91353211D01*
X126571456Y-91310638D01*
X126547865Y-91244871D01*
X126563576Y-91176791D01*
X126613600Y-91128012D01*
X126639558Y-91117809D01*
X126743900Y-91089851D01*
X126743909Y-91089847D01*
X126954030Y-90991867D01*
X127032423Y-90936975D01*
X126357172Y-90261725D01*
X126453044Y-90236037D01*
X126549956Y-90180084D01*
X126629084Y-90100956D01*
X126685037Y-90004044D01*
X126710725Y-89908173D01*
X127385975Y-90583423D01*
X127440867Y-90505030D01*
X127538847Y-90294909D01*
X127538851Y-90294900D01*
X127598852Y-90070968D01*
X127598854Y-90070958D01*
X127619061Y-89840000D01*
X127619061Y-89839999D01*
X127598854Y-89609041D01*
X127598852Y-89609031D01*
X127566494Y-89488267D01*
X140599284Y-89488267D01*
X140758053Y-89543823D01*
X140758058Y-89543824D01*
X140925996Y-89562746D01*
X140926004Y-89562746D01*
X141093938Y-89543824D01*
X141093943Y-89543823D01*
X141252713Y-89488267D01*
X141252714Y-89488267D01*
X142599284Y-89488267D01*
X142758053Y-89543823D01*
X142758058Y-89543824D01*
X142925996Y-89562746D01*
X142926004Y-89562746D01*
X143093938Y-89543824D01*
X143093943Y-89543823D01*
X143252713Y-89488267D01*
X143252714Y-89488267D01*
X144599284Y-89488267D01*
X144758053Y-89543823D01*
X144758058Y-89543824D01*
X144925996Y-89562746D01*
X144926004Y-89562746D01*
X145093938Y-89543824D01*
X145093943Y-89543823D01*
X145252713Y-89488267D01*
X145252714Y-89488267D01*
X144926001Y-89161554D01*
X144926000Y-89161554D01*
X144599284Y-89488267D01*
X143252714Y-89488267D01*
X142926001Y-89161554D01*
X142926000Y-89161554D01*
X142599284Y-89488267D01*
X141252714Y-89488267D01*
X140926001Y-89161554D01*
X140926000Y-89161554D01*
X140599284Y-89488267D01*
X127566494Y-89488267D01*
X127538851Y-89385099D01*
X127538847Y-89385090D01*
X127440868Y-89174972D01*
X127385974Y-89096576D01*
X126710725Y-89771826D01*
X126685037Y-89675956D01*
X126629084Y-89579044D01*
X126549956Y-89499916D01*
X126453044Y-89443963D01*
X126357171Y-89418274D01*
X126967450Y-88807996D01*
X140171254Y-88807996D01*
X140171254Y-88808003D01*
X140190176Y-88975944D01*
X140245731Y-89134713D01*
X140572446Y-88808000D01*
X140552555Y-88788109D01*
X140826000Y-88788109D01*
X140826000Y-88827891D01*
X140841224Y-88864645D01*
X140869355Y-88892776D01*
X140906109Y-88908000D01*
X140945891Y-88908000D01*
X140982645Y-88892776D01*
X141010776Y-88864645D01*
X141026000Y-88827891D01*
X141026000Y-88808000D01*
X141279554Y-88808000D01*
X141606267Y-89134714D01*
X141606267Y-89134713D01*
X141661823Y-88975943D01*
X141661824Y-88975938D01*
X141680746Y-88808003D01*
X141680746Y-88807997D01*
X141667013Y-88686117D01*
X141679067Y-88617295D01*
X141726416Y-88565916D01*
X141794026Y-88548291D01*
X141804117Y-88549013D01*
X141925997Y-88562746D01*
X141926002Y-88562746D01*
X142047882Y-88549013D01*
X142116704Y-88561067D01*
X142168083Y-88608416D01*
X142185708Y-88676026D01*
X142184986Y-88686116D01*
X142171254Y-88807996D01*
X142171254Y-88808003D01*
X142190176Y-88975944D01*
X142245731Y-89134713D01*
X142572446Y-88808000D01*
X142552555Y-88788109D01*
X142826000Y-88788109D01*
X142826000Y-88827891D01*
X142841224Y-88864645D01*
X142869355Y-88892776D01*
X142906109Y-88908000D01*
X142945891Y-88908000D01*
X142982645Y-88892776D01*
X143010776Y-88864645D01*
X143026000Y-88827891D01*
X143026000Y-88808000D01*
X143279554Y-88808000D01*
X143606267Y-89134714D01*
X143606267Y-89134713D01*
X143661823Y-88975943D01*
X143661824Y-88975938D01*
X143680746Y-88808003D01*
X143680746Y-88807997D01*
X143667013Y-88686117D01*
X143679067Y-88617295D01*
X143726416Y-88565916D01*
X143794026Y-88548291D01*
X143804117Y-88549013D01*
X143925997Y-88562746D01*
X143926002Y-88562746D01*
X144047882Y-88549013D01*
X144116704Y-88561067D01*
X144168083Y-88608416D01*
X144185708Y-88676026D01*
X144184986Y-88686116D01*
X144171254Y-88807996D01*
X144171254Y-88808003D01*
X144190176Y-88975944D01*
X144245731Y-89134713D01*
X144572446Y-88808000D01*
X144552555Y-88788109D01*
X144826000Y-88788109D01*
X144826000Y-88827891D01*
X144841224Y-88864645D01*
X144869355Y-88892776D01*
X144906109Y-88908000D01*
X144945891Y-88908000D01*
X144982645Y-88892776D01*
X145010776Y-88864645D01*
X145026000Y-88827891D01*
X145026000Y-88807999D01*
X145279554Y-88807999D01*
X145279554Y-88808001D01*
X145606267Y-89134714D01*
X145606267Y-89134713D01*
X145661823Y-88975943D01*
X145661824Y-88975938D01*
X145680746Y-88808003D01*
X145680746Y-88807996D01*
X145661824Y-88640058D01*
X145661823Y-88640053D01*
X145606267Y-88481285D01*
X145606267Y-88481284D01*
X145279554Y-88807999D01*
X145026000Y-88807999D01*
X145026000Y-88788109D01*
X145010776Y-88751355D01*
X144982645Y-88723224D01*
X144945891Y-88708000D01*
X144906109Y-88708000D01*
X144869355Y-88723224D01*
X144841224Y-88751355D01*
X144826000Y-88788109D01*
X144552555Y-88788109D01*
X143926000Y-88161554D01*
X143279554Y-88808000D01*
X143026000Y-88808000D01*
X143026000Y-88788109D01*
X143010776Y-88751355D01*
X142982645Y-88723224D01*
X142945891Y-88708000D01*
X142906109Y-88708000D01*
X142869355Y-88723224D01*
X142841224Y-88751355D01*
X142826000Y-88788109D01*
X142552555Y-88788109D01*
X141926000Y-88161554D01*
X141279554Y-88808000D01*
X141026000Y-88808000D01*
X141026000Y-88788109D01*
X141010776Y-88751355D01*
X140982645Y-88723224D01*
X140945891Y-88708000D01*
X140906109Y-88708000D01*
X140869355Y-88723224D01*
X140841224Y-88751355D01*
X140826000Y-88788109D01*
X140552555Y-88788109D01*
X140245731Y-88481285D01*
X140190176Y-88640055D01*
X140171254Y-88807996D01*
X126967450Y-88807996D01*
X127032423Y-88743023D01*
X126954031Y-88688133D01*
X126954029Y-88688132D01*
X126743909Y-88590152D01*
X126743900Y-88590148D01*
X126519968Y-88530147D01*
X126519958Y-88530145D01*
X126289001Y-88509939D01*
X126288999Y-88509939D01*
X126058041Y-88530145D01*
X126058031Y-88530147D01*
X125834099Y-88590148D01*
X125834090Y-88590152D01*
X125623974Y-88688131D01*
X125545576Y-88743024D01*
X126220827Y-89418274D01*
X126124956Y-89443963D01*
X126028044Y-89499916D01*
X125948916Y-89579044D01*
X125892963Y-89675956D01*
X125867274Y-89771827D01*
X125192024Y-89096576D01*
X125137131Y-89174974D01*
X125039152Y-89385090D01*
X125039148Y-89385099D01*
X124979147Y-89609031D01*
X124979145Y-89609041D01*
X124958939Y-89839999D01*
X124958939Y-89840000D01*
X124979145Y-90070958D01*
X124979147Y-90070968D01*
X125039148Y-90294900D01*
X125039152Y-90294909D01*
X125137132Y-90505029D01*
X125137133Y-90505031D01*
X125192023Y-90583422D01*
X125192023Y-90583423D01*
X125867274Y-89908172D01*
X125892963Y-90004044D01*
X125948916Y-90100956D01*
X126028044Y-90180084D01*
X126124956Y-90236037D01*
X126220827Y-90261725D01*
X125545575Y-90936975D01*
X125623973Y-90991868D01*
X125834090Y-91089847D01*
X125834099Y-91089851D01*
X125938441Y-91117809D01*
X125998102Y-91154174D01*
X126028631Y-91217020D01*
X126020337Y-91286396D01*
X125975851Y-91340274D01*
X125951142Y-91353211D01*
X125805764Y-91409530D01*
X125805763Y-91409531D01*
X125635667Y-91514851D01*
X125487823Y-91649628D01*
X125367258Y-91809281D01*
X125278088Y-91988358D01*
X125278083Y-91988371D01*
X125223333Y-92180793D01*
X125204875Y-92379999D01*
X125204875Y-92380000D01*
X125223333Y-92579206D01*
X125278083Y-92771628D01*
X125278088Y-92771641D01*
X125367258Y-92950718D01*
X125487822Y-93110370D01*
X125635669Y-93245150D01*
X125805764Y-93350469D01*
X125992315Y-93422739D01*
X126188970Y-93459500D01*
X126188972Y-93459500D01*
X126389028Y-93459500D01*
X126389030Y-93459500D01*
X126585685Y-93422739D01*
X126772236Y-93350469D01*
X126942331Y-93245150D01*
X127090178Y-93110370D01*
X127210742Y-92950718D01*
X127299916Y-92771631D01*
X127354666Y-92579207D01*
X127354666Y-92579206D01*
X127355987Y-92574565D01*
X127393267Y-92515472D01*
X127456576Y-92485915D01*
X127475253Y-92484500D01*
X142644951Y-92484500D01*
X142711990Y-92504185D01*
X142757745Y-92556989D01*
X142767689Y-92626147D01*
X142767432Y-92627844D01*
X142766458Y-92634000D01*
X142766458Y-92634002D01*
X142766458Y-92634003D01*
X142786500Y-92760551D01*
X142786501Y-92760554D01*
X142786502Y-92760555D01*
X142844674Y-92874723D01*
X142844676Y-92874725D01*
X142844678Y-92874728D01*
X142935271Y-92965321D01*
X142935273Y-92965322D01*
X142935277Y-92965326D01*
X143049445Y-93023498D01*
X143049446Y-93023498D01*
X143049448Y-93023499D01*
X143175997Y-93043542D01*
X143176000Y-93043542D01*
X143176003Y-93043542D01*
X143302551Y-93023499D01*
X143302552Y-93023498D01*
X143302555Y-93023498D01*
X143416353Y-92965514D01*
X143472646Y-92952000D01*
X143885918Y-92952000D01*
X143952957Y-92971685D01*
X143973599Y-92988319D01*
X144654528Y-93669248D01*
X144688013Y-93730571D01*
X144689320Y-93737530D01*
X144695500Y-93776551D01*
X144695501Y-93776554D01*
X144695502Y-93776555D01*
X144753674Y-93890723D01*
X144753676Y-93890725D01*
X144753678Y-93890728D01*
X144844271Y-93981321D01*
X144844273Y-93981322D01*
X144844277Y-93981326D01*
X144958445Y-94039498D01*
X144958446Y-94039498D01*
X144958448Y-94039499D01*
X145084997Y-94059542D01*
X145085000Y-94059542D01*
X145085003Y-94059542D01*
X145211551Y-94039499D01*
X145211552Y-94039498D01*
X145211555Y-94039498D01*
X145325723Y-93981326D01*
X145416326Y-93890723D01*
X145474498Y-93776555D01*
X145481781Y-93730571D01*
X145494542Y-93650003D01*
X145494542Y-93649996D01*
X145474499Y-93523448D01*
X145474498Y-93523446D01*
X145474498Y-93523445D01*
X145416326Y-93409277D01*
X145416322Y-93409273D01*
X145416321Y-93409271D01*
X145325728Y-93318678D01*
X145325725Y-93318676D01*
X145325723Y-93318674D01*
X145211555Y-93260502D01*
X145211554Y-93260501D01*
X145211551Y-93260500D01*
X145172530Y-93254320D01*
X145109396Y-93224390D01*
X145104248Y-93219528D01*
X144580901Y-92696181D01*
X144547416Y-92634858D01*
X144552400Y-92565166D01*
X144594272Y-92509233D01*
X144659736Y-92484816D01*
X144668582Y-92484500D01*
X145327988Y-92484500D01*
X145395027Y-92504185D01*
X145440782Y-92556989D01*
X145450461Y-92589103D01*
X145457500Y-92633551D01*
X145457501Y-92633554D01*
X145457502Y-92633555D01*
X145515674Y-92747723D01*
X145515676Y-92747725D01*
X145515678Y-92747728D01*
X145606271Y-92838321D01*
X145606273Y-92838322D01*
X145606277Y-92838326D01*
X145720445Y-92896498D01*
X145720446Y-92896498D01*
X145720448Y-92896499D01*
X145846997Y-92916542D01*
X145847000Y-92916542D01*
X145847003Y-92916542D01*
X145973551Y-92896499D01*
X145973552Y-92896498D01*
X145973555Y-92896498D01*
X146087723Y-92838326D01*
X146178326Y-92747723D01*
X146236498Y-92633555D01*
X146242678Y-92594530D01*
X146272605Y-92531399D01*
X146277452Y-92526266D01*
X147919963Y-90883757D01*
X147961828Y-90811244D01*
X147961829Y-90811243D01*
X147983500Y-90730365D01*
X147983500Y-86580042D01*
X148003185Y-86513003D01*
X148019819Y-86492361D01*
X148238319Y-86273861D01*
X148299642Y-86240376D01*
X148369334Y-86245360D01*
X148425267Y-86287232D01*
X148449684Y-86352696D01*
X148450000Y-86361542D01*
X148450000Y-86392069D01*
X148442182Y-86435403D01*
X148389799Y-86575842D01*
X148383500Y-86634426D01*
X148383500Y-87203553D01*
X148383501Y-87203562D01*
X148389800Y-87262159D01*
X148439239Y-87394709D01*
X148439244Y-87394718D01*
X148460198Y-87422709D01*
X148524026Y-87507974D01*
X148637285Y-87592758D01*
X148726835Y-87626158D01*
X148782767Y-87668028D01*
X148807184Y-87733493D01*
X148807500Y-87742339D01*
X148807500Y-87746660D01*
X148787815Y-87813699D01*
X148735011Y-87859454D01*
X148726834Y-87862841D01*
X148637290Y-87896239D01*
X148637281Y-87896244D01*
X148524026Y-87981026D01*
X148439244Y-88094281D01*
X148439241Y-88094288D01*
X148389800Y-88226839D01*
X148389800Y-88226841D01*
X148383500Y-88285426D01*
X148383500Y-88854553D01*
X148383501Y-88854562D01*
X148389800Y-88913159D01*
X148439239Y-89045709D01*
X148439241Y-89045713D01*
X148439242Y-89045715D01*
X148524026Y-89158974D01*
X148637285Y-89243758D01*
X148769843Y-89293200D01*
X148828443Y-89299500D01*
X149522556Y-89299499D01*
X149581157Y-89293200D01*
X149687167Y-89253659D01*
X149756857Y-89248674D01*
X149818180Y-89282159D01*
X149851666Y-89343482D01*
X149854500Y-89369841D01*
X149854500Y-89665481D01*
X149845063Y-89712929D01*
X149843272Y-89717252D01*
X149821600Y-89798135D01*
X149821600Y-89881864D01*
X149843272Y-89962747D01*
X149843273Y-89962749D01*
X149867116Y-90004044D01*
X149885137Y-90035257D01*
X149885139Y-90035259D01*
X151080681Y-91230801D01*
X151114166Y-91292124D01*
X151117000Y-91318482D01*
X151117000Y-96764000D01*
X151097315Y-96831039D01*
X151044511Y-96876794D01*
X150993000Y-96888000D01*
X150797404Y-96888000D01*
X150730365Y-96868315D01*
X150684610Y-96815511D01*
X150674115Y-96750742D01*
X150676499Y-96728568D01*
X150676499Y-96728562D01*
X150676500Y-96728557D01*
X150676499Y-96159444D01*
X150670200Y-96100843D01*
X150633594Y-96002699D01*
X150620760Y-95968290D01*
X150620759Y-95968288D01*
X150620758Y-95968285D01*
X150535974Y-95855026D01*
X150422715Y-95770242D01*
X150360061Y-95746873D01*
X150290159Y-95720800D01*
X150231565Y-95714500D01*
X149637446Y-95714500D01*
X149637437Y-95714501D01*
X149578840Y-95720800D01*
X149446290Y-95770239D01*
X149446281Y-95770244D01*
X149333026Y-95855026D01*
X149248244Y-95968281D01*
X149248241Y-95968288D01*
X149198800Y-96100839D01*
X149198800Y-96100841D01*
X149192500Y-96159426D01*
X149192500Y-96728553D01*
X149192501Y-96728562D01*
X149198800Y-96787159D01*
X149248239Y-96919709D01*
X149248241Y-96919713D01*
X149248242Y-96919715D01*
X149333026Y-97032974D01*
X149443309Y-97115530D01*
X149485178Y-97171461D01*
X149490163Y-97241152D01*
X149456679Y-97302476D01*
X149443308Y-97314062D01*
X149356524Y-97379027D01*
X149271744Y-97492281D01*
X149271741Y-97492288D01*
X149222300Y-97624839D01*
X149222300Y-97624841D01*
X149216000Y-97683426D01*
X149216000Y-98252553D01*
X149216001Y-98252562D01*
X149222300Y-98311159D01*
X149271739Y-98443709D01*
X149271741Y-98443713D01*
X149271742Y-98443715D01*
X149356526Y-98556974D01*
X149469785Y-98641758D01*
X149602343Y-98691200D01*
X149660943Y-98697500D01*
X150255056Y-98697499D01*
X150313657Y-98691200D01*
X150446215Y-98641758D01*
X150559474Y-98556974D01*
X150644258Y-98443715D01*
X150693700Y-98311157D01*
X150697185Y-98278734D01*
X150699999Y-98252573D01*
X150699999Y-98252562D01*
X150700000Y-98252557D01*
X150699999Y-97683444D01*
X150699004Y-97674184D01*
X150697614Y-97661251D01*
X150710022Y-97592492D01*
X150757634Y-97541356D01*
X150820904Y-97524000D01*
X151349863Y-97524000D01*
X151349865Y-97524000D01*
X151430744Y-97502329D01*
X151442138Y-97495749D01*
X151484735Y-97480664D01*
X151561555Y-97468498D01*
X151675723Y-97410326D01*
X151766326Y-97319723D01*
X151824498Y-97205555D01*
X151829575Y-97173499D01*
X151844542Y-97079003D01*
X151844542Y-97078996D01*
X151824499Y-96952448D01*
X151824498Y-96952446D01*
X151824498Y-96952445D01*
X151766514Y-96838646D01*
X151753000Y-96782354D01*
X151753000Y-96383718D01*
X160022500Y-96383718D01*
X160022500Y-96616281D01*
X160058881Y-96845983D01*
X160058881Y-96845986D01*
X160130745Y-97067160D01*
X160201261Y-97205555D01*
X160236328Y-97274379D01*
X160373026Y-97462527D01*
X160537473Y-97626974D01*
X160725621Y-97763672D01*
X160850034Y-97827063D01*
X160932839Y-97869254D01*
X161154014Y-97941118D01*
X161154015Y-97941118D01*
X161154018Y-97941119D01*
X161383718Y-97977500D01*
X161383719Y-97977500D01*
X161616281Y-97977500D01*
X161616282Y-97977500D01*
X161845982Y-97941119D01*
X161845985Y-97941118D01*
X161845986Y-97941118D01*
X162067160Y-97869254D01*
X162067160Y-97869253D01*
X162067163Y-97869253D01*
X162274379Y-97763672D01*
X162462527Y-97626974D01*
X162626974Y-97462527D01*
X162763672Y-97274379D01*
X162869253Y-97067163D01*
X162941119Y-96845982D01*
X162977500Y-96616282D01*
X162977500Y-96383718D01*
X162941119Y-96154018D01*
X162941118Y-96154014D01*
X162941118Y-96154013D01*
X162869254Y-95932839D01*
X162861956Y-95918515D01*
X162763672Y-95725621D01*
X162626974Y-95537473D01*
X162462527Y-95373026D01*
X162274379Y-95236328D01*
X162067160Y-95130745D01*
X161845985Y-95058881D01*
X161673707Y-95031595D01*
X161616282Y-95022500D01*
X161383718Y-95022500D01*
X161307151Y-95034627D01*
X161154016Y-95058881D01*
X161154013Y-95058881D01*
X160932839Y-95130745D01*
X160725620Y-95236328D01*
X160618275Y-95314319D01*
X160537473Y-95373026D01*
X160537471Y-95373028D01*
X160537470Y-95373028D01*
X160373028Y-95537470D01*
X160373028Y-95537471D01*
X160373026Y-95537473D01*
X160321599Y-95608256D01*
X160236328Y-95725620D01*
X160130745Y-95932839D01*
X160058881Y-96154013D01*
X160058881Y-96154016D01*
X160022500Y-96383718D01*
X151753000Y-96383718D01*
X151753000Y-91093537D01*
X151753000Y-91093535D01*
X151731329Y-91012657D01*
X151689463Y-90940143D01*
X151630257Y-90880937D01*
X150526819Y-89777499D01*
X150493334Y-89716176D01*
X150490500Y-89689818D01*
X150490500Y-89668999D01*
X150510185Y-89601960D01*
X150562989Y-89556205D01*
X150614499Y-89544999D01*
X151150500Y-89544999D01*
X151249640Y-89544999D01*
X151249654Y-89544998D01*
X151350652Y-89534680D01*
X151514300Y-89480453D01*
X151514311Y-89480448D01*
X151661034Y-89389947D01*
X151661038Y-89389944D01*
X151782944Y-89268038D01*
X151782947Y-89268034D01*
X151873448Y-89121311D01*
X151873453Y-89121300D01*
X151927680Y-88957652D01*
X151937999Y-88856654D01*
X151938000Y-88856641D01*
X151938000Y-88820000D01*
X151150500Y-88820000D01*
X151150500Y-89544999D01*
X150614499Y-89544999D01*
X150650500Y-89544998D01*
X150650500Y-88785729D01*
X157831500Y-88785729D01*
X157831500Y-91082270D01*
X157837959Y-91142338D01*
X157837962Y-91142349D01*
X157888655Y-91278261D01*
X157888656Y-91278264D01*
X157888658Y-91278267D01*
X157899031Y-91292124D01*
X157975595Y-91394404D01*
X158033443Y-91437707D01*
X158091733Y-91481342D01*
X158091737Y-91481343D01*
X158091738Y-91481344D01*
X158227650Y-91532037D01*
X158227653Y-91532037D01*
X158227659Y-91532040D01*
X158240047Y-91533371D01*
X158287729Y-91538499D01*
X158287746Y-91538500D01*
X160584254Y-91538500D01*
X160584270Y-91538499D01*
X160625757Y-91534037D01*
X160644341Y-91532040D01*
X160780267Y-91481342D01*
X160896404Y-91394404D01*
X160983342Y-91278267D01*
X161034040Y-91142341D01*
X161036037Y-91123757D01*
X161040499Y-91082270D01*
X161040500Y-91082253D01*
X161040500Y-88785746D01*
X161040499Y-88785729D01*
X161034040Y-88725661D01*
X161034040Y-88725659D01*
X161020043Y-88688133D01*
X160983344Y-88589738D01*
X160983343Y-88589737D01*
X160983342Y-88589733D01*
X160902160Y-88481285D01*
X160896404Y-88473595D01*
X160819126Y-88415747D01*
X160780267Y-88386658D01*
X160780264Y-88386656D01*
X160780261Y-88386655D01*
X160644349Y-88335962D01*
X160644338Y-88335959D01*
X160584270Y-88329500D01*
X160584254Y-88329500D01*
X158287746Y-88329500D01*
X158287729Y-88329500D01*
X158227661Y-88335959D01*
X158227650Y-88335962D01*
X158091738Y-88386655D01*
X158091730Y-88386660D01*
X157975595Y-88473595D01*
X157888660Y-88589730D01*
X157888655Y-88589738D01*
X157837962Y-88725650D01*
X157837959Y-88725661D01*
X157831500Y-88785729D01*
X150650500Y-88785729D01*
X150650500Y-88694000D01*
X150670185Y-88626961D01*
X150722989Y-88581206D01*
X150774500Y-88570000D01*
X150900500Y-88570000D01*
X150900500Y-88444000D01*
X150920185Y-88376961D01*
X150972989Y-88331206D01*
X151024500Y-88320000D01*
X151937999Y-88320000D01*
X151937999Y-88283360D01*
X151937998Y-88283345D01*
X151927680Y-88182347D01*
X151873453Y-88018699D01*
X151873448Y-88018688D01*
X151782947Y-87871965D01*
X151782944Y-87871961D01*
X151661037Y-87750054D01*
X151577328Y-87698421D01*
X151530604Y-87646473D01*
X151519383Y-87577510D01*
X151547227Y-87513428D01*
X151550897Y-87509411D01*
X151551971Y-87507976D01*
X151551974Y-87507974D01*
X151636758Y-87394715D01*
X151686200Y-87262157D01*
X151690431Y-87222800D01*
X151692499Y-87203573D01*
X151692499Y-87203562D01*
X151692500Y-87203557D01*
X151692499Y-86634444D01*
X151686200Y-86575843D01*
X151655063Y-86492361D01*
X151636760Y-86443290D01*
X151636759Y-86443288D01*
X151636758Y-86443285D01*
X151551974Y-86330026D01*
X151466709Y-86266198D01*
X151438718Y-86245244D01*
X151438716Y-86245243D01*
X151438715Y-86245242D01*
X151438713Y-86245241D01*
X151438709Y-86245239D01*
X151349166Y-86211841D01*
X151293232Y-86169970D01*
X151268816Y-86104505D01*
X151268500Y-86095660D01*
X151268500Y-84933998D01*
X157581274Y-84933998D01*
X157581274Y-84934001D01*
X157600152Y-85197960D01*
X157656400Y-85456528D01*
X157748884Y-85704487D01*
X157875701Y-85936735D01*
X157875702Y-85936736D01*
X157963040Y-86053406D01*
X158681884Y-85334561D01*
X158682740Y-85336626D01*
X158775762Y-85475844D01*
X158894156Y-85594238D01*
X159033374Y-85687260D01*
X159035437Y-85688114D01*
X158316592Y-86406958D01*
X158433263Y-86494298D01*
X158665513Y-86621115D01*
X158665512Y-86621115D01*
X158913471Y-86713599D01*
X159172039Y-86769847D01*
X159435999Y-86788726D01*
X159436001Y-86788726D01*
X159699960Y-86769847D01*
X159958528Y-86713599D01*
X160206487Y-86621115D01*
X160438744Y-86494293D01*
X160555406Y-86406959D01*
X160555406Y-86406958D01*
X159836562Y-85688114D01*
X159838626Y-85687260D01*
X159977844Y-85594238D01*
X160096238Y-85475844D01*
X160189260Y-85336626D01*
X160190114Y-85334562D01*
X160908958Y-86053406D01*
X160908959Y-86053406D01*
X160996293Y-85936744D01*
X161123115Y-85704487D01*
X161215599Y-85456528D01*
X161271847Y-85197960D01*
X161290726Y-84934001D01*
X161290726Y-84933998D01*
X161271847Y-84670039D01*
X161215599Y-84411471D01*
X161123115Y-84163512D01*
X160996298Y-83931264D01*
X160996298Y-83931263D01*
X160908958Y-83814592D01*
X160190114Y-84533436D01*
X160189260Y-84531374D01*
X160096238Y-84392156D01*
X159977844Y-84273762D01*
X159838626Y-84180740D01*
X159836560Y-84179884D01*
X160555406Y-83461040D01*
X160438736Y-83373702D01*
X160438735Y-83373701D01*
X160206486Y-83246884D01*
X160206487Y-83246884D01*
X159958528Y-83154400D01*
X159699960Y-83098152D01*
X159436001Y-83079274D01*
X159435999Y-83079274D01*
X159172039Y-83098152D01*
X158913471Y-83154400D01*
X158665512Y-83246884D01*
X158433264Y-83373701D01*
X158433256Y-83373706D01*
X158316593Y-83461039D01*
X158316592Y-83461040D01*
X159035437Y-84179885D01*
X159033374Y-84180740D01*
X158894156Y-84273762D01*
X158775762Y-84392156D01*
X158682740Y-84531374D01*
X158681885Y-84533437D01*
X157963040Y-83814592D01*
X157963039Y-83814593D01*
X157875706Y-83931256D01*
X157875701Y-83931264D01*
X157748884Y-84163512D01*
X157656400Y-84411471D01*
X157600152Y-84670039D01*
X157581274Y-84933998D01*
X151268500Y-84933998D01*
X151268500Y-82348773D01*
X151268500Y-82348771D01*
X151249318Y-82277183D01*
X151246829Y-82267892D01*
X151204963Y-82195379D01*
X149122319Y-80112735D01*
X149088834Y-80051412D01*
X149086000Y-80025054D01*
X149086000Y-79934000D01*
X157826539Y-79934000D01*
X157846353Y-80185770D01*
X157846353Y-80185773D01*
X157846354Y-80185775D01*
X157897470Y-80398685D01*
X157905313Y-80431355D01*
X158001957Y-80664676D01*
X158001959Y-80664679D01*
X158133917Y-80880014D01*
X158133920Y-80880019D01*
X158184783Y-80939572D01*
X158297939Y-81072061D01*
X158401142Y-81160204D01*
X158489980Y-81236079D01*
X158489982Y-81236080D01*
X158489983Y-81236081D01*
X158665963Y-81343922D01*
X158705320Y-81368040D01*
X158705323Y-81368042D01*
X158938644Y-81464686D01*
X158938649Y-81464688D01*
X159184225Y-81523646D01*
X159436000Y-81543461D01*
X159687775Y-81523646D01*
X159933351Y-81464688D01*
X160128888Y-81383694D01*
X160166676Y-81368042D01*
X160166677Y-81368041D01*
X160166680Y-81368040D01*
X160382017Y-81236081D01*
X160574061Y-81072061D01*
X160738081Y-80880017D01*
X160870040Y-80664680D01*
X160872599Y-80658504D01*
X160928335Y-80523943D01*
X160966688Y-80431351D01*
X161025646Y-80185775D01*
X161045461Y-79934000D01*
X161025646Y-79682225D01*
X160966688Y-79436649D01*
X160951931Y-79401022D01*
X160870042Y-79203323D01*
X160870040Y-79203320D01*
X160825192Y-79130135D01*
X160738081Y-78987983D01*
X160738080Y-78987982D01*
X160738079Y-78987980D01*
X160642554Y-78876135D01*
X160574061Y-78795939D01*
X160462639Y-78700776D01*
X160382019Y-78631920D01*
X160382014Y-78631917D01*
X160166679Y-78499959D01*
X160166676Y-78499957D01*
X159933355Y-78403313D01*
X159847792Y-78382771D01*
X159687775Y-78344354D01*
X159687773Y-78344353D01*
X159687770Y-78344353D01*
X159436000Y-78324539D01*
X159184229Y-78344353D01*
X158938644Y-78403313D01*
X158705323Y-78499957D01*
X158705320Y-78499959D01*
X158489985Y-78631917D01*
X158489980Y-78631920D01*
X158297939Y-78795939D01*
X158133920Y-78987980D01*
X158133917Y-78987985D01*
X158001959Y-79203320D01*
X158001957Y-79203323D01*
X157905313Y-79436644D01*
X157846353Y-79682229D01*
X157826539Y-79934000D01*
X149086000Y-79934000D01*
X149086000Y-79130137D01*
X149086000Y-79130135D01*
X149068615Y-79065253D01*
X149068615Y-79065251D01*
X149064330Y-79049259D01*
X149064329Y-79049258D01*
X149064329Y-79049256D01*
X149022463Y-78976743D01*
X147640921Y-77595201D01*
X147607436Y-77533878D01*
X147612420Y-77464186D01*
X147654292Y-77408253D01*
X147672297Y-77397040D01*
X147751223Y-77356826D01*
X147841826Y-77266223D01*
X147899998Y-77152055D01*
X147901978Y-77139555D01*
X147920042Y-77025503D01*
X147920042Y-77025496D01*
X147910682Y-76966397D01*
X147919637Y-76897104D01*
X147964634Y-76843652D01*
X148031385Y-76823013D01*
X148033155Y-76823000D01*
X149856863Y-76823000D01*
X149856865Y-76823000D01*
X149937744Y-76801329D01*
X150010257Y-76759463D01*
X150963269Y-75806449D01*
X151024590Y-75772966D01*
X151094281Y-75777950D01*
X151095742Y-75778506D01*
X151231999Y-75831292D01*
X151246444Y-75836888D01*
X151447653Y-75874500D01*
X151447656Y-75874500D01*
X151652344Y-75874500D01*
X151652347Y-75874500D01*
X151853556Y-75836888D01*
X152044427Y-75762944D01*
X152218462Y-75655186D01*
X152369732Y-75517285D01*
X152493088Y-75353935D01*
X152584328Y-75170701D01*
X152640345Y-74973821D01*
X152659232Y-74770000D01*
X152659232Y-74769999D01*
X152980768Y-74769999D01*
X152980768Y-74770000D01*
X152999654Y-74973816D01*
X152999654Y-74973818D01*
X152999655Y-74973821D01*
X153055672Y-75170701D01*
X153055673Y-75170704D01*
X153146912Y-75353935D01*
X153270269Y-75517287D01*
X153421537Y-75655185D01*
X153421539Y-75655187D01*
X153595569Y-75762942D01*
X153595575Y-75762945D01*
X153633737Y-75777729D01*
X153786444Y-75836888D01*
X153987653Y-75874500D01*
X153987656Y-75874500D01*
X154009877Y-75874500D01*
X154076916Y-75894185D01*
X154122671Y-75946989D01*
X154132615Y-76016147D01*
X154103590Y-76079703D01*
X154097558Y-76086181D01*
X153460979Y-76722759D01*
X153399656Y-76756244D01*
X153392698Y-76757550D01*
X153353675Y-76763732D01*
X153239507Y-76821904D01*
X153239506Y-76821905D01*
X153239501Y-76821908D01*
X153148908Y-76912501D01*
X153148905Y-76912506D01*
X153148904Y-76912507D01*
X153137196Y-76935485D01*
X153090730Y-77026678D01*
X153070688Y-77153226D01*
X153070688Y-77153233D01*
X153090730Y-77279781D01*
X153090731Y-77279784D01*
X153090732Y-77279785D01*
X153148904Y-77393953D01*
X153148906Y-77393955D01*
X153148908Y-77393958D01*
X153239501Y-77484551D01*
X153239503Y-77484552D01*
X153239507Y-77484556D01*
X153353675Y-77542728D01*
X153353676Y-77542728D01*
X153353678Y-77542729D01*
X153480227Y-77562772D01*
X153480230Y-77562772D01*
X153480233Y-77562772D01*
X153606781Y-77542729D01*
X153606782Y-77542728D01*
X153606785Y-77542728D01*
X153720953Y-77484556D01*
X153811556Y-77393953D01*
X153869728Y-77279785D01*
X153875908Y-77240760D01*
X153905835Y-77177629D01*
X153910682Y-77172496D01*
X155429318Y-75653861D01*
X155490637Y-75620379D01*
X155560329Y-75625363D01*
X155604676Y-75653864D01*
X155758917Y-75808105D01*
X155952421Y-75943600D01*
X156166507Y-76043429D01*
X156166516Y-76043433D01*
X156380000Y-76100634D01*
X156380000Y-75203012D01*
X156437007Y-75235925D01*
X156564174Y-75270000D01*
X156695826Y-75270000D01*
X156822993Y-75235925D01*
X156880000Y-75203012D01*
X156880000Y-76100633D01*
X157093483Y-76043433D01*
X157093492Y-76043429D01*
X157307578Y-75943600D01*
X157501082Y-75808105D01*
X157668105Y-75641082D01*
X157803600Y-75447578D01*
X157903429Y-75233492D01*
X157903432Y-75233486D01*
X157960636Y-75020000D01*
X157063012Y-75020000D01*
X157095925Y-74962993D01*
X157130000Y-74835826D01*
X157130000Y-74704174D01*
X157095925Y-74577007D01*
X157063012Y-74520000D01*
X157960636Y-74520000D01*
X157960635Y-74519999D01*
X157903432Y-74306513D01*
X157903429Y-74306507D01*
X157803600Y-74092422D01*
X157803599Y-74092420D01*
X157668113Y-73898926D01*
X157668108Y-73898920D01*
X157501082Y-73731894D01*
X157307578Y-73596399D01*
X157093492Y-73496570D01*
X157093477Y-73496564D01*
X157060960Y-73487851D01*
X157001300Y-73451486D01*
X156970772Y-73388638D01*
X156971360Y-73383718D01*
X160022500Y-73383718D01*
X160022500Y-73616281D01*
X160058881Y-73845983D01*
X160058881Y-73845986D01*
X160130745Y-74067160D01*
X160191330Y-74186065D01*
X160236328Y-74274379D01*
X160373026Y-74462527D01*
X160537473Y-74626974D01*
X160725621Y-74763672D01*
X160932837Y-74869253D01*
X160932839Y-74869254D01*
X161154014Y-74941118D01*
X161154015Y-74941118D01*
X161154018Y-74941119D01*
X161383718Y-74977500D01*
X161383719Y-74977500D01*
X161616281Y-74977500D01*
X161616282Y-74977500D01*
X161845982Y-74941119D01*
X161845985Y-74941118D01*
X161845986Y-74941118D01*
X162067160Y-74869254D01*
X162067160Y-74869253D01*
X162067163Y-74869253D01*
X162274379Y-74763672D01*
X162462527Y-74626974D01*
X162626974Y-74462527D01*
X162763672Y-74274379D01*
X162869253Y-74067163D01*
X162871672Y-74059717D01*
X162941118Y-73845986D01*
X162941118Y-73845985D01*
X162941119Y-73845982D01*
X162977500Y-73616282D01*
X162977500Y-73383718D01*
X162941119Y-73154018D01*
X162941118Y-73154014D01*
X162941118Y-73154013D01*
X162869254Y-72932839D01*
X162860766Y-72916181D01*
X162763672Y-72725621D01*
X162626974Y-72537473D01*
X162462527Y-72373026D01*
X162274379Y-72236328D01*
X162223325Y-72210315D01*
X162067160Y-72130745D01*
X161845985Y-72058881D01*
X161639510Y-72026179D01*
X161616282Y-72022500D01*
X161383718Y-72022500D01*
X161360490Y-72026179D01*
X161154016Y-72058881D01*
X161154013Y-72058881D01*
X160932839Y-72130745D01*
X160725620Y-72236328D01*
X160643729Y-72295826D01*
X160537473Y-72373026D01*
X160537471Y-72373028D01*
X160537470Y-72373028D01*
X160373028Y-72537470D01*
X160373028Y-72537471D01*
X160373026Y-72537473D01*
X160323118Y-72606165D01*
X160236328Y-72725620D01*
X160130745Y-72932839D01*
X160058881Y-73154013D01*
X160058881Y-73154016D01*
X160022500Y-73383718D01*
X156971360Y-73383718D01*
X156979067Y-73319263D01*
X157023553Y-73265386D01*
X157048257Y-73252452D01*
X157124427Y-73222944D01*
X157298462Y-73115186D01*
X157449732Y-72977285D01*
X157573088Y-72813935D01*
X157664328Y-72630701D01*
X157720345Y-72433821D01*
X157739232Y-72230000D01*
X157720345Y-72026179D01*
X157664328Y-71829299D01*
X157573088Y-71646065D01*
X157513904Y-71567693D01*
X157449730Y-71482712D01*
X157298462Y-71344814D01*
X157298460Y-71344812D01*
X157124430Y-71237057D01*
X157124424Y-71237054D01*
X156973993Y-71178777D01*
X156933556Y-71163112D01*
X156732347Y-71125500D01*
X156527653Y-71125500D01*
X156326444Y-71163112D01*
X156326441Y-71163112D01*
X156326441Y-71163113D01*
X156135575Y-71237054D01*
X156135569Y-71237057D01*
X155961539Y-71344812D01*
X155961537Y-71344814D01*
X155810269Y-71482712D01*
X155686912Y-71646064D01*
X155595673Y-71829295D01*
X155539654Y-72026183D01*
X155520768Y-72229999D01*
X155520768Y-72230000D01*
X155539654Y-72433816D01*
X155595671Y-72630699D01*
X155595675Y-72630709D01*
X155617037Y-72673609D01*
X155629298Y-72742394D01*
X155602425Y-72806889D01*
X155593718Y-72816561D01*
X155117539Y-73292740D01*
X155117533Y-73292749D01*
X155075673Y-73365250D01*
X155075672Y-73365251D01*
X155075671Y-73365256D01*
X155068172Y-73393243D01*
X155068172Y-73393244D01*
X155068171Y-73393243D01*
X155054000Y-73446133D01*
X155054000Y-73873399D01*
X155034315Y-73940438D01*
X154981511Y-73986193D01*
X154912353Y-73996137D01*
X154848797Y-73967112D01*
X154846462Y-73965036D01*
X154758462Y-73884814D01*
X154758460Y-73884812D01*
X154584430Y-73777057D01*
X154584424Y-73777054D01*
X154414508Y-73711229D01*
X154393556Y-73703112D01*
X154192347Y-73665500D01*
X153987653Y-73665500D01*
X153786444Y-73703112D01*
X153786441Y-73703112D01*
X153786441Y-73703113D01*
X153595575Y-73777054D01*
X153595569Y-73777057D01*
X153421539Y-73884812D01*
X153421537Y-73884814D01*
X153270269Y-74022712D01*
X153146912Y-74186064D01*
X153055673Y-74369295D01*
X152999654Y-74566183D01*
X152980768Y-74769999D01*
X152659232Y-74769999D01*
X152640345Y-74566179D01*
X152584328Y-74369299D01*
X152493088Y-74186065D01*
X152427750Y-74099543D01*
X152369730Y-74022712D01*
X152218462Y-73884814D01*
X152218460Y-73884812D01*
X152044430Y-73777057D01*
X152044424Y-73777054D01*
X151874508Y-73711229D01*
X151853556Y-73703112D01*
X151652347Y-73665500D01*
X151447653Y-73665500D01*
X151246444Y-73703112D01*
X151246441Y-73703112D01*
X151246441Y-73703113D01*
X151055575Y-73777054D01*
X151055569Y-73777057D01*
X150881539Y-73884812D01*
X150881537Y-73884814D01*
X150730269Y-74022712D01*
X150606912Y-74186064D01*
X150515673Y-74369295D01*
X150459654Y-74566183D01*
X150440768Y-74769999D01*
X150440768Y-74770000D01*
X150459654Y-74973816D01*
X150515671Y-75170699D01*
X150515675Y-75170709D01*
X150537037Y-75213609D01*
X150549298Y-75282394D01*
X150522425Y-75346889D01*
X150513718Y-75356561D01*
X149719599Y-76150681D01*
X149658276Y-76184166D01*
X149631918Y-76187000D01*
X147930082Y-76187000D01*
X147863043Y-76167315D01*
X147817288Y-76114511D01*
X147807344Y-76045353D01*
X147836369Y-75981797D01*
X147842391Y-75975328D01*
X148164179Y-75653539D01*
X148225499Y-75620057D01*
X148295190Y-75625041D01*
X148335394Y-75649585D01*
X148341538Y-75655186D01*
X148341540Y-75655187D01*
X148341541Y-75655188D01*
X148515569Y-75762942D01*
X148515575Y-75762945D01*
X148553737Y-75777729D01*
X148706444Y-75836888D01*
X148907653Y-75874500D01*
X148907656Y-75874500D01*
X149112344Y-75874500D01*
X149112347Y-75874500D01*
X149313556Y-75836888D01*
X149504427Y-75762944D01*
X149678462Y-75655186D01*
X149829732Y-75517285D01*
X149953088Y-75353935D01*
X150044328Y-75170701D01*
X150100345Y-74973821D01*
X150119232Y-74770000D01*
X150100345Y-74566179D01*
X150044328Y-74369299D01*
X149953088Y-74186065D01*
X149829732Y-74022715D01*
X149794543Y-73990636D01*
X149758263Y-73930925D01*
X149760024Y-73861078D01*
X149799268Y-73803270D01*
X149863535Y-73775856D01*
X149878083Y-73775000D01*
X150364863Y-73775000D01*
X150364865Y-73775000D01*
X150445744Y-73753329D01*
X150518257Y-73711463D01*
X150963268Y-73266450D01*
X151024591Y-73232966D01*
X151094282Y-73237950D01*
X151095692Y-73238486D01*
X151165128Y-73265386D01*
X151246438Y-73296886D01*
X151246439Y-73296886D01*
X151246444Y-73296888D01*
X151447653Y-73334500D01*
X151447656Y-73334500D01*
X151652344Y-73334500D01*
X151652347Y-73334500D01*
X151853556Y-73296888D01*
X152044427Y-73222944D01*
X152218462Y-73115186D01*
X152369732Y-72977285D01*
X152493088Y-72813935D01*
X152584328Y-72630701D01*
X152640345Y-72433821D01*
X152659232Y-72230000D01*
X152659232Y-72229999D01*
X152980768Y-72229999D01*
X152980768Y-72230000D01*
X152999654Y-72433816D01*
X152999654Y-72433818D01*
X152999655Y-72433821D01*
X153055672Y-72630701D01*
X153055673Y-72630704D01*
X153146912Y-72813935D01*
X153270269Y-72977287D01*
X153421537Y-73115185D01*
X153421539Y-73115187D01*
X153595569Y-73222942D01*
X153595575Y-73222945D01*
X153633737Y-73237729D01*
X153786444Y-73296888D01*
X153987653Y-73334500D01*
X153987656Y-73334500D01*
X154192344Y-73334500D01*
X154192347Y-73334500D01*
X154393556Y-73296888D01*
X154584427Y-73222944D01*
X154758462Y-73115186D01*
X154909732Y-72977285D01*
X155033088Y-72813935D01*
X155124328Y-72630701D01*
X155180345Y-72433821D01*
X155199232Y-72230000D01*
X155180345Y-72026179D01*
X155124328Y-71829299D01*
X155033088Y-71646065D01*
X154973904Y-71567693D01*
X154909730Y-71482712D01*
X154758462Y-71344814D01*
X154758460Y-71344812D01*
X154584430Y-71237057D01*
X154584424Y-71237054D01*
X154433993Y-71178777D01*
X154393556Y-71163112D01*
X154192347Y-71125500D01*
X153987653Y-71125500D01*
X153786444Y-71163112D01*
X153786441Y-71163112D01*
X153786441Y-71163113D01*
X153595575Y-71237054D01*
X153595569Y-71237057D01*
X153421539Y-71344812D01*
X153421537Y-71344814D01*
X153270269Y-71482712D01*
X153146912Y-71646064D01*
X153055673Y-71829295D01*
X152999654Y-72026183D01*
X152980768Y-72229999D01*
X152659232Y-72229999D01*
X152640345Y-72026179D01*
X152584328Y-71829299D01*
X152493088Y-71646065D01*
X152433904Y-71567693D01*
X152369730Y-71482712D01*
X152218462Y-71344814D01*
X152218460Y-71344812D01*
X152044430Y-71237057D01*
X152044424Y-71237054D01*
X151893993Y-71178777D01*
X151853556Y-71163112D01*
X151652347Y-71125500D01*
X151447653Y-71125500D01*
X151246444Y-71163112D01*
X151246441Y-71163112D01*
X151246441Y-71163113D01*
X151055575Y-71237054D01*
X151055569Y-71237057D01*
X150881539Y-71344812D01*
X150881537Y-71344814D01*
X150730269Y-71482712D01*
X150606912Y-71646064D01*
X150521619Y-71817354D01*
X150474116Y-71868591D01*
X150406453Y-71886012D01*
X150340112Y-71864086D01*
X150296158Y-71809775D01*
X150290844Y-71794174D01*
X150283434Y-71766518D01*
X150283429Y-71766507D01*
X150183600Y-71552422D01*
X150183599Y-71552420D01*
X150048113Y-71358926D01*
X150048108Y-71358920D01*
X149881082Y-71191894D01*
X149687578Y-71056399D01*
X149473492Y-70956570D01*
X149473486Y-70956567D01*
X149260000Y-70899364D01*
X149260000Y-71796988D01*
X149202993Y-71764075D01*
X149075826Y-71730000D01*
X148944174Y-71730000D01*
X148817007Y-71764075D01*
X148760000Y-71796988D01*
X148760000Y-70899364D01*
X148759999Y-70899364D01*
X148546513Y-70956567D01*
X148546507Y-70956570D01*
X148332422Y-71056399D01*
X148332420Y-71056400D01*
X148138926Y-71191886D01*
X148138920Y-71191891D01*
X147971891Y-71358920D01*
X147971886Y-71358926D01*
X147836400Y-71552420D01*
X147836399Y-71552422D01*
X147736570Y-71766507D01*
X147736564Y-71766522D01*
X147729154Y-71794177D01*
X147692788Y-71853837D01*
X147629941Y-71884365D01*
X147560566Y-71876070D01*
X147506688Y-71831583D01*
X147498380Y-71817354D01*
X147486838Y-71794174D01*
X147413088Y-71646065D01*
X147353904Y-71567693D01*
X147289730Y-71482712D01*
X147138462Y-71344814D01*
X147138460Y-71344812D01*
X146964430Y-71237057D01*
X146964424Y-71237054D01*
X146813993Y-71178777D01*
X146773556Y-71163112D01*
X146572347Y-71125500D01*
X146367653Y-71125500D01*
X146166444Y-71163112D01*
X146166441Y-71163112D01*
X146166441Y-71163113D01*
X145975575Y-71237054D01*
X145975569Y-71237057D01*
X145801539Y-71344812D01*
X145801537Y-71344814D01*
X145650269Y-71482712D01*
X145526912Y-71646064D01*
X145441619Y-71817354D01*
X145394116Y-71868591D01*
X145326453Y-71886012D01*
X145260112Y-71864086D01*
X145216158Y-71809775D01*
X145210844Y-71794174D01*
X145203434Y-71766518D01*
X145203429Y-71766507D01*
X145103600Y-71552422D01*
X145103599Y-71552420D01*
X144968113Y-71358926D01*
X144968108Y-71358920D01*
X144801082Y-71191894D01*
X144607578Y-71056399D01*
X144393492Y-70956570D01*
X144393486Y-70956567D01*
X144180000Y-70899364D01*
X144180000Y-71796988D01*
X144122993Y-71764075D01*
X143995826Y-71730000D01*
X143864174Y-71730000D01*
X143737007Y-71764075D01*
X143680000Y-71796988D01*
X143680000Y-70899364D01*
X143679999Y-70899364D01*
X143466513Y-70956567D01*
X143466507Y-70956570D01*
X143252422Y-71056399D01*
X143252420Y-71056400D01*
X143058926Y-71191886D01*
X143058920Y-71191891D01*
X142891891Y-71358920D01*
X142891886Y-71358926D01*
X142756400Y-71552420D01*
X142756399Y-71552422D01*
X142656570Y-71766507D01*
X142656564Y-71766522D01*
X142649154Y-71794177D01*
X142612788Y-71853837D01*
X142549941Y-71884365D01*
X142480566Y-71876070D01*
X142426688Y-71831583D01*
X142418380Y-71817354D01*
X142406838Y-71794174D01*
X142333088Y-71646065D01*
X142273904Y-71567693D01*
X142209730Y-71482712D01*
X142058462Y-71344814D01*
X142058460Y-71344812D01*
X141884430Y-71237057D01*
X141884424Y-71237054D01*
X141733993Y-71178777D01*
X141693556Y-71163112D01*
X141492347Y-71125500D01*
X141287653Y-71125500D01*
X141086444Y-71163112D01*
X141086441Y-71163112D01*
X141086441Y-71163113D01*
X140895575Y-71237054D01*
X140895569Y-71237057D01*
X140721539Y-71344812D01*
X140721537Y-71344814D01*
X140570269Y-71482712D01*
X140446912Y-71646064D01*
X140355673Y-71829295D01*
X140299654Y-72026183D01*
X140280768Y-72229999D01*
X140280768Y-72230000D01*
X140299654Y-72433816D01*
X140299654Y-72433818D01*
X140299655Y-72433821D01*
X140355672Y-72630701D01*
X140355673Y-72630704D01*
X140446912Y-72813935D01*
X140570269Y-72977287D01*
X140721537Y-73115185D01*
X140721539Y-73115187D01*
X140895569Y-73222942D01*
X140895575Y-73222945D01*
X140933737Y-73237729D01*
X141086444Y-73296888D01*
X141287653Y-73334500D01*
X141287656Y-73334500D01*
X141492344Y-73334500D01*
X141492347Y-73334500D01*
X141693556Y-73296888D01*
X141884427Y-73222944D01*
X142058462Y-73115186D01*
X142209732Y-72977285D01*
X142333088Y-72813935D01*
X142418380Y-72642645D01*
X142465883Y-72591408D01*
X142533545Y-72573987D01*
X142599886Y-72595912D01*
X142643841Y-72650224D01*
X142649155Y-72665823D01*
X142656567Y-72693485D01*
X142656570Y-72693492D01*
X142756399Y-72907578D01*
X142891894Y-73101082D01*
X143058917Y-73268105D01*
X143252421Y-73403600D01*
X143466507Y-73503429D01*
X143466516Y-73503433D01*
X143499037Y-73512147D01*
X143558698Y-73548512D01*
X143589227Y-73611358D01*
X143580933Y-73680734D01*
X143536448Y-73734612D01*
X143511739Y-73747548D01*
X143435581Y-73777052D01*
X143435569Y-73777057D01*
X143261539Y-73884812D01*
X143261537Y-73884814D01*
X143110269Y-74022712D01*
X142986912Y-74186064D01*
X142895673Y-74369295D01*
X142839654Y-74566183D01*
X142820768Y-74769999D01*
X142820768Y-74770000D01*
X142839654Y-74973816D01*
X142839654Y-74973818D01*
X142839655Y-74973821D01*
X142895672Y-75170701D01*
X142895673Y-75170704D01*
X142986912Y-75353935D01*
X143110269Y-75517287D01*
X143261537Y-75655185D01*
X143261539Y-75655187D01*
X143435569Y-75762942D01*
X143435571Y-75762943D01*
X143435573Y-75762944D01*
X143435576Y-75762945D01*
X143435578Y-75762946D01*
X143532793Y-75800607D01*
X143588195Y-75843180D01*
X143611786Y-75908946D01*
X143612000Y-75916234D01*
X143612000Y-76206916D01*
X143592315Y-76273955D01*
X143575681Y-76294597D01*
X143541749Y-76328529D01*
X143480426Y-76362014D01*
X143473468Y-76363321D01*
X143434445Y-76369502D01*
X143320273Y-76427676D01*
X143319718Y-76428080D01*
X143318929Y-76428361D01*
X143311582Y-76432105D01*
X143311097Y-76431154D01*
X143253910Y-76451555D01*
X143185857Y-76435726D01*
X143159158Y-76415438D01*
X142308091Y-75564371D01*
X142274606Y-75503048D01*
X142279590Y-75433356D01*
X142296817Y-75401964D01*
X142333088Y-75353935D01*
X142424328Y-75170701D01*
X142480345Y-74973821D01*
X142499232Y-74770000D01*
X142480345Y-74566179D01*
X142424328Y-74369299D01*
X142333088Y-74186065D01*
X142267750Y-74099543D01*
X142209730Y-74022712D01*
X142058462Y-73884814D01*
X142058460Y-73884812D01*
X141884430Y-73777057D01*
X141884424Y-73777054D01*
X141714508Y-73711229D01*
X141693556Y-73703112D01*
X141492347Y-73665500D01*
X141287653Y-73665500D01*
X141086444Y-73703112D01*
X141086441Y-73703112D01*
X141086441Y-73703113D01*
X140895575Y-73777054D01*
X140895569Y-73777057D01*
X140721539Y-73884812D01*
X140721537Y-73884814D01*
X140570269Y-74022712D01*
X140446912Y-74186064D01*
X140361619Y-74357354D01*
X140314116Y-74408591D01*
X140246453Y-74426012D01*
X140180112Y-74404086D01*
X140136158Y-74349775D01*
X140130844Y-74334174D01*
X140123434Y-74306518D01*
X140123429Y-74306507D01*
X140023600Y-74092422D01*
X140023599Y-74092420D01*
X139888113Y-73898926D01*
X139888108Y-73898920D01*
X139721082Y-73731894D01*
X139527578Y-73596399D01*
X139313492Y-73496570D01*
X139313477Y-73496564D01*
X139280960Y-73487851D01*
X139221300Y-73451486D01*
X139190772Y-73388638D01*
X139199067Y-73319263D01*
X139243553Y-73265386D01*
X139268257Y-73252452D01*
X139344427Y-73222944D01*
X139518462Y-73115186D01*
X139669732Y-72977285D01*
X139793088Y-72813935D01*
X139884328Y-72630701D01*
X139940345Y-72433821D01*
X139959232Y-72230000D01*
X139940345Y-72026179D01*
X139884328Y-71829299D01*
X139793088Y-71646065D01*
X139733904Y-71567693D01*
X139669730Y-71482712D01*
X139518462Y-71344814D01*
X139518460Y-71344812D01*
X139344430Y-71237057D01*
X139344424Y-71237054D01*
X139193993Y-71178777D01*
X139153556Y-71163112D01*
X138952347Y-71125500D01*
X138747653Y-71125500D01*
X138546444Y-71163112D01*
X138546441Y-71163112D01*
X138546441Y-71163113D01*
X138355575Y-71237054D01*
X138355569Y-71237057D01*
X138181539Y-71344812D01*
X138181537Y-71344814D01*
X138030269Y-71482712D01*
X137906912Y-71646064D01*
X137815673Y-71829295D01*
X137759654Y-72026183D01*
X137740768Y-72229999D01*
X137740768Y-72230000D01*
X137759654Y-72433816D01*
X137815671Y-72630699D01*
X137815675Y-72630709D01*
X137837037Y-72673609D01*
X137849298Y-72742394D01*
X137822425Y-72806889D01*
X137813725Y-72816554D01*
X137736643Y-72893635D01*
X137667680Y-72962599D01*
X137606357Y-72996083D01*
X137536665Y-72991099D01*
X137492318Y-72962598D01*
X137346281Y-72816561D01*
X137312796Y-72755238D01*
X137317780Y-72685546D01*
X137322962Y-72673609D01*
X137344328Y-72630701D01*
X137400345Y-72433821D01*
X137419232Y-72230000D01*
X137400345Y-72026179D01*
X137344328Y-71829299D01*
X137253088Y-71646065D01*
X137193904Y-71567693D01*
X137129730Y-71482712D01*
X136978462Y-71344814D01*
X136978460Y-71344812D01*
X136804430Y-71237057D01*
X136804424Y-71237054D01*
X136653993Y-71178777D01*
X136613556Y-71163112D01*
X136412347Y-71125500D01*
X136207653Y-71125500D01*
X136006444Y-71163112D01*
X136006441Y-71163112D01*
X136006441Y-71163113D01*
X135815575Y-71237054D01*
X135815569Y-71237057D01*
X135641539Y-71344812D01*
X135641537Y-71344814D01*
X135490269Y-71482712D01*
X135366912Y-71646064D01*
X135275673Y-71829295D01*
X135219654Y-72026183D01*
X135200768Y-72229999D01*
X135200768Y-72230000D01*
X135219654Y-72433816D01*
X135219654Y-72433818D01*
X135219655Y-72433821D01*
X135275672Y-72630701D01*
X135275673Y-72630704D01*
X135366912Y-72813935D01*
X135490269Y-72977287D01*
X135641537Y-73115185D01*
X135641539Y-73115187D01*
X135815569Y-73222942D01*
X135815575Y-73222945D01*
X135853737Y-73237729D01*
X136006444Y-73296888D01*
X136207653Y-73334500D01*
X136207656Y-73334500D01*
X136412344Y-73334500D01*
X136412347Y-73334500D01*
X136613556Y-73296888D01*
X136764257Y-73238505D01*
X136833878Y-73232643D01*
X136895619Y-73265352D01*
X136896731Y-73266451D01*
X137110681Y-73480401D01*
X137144166Y-73541724D01*
X137147000Y-73568082D01*
X137147000Y-73766545D01*
X137127315Y-73833584D01*
X137074511Y-73879339D01*
X137005353Y-73889283D01*
X136957723Y-73871972D01*
X136804430Y-73777057D01*
X136804424Y-73777054D01*
X136634508Y-73711229D01*
X136613556Y-73703112D01*
X136412347Y-73665500D01*
X136207653Y-73665500D01*
X136006444Y-73703112D01*
X136006441Y-73703112D01*
X136006441Y-73703113D01*
X135815575Y-73777054D01*
X135815569Y-73777057D01*
X135641539Y-73884812D01*
X135641537Y-73884814D01*
X135490269Y-74022712D01*
X135366912Y-74186064D01*
X135275673Y-74369295D01*
X135219654Y-74566183D01*
X135200768Y-74769999D01*
X135200768Y-74770000D01*
X135219654Y-74973816D01*
X135275671Y-75170699D01*
X135275673Y-75170704D01*
X135276855Y-75173077D01*
X135297037Y-75213608D01*
X135309299Y-75282392D01*
X135282425Y-75346887D01*
X135273718Y-75356560D01*
X133336599Y-77293681D01*
X133275276Y-77327166D01*
X133248918Y-77330000D01*
X129419082Y-77330000D01*
X129352043Y-77310315D01*
X129306288Y-77257511D01*
X129296344Y-77188353D01*
X129325369Y-77124797D01*
X129331401Y-77118319D01*
X129648394Y-76801326D01*
X130643269Y-75806449D01*
X130704590Y-75772966D01*
X130774281Y-75777950D01*
X130775742Y-75778506D01*
X130911999Y-75831292D01*
X130926444Y-75836888D01*
X131127653Y-75874500D01*
X131127656Y-75874500D01*
X131332344Y-75874500D01*
X131332347Y-75874500D01*
X131533556Y-75836888D01*
X131724427Y-75762944D01*
X131898462Y-75655186D01*
X132049732Y-75517285D01*
X132173088Y-75353935D01*
X132264328Y-75170701D01*
X132320345Y-74973821D01*
X132339232Y-74770000D01*
X132339232Y-74769999D01*
X132660768Y-74769999D01*
X132660768Y-74770000D01*
X132679654Y-74973816D01*
X132679654Y-74973818D01*
X132679655Y-74973821D01*
X132735672Y-75170701D01*
X132735673Y-75170704D01*
X132826912Y-75353935D01*
X132950269Y-75517287D01*
X133101537Y-75655185D01*
X133101539Y-75655187D01*
X133275569Y-75762942D01*
X133275575Y-75762945D01*
X133313737Y-75777729D01*
X133466444Y-75836888D01*
X133667653Y-75874500D01*
X133667656Y-75874500D01*
X133872344Y-75874500D01*
X133872347Y-75874500D01*
X134073556Y-75836888D01*
X134264427Y-75762944D01*
X134438462Y-75655186D01*
X134589732Y-75517285D01*
X134713088Y-75353935D01*
X134804328Y-75170701D01*
X134860345Y-74973821D01*
X134879232Y-74770000D01*
X134860345Y-74566179D01*
X134804328Y-74369299D01*
X134713088Y-74186065D01*
X134647750Y-74099543D01*
X134589730Y-74022712D01*
X134438462Y-73884814D01*
X134438460Y-73884812D01*
X134264430Y-73777057D01*
X134264424Y-73777054D01*
X134094508Y-73711229D01*
X134073556Y-73703112D01*
X133872347Y-73665500D01*
X133667653Y-73665500D01*
X133466444Y-73703112D01*
X133466441Y-73703112D01*
X133466441Y-73703113D01*
X133275575Y-73777054D01*
X133275569Y-73777057D01*
X133101539Y-73884812D01*
X133101537Y-73884814D01*
X132950269Y-74022712D01*
X132826912Y-74186064D01*
X132735673Y-74369295D01*
X132679654Y-74566183D01*
X132660768Y-74769999D01*
X132339232Y-74769999D01*
X132320345Y-74566179D01*
X132264328Y-74369299D01*
X132173088Y-74186065D01*
X132107750Y-74099543D01*
X132049730Y-74022712D01*
X131898462Y-73884814D01*
X131898460Y-73884812D01*
X131724430Y-73777057D01*
X131724424Y-73777054D01*
X131648261Y-73747549D01*
X131592859Y-73704976D01*
X131569269Y-73639209D01*
X131584980Y-73571129D01*
X131635004Y-73522350D01*
X131660963Y-73512147D01*
X131693481Y-73503434D01*
X131693492Y-73503429D01*
X131907578Y-73403600D01*
X132101082Y-73268105D01*
X132268105Y-73101082D01*
X132403600Y-72907578D01*
X132503429Y-72693492D01*
X132503435Y-72693478D01*
X132510844Y-72665826D01*
X132547207Y-72606165D01*
X132610054Y-72575634D01*
X132679429Y-72583928D01*
X132733308Y-72628412D01*
X132741619Y-72642645D01*
X132826912Y-72813935D01*
X132950269Y-72977287D01*
X133101537Y-73115185D01*
X133101539Y-73115187D01*
X133275569Y-73222942D01*
X133275575Y-73222945D01*
X133313737Y-73237729D01*
X133466444Y-73296888D01*
X133667653Y-73334500D01*
X133667656Y-73334500D01*
X133872344Y-73334500D01*
X133872347Y-73334500D01*
X134073556Y-73296888D01*
X134264427Y-73222944D01*
X134438462Y-73115186D01*
X134589732Y-72977285D01*
X134713088Y-72813935D01*
X134804328Y-72630701D01*
X134860345Y-72433821D01*
X134879232Y-72230000D01*
X134860345Y-72026179D01*
X134804328Y-71829299D01*
X134713088Y-71646065D01*
X134653904Y-71567693D01*
X134589730Y-71482712D01*
X134438462Y-71344814D01*
X134438460Y-71344812D01*
X134264430Y-71237057D01*
X134264424Y-71237054D01*
X134113993Y-71178777D01*
X134073556Y-71163112D01*
X133872347Y-71125500D01*
X133667653Y-71125500D01*
X133466444Y-71163112D01*
X133466441Y-71163112D01*
X133466441Y-71163113D01*
X133275575Y-71237054D01*
X133275569Y-71237057D01*
X133101539Y-71344812D01*
X133101537Y-71344814D01*
X132950269Y-71482712D01*
X132826912Y-71646064D01*
X132741619Y-71817354D01*
X132694116Y-71868591D01*
X132626453Y-71886012D01*
X132560112Y-71864086D01*
X132516158Y-71809775D01*
X132510844Y-71794174D01*
X132503434Y-71766518D01*
X132503429Y-71766507D01*
X132403600Y-71552422D01*
X132403599Y-71552420D01*
X132268113Y-71358926D01*
X132268108Y-71358920D01*
X132101082Y-71191894D01*
X131907578Y-71056399D01*
X131693492Y-70956570D01*
X131693486Y-70956567D01*
X131480000Y-70899364D01*
X131480000Y-71796988D01*
X131422993Y-71764075D01*
X131295826Y-71730000D01*
X131164174Y-71730000D01*
X131037007Y-71764075D01*
X130980000Y-71796988D01*
X130980000Y-70899364D01*
X130979999Y-70899364D01*
X130766513Y-70956567D01*
X130766507Y-70956570D01*
X130552422Y-71056399D01*
X130552420Y-71056400D01*
X130358926Y-71191886D01*
X130358920Y-71191891D01*
X130191891Y-71358920D01*
X130191886Y-71358926D01*
X130056400Y-71552420D01*
X130056399Y-71552422D01*
X129956570Y-71766507D01*
X129956564Y-71766522D01*
X129949154Y-71794177D01*
X129912788Y-71853837D01*
X129849941Y-71884365D01*
X129780566Y-71876070D01*
X129726688Y-71831583D01*
X129718380Y-71817354D01*
X129706838Y-71794174D01*
X129633088Y-71646065D01*
X129573904Y-71567693D01*
X129509730Y-71482712D01*
X129358462Y-71344814D01*
X129358460Y-71344812D01*
X129184430Y-71237057D01*
X129184424Y-71237054D01*
X129033993Y-71178777D01*
X128993556Y-71163112D01*
X128792347Y-71125500D01*
X128587653Y-71125500D01*
X128386444Y-71163112D01*
X128386441Y-71163112D01*
X128386441Y-71163113D01*
X128195575Y-71237054D01*
X128195569Y-71237057D01*
X128021539Y-71344812D01*
X128021537Y-71344814D01*
X127870264Y-71482717D01*
X127869605Y-71483441D01*
X127869203Y-71483684D01*
X127866031Y-71486577D01*
X127865464Y-71485956D01*
X127809891Y-71519717D01*
X127740044Y-71517950D01*
X127690295Y-71487575D01*
X126973470Y-70770750D01*
X126939985Y-70709427D01*
X126938682Y-70702494D01*
X126932498Y-70663445D01*
X126932494Y-70663438D01*
X126932296Y-70662826D01*
X126932273Y-70662025D01*
X126930971Y-70653803D01*
X126932032Y-70653634D01*
X126930297Y-70592985D01*
X126966374Y-70533149D01*
X127029072Y-70502317D01*
X127050225Y-70500500D01*
X161934108Y-70500500D01*
X161996249Y-70500500D01*
X162003736Y-70500726D01*
X162293796Y-70518271D01*
X162308657Y-70520075D01*
X162379996Y-70533149D01*
X162590798Y-70571780D01*
X162605335Y-70575363D01*
X162879172Y-70660695D01*
X162893163Y-70666000D01*
X163154743Y-70783727D01*
X163167989Y-70790680D01*
X163413465Y-70939075D01*
X163425776Y-70947573D01*
X163644424Y-71118872D01*
X163651573Y-71124473D01*
X163662781Y-71134403D01*
X163865596Y-71337218D01*
X163875526Y-71348426D01*
X164035346Y-71552422D01*
X164052422Y-71574217D01*
X164060926Y-71586537D01*
X164169722Y-71766507D01*
X164209316Y-71832004D01*
X164216275Y-71845263D01*
X164333997Y-72106831D01*
X164339306Y-72120832D01*
X164424635Y-72394663D01*
X164428219Y-72409201D01*
X164479923Y-72691340D01*
X164481728Y-72706205D01*
X164499274Y-72996263D01*
X164499500Y-73003750D01*
X164499500Y-96996249D01*
X164499274Y-97003736D01*
X164481728Y-97293794D01*
X164479923Y-97308659D01*
X164428219Y-97590798D01*
X164424635Y-97605336D01*
X164339306Y-97879167D01*
X164333997Y-97893168D01*
X164216275Y-98154736D01*
X164209316Y-98167995D01*
X164060928Y-98413459D01*
X164052422Y-98425782D01*
X163875526Y-98651573D01*
X163865596Y-98662781D01*
X163662781Y-98865596D01*
X163651573Y-98875526D01*
X163425782Y-99052422D01*
X163413459Y-99060928D01*
X163167995Y-99209316D01*
X163154736Y-99216275D01*
X162893168Y-99333997D01*
X162879167Y-99339306D01*
X162605336Y-99424635D01*
X162590798Y-99428219D01*
X162308659Y-99479923D01*
X162293794Y-99481728D01*
X162003736Y-99499274D01*
X161996249Y-99499500D01*
X103003751Y-99499500D01*
X102996264Y-99499274D01*
X102706205Y-99481728D01*
X102691340Y-99479923D01*
X102409201Y-99428219D01*
X102394663Y-99424635D01*
X102120832Y-99339306D01*
X102106831Y-99333997D01*
X101845263Y-99216275D01*
X101832004Y-99209316D01*
X101586540Y-99060928D01*
X101574217Y-99052422D01*
X101348426Y-98875526D01*
X101337218Y-98865596D01*
X101134403Y-98662781D01*
X101124473Y-98651573D01*
X101116785Y-98641760D01*
X100947573Y-98425776D01*
X100939075Y-98413465D01*
X100790680Y-98167989D01*
X100783727Y-98154743D01*
X100666000Y-97893163D01*
X100660693Y-97879167D01*
X100624703Y-97763672D01*
X100575363Y-97605335D01*
X100571780Y-97590798D01*
X100549368Y-97468498D01*
X100520075Y-97308657D01*
X100518271Y-97293794D01*
X100515307Y-97244800D01*
X100500726Y-97003736D01*
X100500500Y-96996249D01*
X100500500Y-96383718D01*
X102022500Y-96383718D01*
X102022500Y-96616281D01*
X102058881Y-96845983D01*
X102058881Y-96845986D01*
X102130745Y-97067160D01*
X102201261Y-97205555D01*
X102236328Y-97274379D01*
X102373026Y-97462527D01*
X102537473Y-97626974D01*
X102725621Y-97763672D01*
X102850034Y-97827063D01*
X102932839Y-97869254D01*
X103154014Y-97941118D01*
X103154015Y-97941118D01*
X103154018Y-97941119D01*
X103383718Y-97977500D01*
X103383719Y-97977500D01*
X103616281Y-97977500D01*
X103616282Y-97977500D01*
X103845982Y-97941119D01*
X103845985Y-97941118D01*
X103845986Y-97941118D01*
X104067160Y-97869254D01*
X104067160Y-97869253D01*
X104067163Y-97869253D01*
X104274379Y-97763672D01*
X104462527Y-97626974D01*
X104626974Y-97462527D01*
X104763672Y-97274379D01*
X104869253Y-97067163D01*
X104941119Y-96845982D01*
X104977500Y-96616282D01*
X104977500Y-96383718D01*
X104949024Y-96203928D01*
X110325500Y-96203928D01*
X110325500Y-97954063D01*
X110340266Y-98028301D01*
X110396515Y-98112484D01*
X110430234Y-98135014D01*
X110480699Y-98168734D01*
X110480702Y-98168734D01*
X110480703Y-98168735D01*
X110505666Y-98173700D01*
X110554933Y-98183500D01*
X112305066Y-98183499D01*
X112379301Y-98168734D01*
X112463484Y-98112484D01*
X112519734Y-98028301D01*
X112534500Y-97954067D01*
X112534499Y-96203934D01*
X112534498Y-96203928D01*
X131788500Y-96203928D01*
X131788500Y-97954063D01*
X131803266Y-98028301D01*
X131859515Y-98112484D01*
X131893234Y-98135014D01*
X131943699Y-98168734D01*
X131943702Y-98168734D01*
X131943703Y-98168735D01*
X131968666Y-98173700D01*
X132017933Y-98183500D01*
X133768066Y-98183499D01*
X133842301Y-98168734D01*
X133926484Y-98112484D01*
X133982734Y-98028301D01*
X133997500Y-97954067D01*
X133997499Y-96203934D01*
X133982734Y-96129699D01*
X133958638Y-96093637D01*
X133947473Y-96076928D01*
X141567500Y-96076928D01*
X141567500Y-97827063D01*
X141582266Y-97901301D01*
X141638515Y-97985484D01*
X141672234Y-98008014D01*
X141722699Y-98041734D01*
X141722702Y-98041734D01*
X141722703Y-98041735D01*
X141747666Y-98046700D01*
X141796933Y-98056500D01*
X143275417Y-98056499D01*
X143342456Y-98076184D01*
X143363098Y-98092818D01*
X143517243Y-98246963D01*
X143526941Y-98252562D01*
X143589750Y-98288826D01*
X143589752Y-98288827D01*
X143589753Y-98288827D01*
X143589756Y-98288829D01*
X143670635Y-98310500D01*
X147310961Y-98310500D01*
X147378000Y-98330185D01*
X147423755Y-98382989D01*
X147427133Y-98391143D01*
X147446742Y-98443715D01*
X147531526Y-98556974D01*
X147644785Y-98641758D01*
X147777343Y-98691200D01*
X147835943Y-98697500D01*
X148430056Y-98697499D01*
X148488657Y-98691200D01*
X148621215Y-98641758D01*
X148734474Y-98556974D01*
X148819258Y-98443715D01*
X148868700Y-98311157D01*
X148872185Y-98278734D01*
X148874999Y-98252573D01*
X148874999Y-98252562D01*
X148875000Y-98252557D01*
X148874999Y-97683444D01*
X148868700Y-97624843D01*
X148868699Y-97624839D01*
X148819260Y-97492290D01*
X148819259Y-97492288D01*
X148819258Y-97492285D01*
X148734474Y-97379026D01*
X148624189Y-97296468D01*
X148582320Y-97240538D01*
X148577336Y-97170847D01*
X148610820Y-97109523D01*
X148624177Y-97097948D01*
X148710974Y-97032974D01*
X148795758Y-96919715D01*
X148845200Y-96787157D01*
X148849390Y-96748183D01*
X148851499Y-96728573D01*
X148851499Y-96728562D01*
X148851500Y-96728557D01*
X148851499Y-96159444D01*
X148845200Y-96100843D01*
X148808594Y-96002699D01*
X148795760Y-95968290D01*
X148795759Y-95968288D01*
X148795758Y-95968285D01*
X148710974Y-95855026D01*
X148597715Y-95770242D01*
X148535061Y-95746873D01*
X148465159Y-95720800D01*
X148406565Y-95714500D01*
X147812446Y-95714500D01*
X147812437Y-95714501D01*
X147753840Y-95720800D01*
X147621290Y-95770239D01*
X147621281Y-95770244D01*
X147508026Y-95855026D01*
X147423244Y-95968281D01*
X147423243Y-95968283D01*
X147423242Y-95968285D01*
X147394502Y-96045336D01*
X147352633Y-96101267D01*
X147287169Y-96125684D01*
X147278323Y-96126000D01*
X145993424Y-96126000D01*
X145926385Y-96106315D01*
X145909886Y-96093637D01*
X145880462Y-96066814D01*
X145880460Y-96066812D01*
X145706430Y-95959057D01*
X145706424Y-95959054D01*
X145555993Y-95900777D01*
X145515556Y-95885112D01*
X145314347Y-95847500D01*
X145109653Y-95847500D01*
X144908444Y-95885112D01*
X144908441Y-95885112D01*
X144908441Y-95885113D01*
X144717575Y-95959054D01*
X144717569Y-95959057D01*
X144543539Y-96066812D01*
X144543537Y-96066814D01*
X144392269Y-96204712D01*
X144268912Y-96368064D01*
X144177673Y-96551295D01*
X144177672Y-96551299D01*
X144127237Y-96728562D01*
X144121654Y-96748183D01*
X144102768Y-96951999D01*
X144102768Y-96952000D01*
X144121654Y-97155816D01*
X144121654Y-97155818D01*
X144121655Y-97155821D01*
X144177672Y-97352701D01*
X144177673Y-97352704D01*
X144248642Y-97495228D01*
X144260903Y-97564014D01*
X144234030Y-97628508D01*
X144176554Y-97668236D01*
X144137642Y-97674500D01*
X143900499Y-97674500D01*
X143833460Y-97654815D01*
X143787705Y-97602011D01*
X143776499Y-97550500D01*
X143776499Y-96076936D01*
X143776499Y-96076934D01*
X143761734Y-96002699D01*
X143732571Y-95959054D01*
X143705484Y-95918515D01*
X143655019Y-95884796D01*
X143621301Y-95862266D01*
X143621299Y-95862265D01*
X143621296Y-95862264D01*
X143547069Y-95847500D01*
X141796936Y-95847500D01*
X141722698Y-95862266D01*
X141638515Y-95918515D01*
X141582266Y-96002699D01*
X141582264Y-96002703D01*
X141567500Y-96076928D01*
X133947473Y-96076928D01*
X133926484Y-96045515D01*
X133876019Y-96011796D01*
X133842301Y-95989266D01*
X133842299Y-95989265D01*
X133842296Y-95989264D01*
X133768069Y-95974500D01*
X132017936Y-95974500D01*
X131943698Y-95989266D01*
X131859515Y-96045515D01*
X131803266Y-96129699D01*
X131803264Y-96129703D01*
X131788500Y-96203928D01*
X112534498Y-96203928D01*
X112519734Y-96129699D01*
X112495638Y-96093637D01*
X112463484Y-96045515D01*
X112413019Y-96011796D01*
X112379301Y-95989266D01*
X112379299Y-95989265D01*
X112379296Y-95989264D01*
X112305069Y-95974500D01*
X110554936Y-95974500D01*
X110480698Y-95989266D01*
X110396515Y-96045515D01*
X110340266Y-96129699D01*
X110340264Y-96129703D01*
X110325500Y-96203928D01*
X104949024Y-96203928D01*
X104941119Y-96154018D01*
X104941118Y-96154014D01*
X104941118Y-96154013D01*
X104869254Y-95932839D01*
X104861956Y-95918515D01*
X104763672Y-95725621D01*
X104626974Y-95537473D01*
X104462527Y-95373026D01*
X104274379Y-95236328D01*
X104067160Y-95130745D01*
X103845985Y-95058881D01*
X103673707Y-95031595D01*
X103616282Y-95022500D01*
X103383718Y-95022500D01*
X103307151Y-95034627D01*
X103154016Y-95058881D01*
X103154013Y-95058881D01*
X102932839Y-95130745D01*
X102725620Y-95236328D01*
X102618275Y-95314319D01*
X102537473Y-95373026D01*
X102537471Y-95373028D01*
X102537470Y-95373028D01*
X102373028Y-95537470D01*
X102373028Y-95537471D01*
X102373026Y-95537473D01*
X102321599Y-95608256D01*
X102236328Y-95725620D01*
X102130745Y-95932839D01*
X102058881Y-96154013D01*
X102058881Y-96154016D01*
X102022500Y-96383718D01*
X100500500Y-96383718D01*
X100500500Y-94453592D01*
X116827500Y-94453592D01*
X116827500Y-95386407D01*
X116833606Y-95453609D01*
X116833606Y-95453611D01*
X116833607Y-95453613D01*
X116881795Y-95608256D01*
X116946022Y-95714501D01*
X116965594Y-95746876D01*
X117080123Y-95861405D01*
X117080125Y-95861406D01*
X117080127Y-95861408D01*
X117218744Y-95945205D01*
X117373387Y-95993393D01*
X117440590Y-95999500D01*
X117440593Y-95999500D01*
X118373407Y-95999500D01*
X118373410Y-95999500D01*
X118440613Y-95993393D01*
X118595256Y-95945205D01*
X118733873Y-95861408D01*
X118848408Y-95746873D01*
X118932205Y-95608256D01*
X118980393Y-95453613D01*
X118986500Y-95386410D01*
X118986500Y-94453590D01*
X118980393Y-94386387D01*
X118932205Y-94231744D01*
X118848408Y-94093127D01*
X118848406Y-94093125D01*
X118848405Y-94093123D01*
X118733876Y-93978594D01*
X118714697Y-93967000D01*
X118595256Y-93894795D01*
X118440613Y-93846607D01*
X118440611Y-93846606D01*
X118440609Y-93846606D01*
X118393559Y-93842331D01*
X118373410Y-93840500D01*
X117440590Y-93840500D01*
X117422272Y-93842164D01*
X117373390Y-93846606D01*
X117218743Y-93894795D01*
X117080123Y-93978594D01*
X116965594Y-94093123D01*
X116881795Y-94231743D01*
X116833606Y-94386390D01*
X116827500Y-94453592D01*
X100500500Y-94453592D01*
X100500500Y-89839999D01*
X116576939Y-89839999D01*
X116576939Y-89840000D01*
X116597145Y-90070958D01*
X116597147Y-90070968D01*
X116657148Y-90294900D01*
X116657152Y-90294909D01*
X116755132Y-90505029D01*
X116755133Y-90505031D01*
X116810023Y-90583422D01*
X116810023Y-90583423D01*
X117485274Y-89908172D01*
X117510963Y-90004044D01*
X117566916Y-90100956D01*
X117646044Y-90180084D01*
X117742956Y-90236037D01*
X117838827Y-90261725D01*
X117163575Y-90936975D01*
X117241973Y-90991868D01*
X117452090Y-91089847D01*
X117452099Y-91089851D01*
X117556441Y-91117809D01*
X117616102Y-91154174D01*
X117646631Y-91217020D01*
X117638337Y-91286396D01*
X117593851Y-91340274D01*
X117569142Y-91353211D01*
X117423764Y-91409530D01*
X117423763Y-91409531D01*
X117253667Y-91514851D01*
X117105823Y-91649628D01*
X116985258Y-91809281D01*
X116896088Y-91988358D01*
X116896083Y-91988371D01*
X116841333Y-92180793D01*
X116822875Y-92379999D01*
X116822875Y-92380000D01*
X116841333Y-92579206D01*
X116896083Y-92771628D01*
X116896088Y-92771641D01*
X116985258Y-92950718D01*
X117105822Y-93110370D01*
X117253669Y-93245150D01*
X117423764Y-93350469D01*
X117610315Y-93422739D01*
X117806970Y-93459500D01*
X117806972Y-93459500D01*
X118007028Y-93459500D01*
X118007030Y-93459500D01*
X118203685Y-93422739D01*
X118390236Y-93350469D01*
X118560331Y-93245150D01*
X118708178Y-93110370D01*
X118828742Y-92950718D01*
X118917916Y-92771631D01*
X118972666Y-92579207D01*
X118991125Y-92380000D01*
X118972666Y-92180793D01*
X118917916Y-91988369D01*
X118828742Y-91809282D01*
X118708178Y-91649630D01*
X118560331Y-91514850D01*
X118390236Y-91409531D01*
X118390235Y-91409530D01*
X118244857Y-91353211D01*
X118189456Y-91310638D01*
X118165865Y-91244871D01*
X118181576Y-91176791D01*
X118231600Y-91128012D01*
X118257558Y-91117809D01*
X118361900Y-91089851D01*
X118361909Y-91089847D01*
X118572030Y-90991867D01*
X118650423Y-90936975D01*
X117975172Y-90261725D01*
X118071044Y-90236037D01*
X118167956Y-90180084D01*
X118247084Y-90100956D01*
X118303037Y-90004044D01*
X118328725Y-89908172D01*
X119003975Y-90583423D01*
X119058867Y-90505030D01*
X119156847Y-90294909D01*
X119156851Y-90294900D01*
X119216852Y-90070968D01*
X119216854Y-90070958D01*
X119237061Y-89840000D01*
X119237061Y-89839999D01*
X119216854Y-89609041D01*
X119216852Y-89609031D01*
X119156851Y-89385099D01*
X119156847Y-89385090D01*
X119058868Y-89174972D01*
X119003974Y-89096576D01*
X118328725Y-89771826D01*
X118303037Y-89675956D01*
X118247084Y-89579044D01*
X118167956Y-89499916D01*
X118071044Y-89443963D01*
X117975171Y-89418274D01*
X118650423Y-88743023D01*
X118572031Y-88688133D01*
X118572029Y-88688132D01*
X118361909Y-88590152D01*
X118361900Y-88590148D01*
X118137968Y-88530147D01*
X118137958Y-88530145D01*
X117907001Y-88509939D01*
X117906999Y-88509939D01*
X117676041Y-88530145D01*
X117676031Y-88530147D01*
X117452099Y-88590148D01*
X117452090Y-88590152D01*
X117241974Y-88688131D01*
X117163576Y-88743024D01*
X117838827Y-89418274D01*
X117742956Y-89443963D01*
X117646044Y-89499916D01*
X117566916Y-89579044D01*
X117510963Y-89675956D01*
X117485274Y-89771827D01*
X116810024Y-89096576D01*
X116755131Y-89174974D01*
X116657152Y-89385090D01*
X116657148Y-89385099D01*
X116597147Y-89609031D01*
X116597145Y-89609041D01*
X116576939Y-89839999D01*
X100500500Y-89839999D01*
X100500500Y-83771986D01*
X107411001Y-83771986D01*
X107421494Y-83874697D01*
X107476641Y-84041119D01*
X107476643Y-84041124D01*
X107568684Y-84190345D01*
X107692654Y-84314315D01*
X107841875Y-84406356D01*
X107841880Y-84406358D01*
X108008302Y-84461505D01*
X108008309Y-84461506D01*
X108111019Y-84471999D01*
X108385999Y-84471999D01*
X108886000Y-84471999D01*
X109160972Y-84471999D01*
X109160986Y-84471998D01*
X109263697Y-84461505D01*
X109430119Y-84406358D01*
X109430124Y-84406356D01*
X109512581Y-84355496D01*
X121688458Y-84355496D01*
X121688458Y-84355503D01*
X121708500Y-84482051D01*
X121708501Y-84482054D01*
X121735467Y-84534976D01*
X121766484Y-84595851D01*
X121780000Y-84652145D01*
X121780000Y-90814135D01*
X121780000Y-90897865D01*
X121791328Y-90940143D01*
X121801672Y-90978747D01*
X121801673Y-90978749D01*
X121809248Y-90991868D01*
X121843537Y-91051257D01*
X121843539Y-91051259D01*
X125173181Y-94380901D01*
X125206666Y-94442224D01*
X125209500Y-94468582D01*
X125209500Y-95386407D01*
X125215606Y-95453609D01*
X125215606Y-95453611D01*
X125215607Y-95453613D01*
X125263795Y-95608256D01*
X125328022Y-95714501D01*
X125347594Y-95746876D01*
X125462123Y-95861405D01*
X125462125Y-95861406D01*
X125462127Y-95861408D01*
X125600744Y-95945205D01*
X125755387Y-95993393D01*
X125822590Y-95999500D01*
X125822593Y-95999500D01*
X126755407Y-95999500D01*
X126755410Y-95999500D01*
X126822613Y-95993393D01*
X126977256Y-95945205D01*
X127115873Y-95861408D01*
X127230408Y-95746873D01*
X127314205Y-95608256D01*
X127362393Y-95453613D01*
X127368500Y-95386410D01*
X127368500Y-94613775D01*
X127388185Y-94546736D01*
X127440989Y-94500981D01*
X127510147Y-94491037D01*
X127573703Y-94520062D01*
X127586213Y-94532573D01*
X127655843Y-94612931D01*
X127655849Y-94612936D01*
X127759741Y-94679704D01*
X127759746Y-94679706D01*
X127878244Y-94714499D01*
X127878246Y-94714500D01*
X127878247Y-94714500D01*
X128001754Y-94714500D01*
X128001754Y-94714499D01*
X128120256Y-94679705D01*
X128128357Y-94674499D01*
X128208982Y-94622685D01*
X128276021Y-94603000D01*
X139708354Y-94603000D01*
X139764646Y-94616514D01*
X139878445Y-94674498D01*
X139878446Y-94674498D01*
X139878448Y-94674499D01*
X140004997Y-94694542D01*
X140005000Y-94694542D01*
X140005003Y-94694542D01*
X140131551Y-94674499D01*
X140131552Y-94674498D01*
X140131555Y-94674498D01*
X140245723Y-94616326D01*
X140336326Y-94525723D01*
X140394498Y-94411555D01*
X140398484Y-94386390D01*
X140414542Y-94285003D01*
X140414542Y-94284996D01*
X140394499Y-94158448D01*
X140394498Y-94158446D01*
X140394498Y-94158445D01*
X140336326Y-94044277D01*
X140336322Y-94044273D01*
X140336321Y-94044271D01*
X140245728Y-93953678D01*
X140245725Y-93953676D01*
X140245723Y-93953674D01*
X140131555Y-93895502D01*
X140131554Y-93895501D01*
X140131551Y-93895500D01*
X140005003Y-93875458D01*
X140004997Y-93875458D01*
X139878448Y-93895500D01*
X139825672Y-93922390D01*
X139764646Y-93953485D01*
X139708354Y-93967000D01*
X128276021Y-93967000D01*
X128208982Y-93947315D01*
X128120258Y-93890295D01*
X128120253Y-93890293D01*
X128001755Y-93855500D01*
X128001753Y-93855500D01*
X127878247Y-93855500D01*
X127878244Y-93855500D01*
X127759746Y-93890293D01*
X127759741Y-93890295D01*
X127655849Y-93957063D01*
X127655847Y-93957065D01*
X127574966Y-94050406D01*
X127574963Y-94050410D01*
X127523660Y-94162750D01*
X127521159Y-94171267D01*
X127517811Y-94170283D01*
X127495667Y-94218645D01*
X127436850Y-94256360D01*
X127366980Y-94256289D01*
X127308241Y-94218455D01*
X127295925Y-94201505D01*
X127230408Y-94093127D01*
X127230406Y-94093125D01*
X127230405Y-94093123D01*
X127115876Y-93978594D01*
X127096697Y-93967000D01*
X126977256Y-93894795D01*
X126822613Y-93846607D01*
X126822611Y-93846606D01*
X126822609Y-93846606D01*
X126775559Y-93842331D01*
X126755410Y-93840500D01*
X125822590Y-93840500D01*
X125755387Y-93846607D01*
X125726848Y-93855500D01*
X125661460Y-93875875D01*
X125591600Y-93877025D01*
X125536890Y-93845170D01*
X122452319Y-90760599D01*
X122418834Y-90699276D01*
X122416000Y-90672918D01*
X122416000Y-87488267D01*
X140589284Y-87488267D01*
X140748053Y-87543823D01*
X140748058Y-87543824D01*
X140915996Y-87562746D01*
X140916003Y-87562746D01*
X141048010Y-87547872D01*
X141116832Y-87559926D01*
X141168212Y-87607275D01*
X141185836Y-87674885D01*
X141185114Y-87684974D01*
X141171254Y-87807994D01*
X141171254Y-87808003D01*
X141184986Y-87929883D01*
X141172931Y-87998705D01*
X141125582Y-88050084D01*
X141057972Y-88067708D01*
X141047883Y-88066986D01*
X140926004Y-88053254D01*
X140925996Y-88053254D01*
X140758055Y-88072176D01*
X140599285Y-88127731D01*
X140926000Y-88454446D01*
X141572446Y-87808000D01*
X141552555Y-87788109D01*
X141826000Y-87788109D01*
X141826000Y-87827891D01*
X141841224Y-87864645D01*
X141869355Y-87892776D01*
X141906109Y-87908000D01*
X141945891Y-87908000D01*
X141982645Y-87892776D01*
X142010776Y-87864645D01*
X142026000Y-87827891D01*
X142026000Y-87807999D01*
X142279554Y-87807999D01*
X142279554Y-87808000D01*
X142926000Y-88454446D01*
X143572446Y-87808000D01*
X143552555Y-87788109D01*
X143826000Y-87788109D01*
X143826000Y-87827891D01*
X143841224Y-87864645D01*
X143869355Y-87892776D01*
X143906109Y-87908000D01*
X143945891Y-87908000D01*
X143982645Y-87892776D01*
X144010776Y-87864645D01*
X144026000Y-87827891D01*
X144026000Y-87808000D01*
X144279554Y-87808000D01*
X144926000Y-88454446D01*
X144926001Y-88454446D01*
X145252714Y-88127731D01*
X145093944Y-88072176D01*
X144926004Y-88053254D01*
X144925996Y-88053254D01*
X144804116Y-88066986D01*
X144735294Y-88054931D01*
X144683915Y-88007582D01*
X144666291Y-87939972D01*
X144667013Y-87929882D01*
X144680746Y-87808002D01*
X144680746Y-87807997D01*
X144667013Y-87686117D01*
X144679067Y-87617295D01*
X144726416Y-87565916D01*
X144794026Y-87548291D01*
X144804117Y-87549013D01*
X144925997Y-87562746D01*
X144926004Y-87562746D01*
X145093938Y-87543824D01*
X145093943Y-87543823D01*
X145252713Y-87488267D01*
X145252714Y-87488267D01*
X144926000Y-87161554D01*
X144279554Y-87808000D01*
X144026000Y-87808000D01*
X144026000Y-87788109D01*
X144010776Y-87751355D01*
X143982645Y-87723224D01*
X143945891Y-87708000D01*
X143906109Y-87708000D01*
X143869355Y-87723224D01*
X143841224Y-87751355D01*
X143826000Y-87788109D01*
X143552555Y-87788109D01*
X143293764Y-87529318D01*
X143293762Y-87529315D01*
X143168288Y-87403841D01*
X143156260Y-87381814D01*
X142926000Y-87151554D01*
X142702836Y-87374717D01*
X142700346Y-87383198D01*
X142683712Y-87403840D01*
X142654727Y-87432825D01*
X142279554Y-87807999D01*
X142026000Y-87807999D01*
X142026000Y-87788109D01*
X142010776Y-87751355D01*
X141982645Y-87723224D01*
X141945891Y-87708000D01*
X141906109Y-87708000D01*
X141869355Y-87723224D01*
X141841224Y-87751355D01*
X141826000Y-87788109D01*
X141552555Y-87788109D01*
X141349282Y-87584836D01*
X141340800Y-87582346D01*
X141320158Y-87565712D01*
X141291172Y-87536726D01*
X141291170Y-87536723D01*
X140916001Y-87161554D01*
X140916000Y-87161554D01*
X140589284Y-87488267D01*
X122416000Y-87488267D01*
X122416000Y-86807996D01*
X140161254Y-86807996D01*
X140161254Y-86808003D01*
X140180176Y-86975944D01*
X140235731Y-87134713D01*
X140562446Y-86808000D01*
X140542555Y-86788109D01*
X140816000Y-86788109D01*
X140816000Y-86827891D01*
X140831224Y-86864645D01*
X140859355Y-86892776D01*
X140896109Y-86908000D01*
X140935891Y-86908000D01*
X140972645Y-86892776D01*
X141000776Y-86864645D01*
X141016000Y-86827891D01*
X141016000Y-86807999D01*
X141269554Y-86807999D01*
X141269554Y-86808000D01*
X141492717Y-87031163D01*
X141501200Y-87033654D01*
X141521843Y-87050288D01*
X141647318Y-87175764D01*
X141926000Y-87454446D01*
X142149163Y-87231282D01*
X142151654Y-87222800D01*
X142168287Y-87202158D01*
X142293765Y-87076679D01*
X142572445Y-86797999D01*
X142552555Y-86778109D01*
X142826000Y-86778109D01*
X142826000Y-86817891D01*
X142841224Y-86854645D01*
X142869355Y-86882776D01*
X142906109Y-86898000D01*
X142945891Y-86898000D01*
X142982645Y-86882776D01*
X143010776Y-86854645D01*
X143026000Y-86817891D01*
X143026000Y-86797999D01*
X143279554Y-86797999D01*
X143279554Y-86798001D01*
X143654711Y-87173158D01*
X143654726Y-87173172D01*
X143683712Y-87202158D01*
X143695740Y-87224186D01*
X143926000Y-87454446D01*
X144572446Y-86808000D01*
X144552555Y-86788109D01*
X144826000Y-86788109D01*
X144826000Y-86827891D01*
X144841224Y-86864645D01*
X144869355Y-86892776D01*
X144906109Y-86908000D01*
X144945891Y-86908000D01*
X144982645Y-86892776D01*
X145010776Y-86864645D01*
X145026000Y-86827891D01*
X145026000Y-86807999D01*
X145279554Y-86807999D01*
X145279554Y-86808001D01*
X145606267Y-87134714D01*
X145606267Y-87134713D01*
X145661823Y-86975943D01*
X145661824Y-86975938D01*
X145680746Y-86808003D01*
X145680746Y-86807996D01*
X145661824Y-86640058D01*
X145661823Y-86640053D01*
X145606267Y-86481285D01*
X145606267Y-86481284D01*
X145279554Y-86807999D01*
X145026000Y-86807999D01*
X145026000Y-86788109D01*
X145010776Y-86751355D01*
X144982645Y-86723224D01*
X144945891Y-86708000D01*
X144906109Y-86708000D01*
X144869355Y-86723224D01*
X144841224Y-86751355D01*
X144826000Y-86788109D01*
X144552555Y-86788109D01*
X144245731Y-86481285D01*
X144190176Y-86640055D01*
X144171254Y-86807996D01*
X144171254Y-86808003D01*
X144184986Y-86929883D01*
X144172931Y-86998705D01*
X144125582Y-87050084D01*
X144057972Y-87067708D01*
X144047883Y-87066986D01*
X143926004Y-87053254D01*
X143925995Y-87053254D01*
X143802974Y-87067114D01*
X143734153Y-87055059D01*
X143682774Y-87007710D01*
X143665150Y-86940099D01*
X143665872Y-86930010D01*
X143680746Y-86798002D01*
X143680746Y-86797996D01*
X143661824Y-86630058D01*
X143661823Y-86630053D01*
X143606267Y-86471285D01*
X143606267Y-86471284D01*
X143279554Y-86797999D01*
X143026000Y-86797999D01*
X143026000Y-86778109D01*
X143010776Y-86741355D01*
X142982645Y-86713224D01*
X142945891Y-86698000D01*
X142906109Y-86698000D01*
X142869355Y-86713224D01*
X142841224Y-86741355D01*
X142826000Y-86778109D01*
X142552555Y-86778109D01*
X142245731Y-86471285D01*
X142190176Y-86630055D01*
X142171254Y-86797996D01*
X142171254Y-86798003D01*
X142186127Y-86930011D01*
X142174072Y-86998833D01*
X142126723Y-87050212D01*
X142059113Y-87067836D01*
X142049024Y-87067114D01*
X141926004Y-87053254D01*
X141925996Y-87053254D01*
X141793988Y-87068127D01*
X141725166Y-87056072D01*
X141673787Y-87008723D01*
X141656163Y-86941113D01*
X141656885Y-86931023D01*
X141670746Y-86808002D01*
X141670746Y-86807996D01*
X141651824Y-86640058D01*
X141651823Y-86640053D01*
X141596267Y-86481285D01*
X141596267Y-86481284D01*
X141269554Y-86807999D01*
X141016000Y-86807999D01*
X141016000Y-86788109D01*
X141000776Y-86751355D01*
X140972645Y-86723224D01*
X140935891Y-86708000D01*
X140896109Y-86708000D01*
X140859355Y-86723224D01*
X140831224Y-86751355D01*
X140816000Y-86788109D01*
X140542555Y-86788109D01*
X140235731Y-86481285D01*
X140180176Y-86640055D01*
X140161254Y-86807996D01*
X122416000Y-86807996D01*
X122416000Y-86127731D01*
X140589285Y-86127731D01*
X140916000Y-86454446D01*
X140916001Y-86454446D01*
X141242714Y-86127731D01*
X141214135Y-86117731D01*
X142599285Y-86117731D01*
X142926000Y-86444446D01*
X142926001Y-86444446D01*
X143242714Y-86127731D01*
X144599285Y-86127731D01*
X144926000Y-86454446D01*
X144926001Y-86454446D01*
X145252714Y-86127731D01*
X145093944Y-86072176D01*
X144926004Y-86053254D01*
X144925996Y-86053254D01*
X144758055Y-86072176D01*
X144599285Y-86127731D01*
X143242714Y-86127731D01*
X143252714Y-86117731D01*
X143093944Y-86062176D01*
X142926004Y-86043254D01*
X142925996Y-86043254D01*
X142758055Y-86062176D01*
X142599285Y-86117731D01*
X141214135Y-86117731D01*
X141083944Y-86072176D01*
X140916004Y-86053254D01*
X140915996Y-86053254D01*
X140748055Y-86072176D01*
X140589285Y-86127731D01*
X122416000Y-86127731D01*
X122416000Y-84652145D01*
X122429515Y-84595851D01*
X122487498Y-84482055D01*
X122490753Y-84461505D01*
X122507542Y-84355503D01*
X122507542Y-84355496D01*
X122487499Y-84228948D01*
X122487498Y-84228946D01*
X122487498Y-84228945D01*
X122429326Y-84114777D01*
X122429322Y-84114773D01*
X122429321Y-84114771D01*
X122338728Y-84024178D01*
X122338725Y-84024176D01*
X122338723Y-84024174D01*
X122224555Y-83966002D01*
X122224554Y-83966001D01*
X122224551Y-83966000D01*
X122098003Y-83945958D01*
X122097997Y-83945958D01*
X121971448Y-83966000D01*
X121922457Y-83990963D01*
X121857277Y-84024174D01*
X121857276Y-84024175D01*
X121857271Y-84024178D01*
X121766678Y-84114771D01*
X121766675Y-84114776D01*
X121766674Y-84114777D01*
X121741842Y-84163512D01*
X121708500Y-84228948D01*
X121688458Y-84355496D01*
X109512581Y-84355496D01*
X109579345Y-84314315D01*
X109703315Y-84190345D01*
X109795356Y-84041124D01*
X109795358Y-84041119D01*
X109850505Y-83874697D01*
X109850506Y-83874690D01*
X109860999Y-83771986D01*
X109861000Y-83771973D01*
X109861000Y-83634500D01*
X108886000Y-83634500D01*
X108886000Y-84471999D01*
X108385999Y-84471999D01*
X108386000Y-84471998D01*
X108386000Y-83634500D01*
X107411001Y-83634500D01*
X107411001Y-83771986D01*
X100500500Y-83771986D01*
X100500500Y-82997013D01*
X107411000Y-82997013D01*
X107411000Y-83134500D01*
X109860999Y-83134500D01*
X109860999Y-82997028D01*
X109860998Y-82997013D01*
X109850505Y-82894302D01*
X109795358Y-82727880D01*
X109795356Y-82727875D01*
X109703315Y-82578654D01*
X109579345Y-82454684D01*
X109430124Y-82362643D01*
X109430119Y-82362641D01*
X109343917Y-82334077D01*
X109286472Y-82294304D01*
X109259649Y-82229789D01*
X109271964Y-82161013D01*
X109319507Y-82109813D01*
X109339582Y-82100191D01*
X109355267Y-82094342D01*
X109471404Y-82007404D01*
X109558342Y-81891267D01*
X109609040Y-81755342D01*
X109613652Y-81712445D01*
X109615499Y-81695271D01*
X109615499Y-81695264D01*
X109615500Y-81695255D01*
X109615499Y-80923746D01*
X109609040Y-80863658D01*
X109586049Y-80802018D01*
X109558344Y-80727738D01*
X109558343Y-80727737D01*
X109558342Y-80727733D01*
X109511139Y-80664676D01*
X109471404Y-80611595D01*
X109377184Y-80541065D01*
X109355267Y-80524658D01*
X109219342Y-80473960D01*
X109219338Y-80473959D01*
X109159271Y-80467500D01*
X109159255Y-80467500D01*
X109078000Y-80467500D01*
X109010961Y-80447815D01*
X108965206Y-80395011D01*
X108954000Y-80343500D01*
X108954000Y-79906013D01*
X111729000Y-79906013D01*
X111729000Y-80043500D01*
X112704000Y-80043500D01*
X112704000Y-79206000D01*
X112429029Y-79206000D01*
X112429012Y-79206001D01*
X112326302Y-79216494D01*
X112159880Y-79271641D01*
X112159875Y-79271643D01*
X112010654Y-79363684D01*
X111886684Y-79487654D01*
X111794643Y-79636875D01*
X111794641Y-79636880D01*
X111739494Y-79803302D01*
X111739493Y-79803309D01*
X111729000Y-79906013D01*
X108954000Y-79906013D01*
X108954000Y-79101081D01*
X108973685Y-79034042D01*
X108990315Y-79013404D01*
X109671250Y-78332468D01*
X109732571Y-78298985D01*
X109739495Y-78297684D01*
X109778555Y-78291498D01*
X109892723Y-78233326D01*
X109983326Y-78142723D01*
X110041498Y-78028555D01*
X110048727Y-77982915D01*
X110061542Y-77902003D01*
X110061542Y-77901996D01*
X110041499Y-77775448D01*
X110041498Y-77775446D01*
X110041498Y-77775445D01*
X109983326Y-77661277D01*
X109983322Y-77661273D01*
X109983321Y-77661271D01*
X109892728Y-77570678D01*
X109892725Y-77570676D01*
X109892723Y-77570674D01*
X109778555Y-77512502D01*
X109778554Y-77512501D01*
X109778551Y-77512500D01*
X109652003Y-77492458D01*
X109651997Y-77492458D01*
X109525448Y-77512500D01*
X109469493Y-77541011D01*
X109411277Y-77570674D01*
X109411276Y-77570675D01*
X109411271Y-77570678D01*
X109320678Y-77661271D01*
X109320675Y-77661276D01*
X109262502Y-77775445D01*
X109256321Y-77814468D01*
X109226390Y-77877602D01*
X109221529Y-77882749D01*
X108381539Y-78722740D01*
X108381533Y-78722749D01*
X108339671Y-78795252D01*
X108337255Y-78804274D01*
X108337254Y-78804277D01*
X108318000Y-78876135D01*
X108318000Y-80343500D01*
X108298315Y-80410539D01*
X108245511Y-80456294D01*
X108194001Y-80467500D01*
X108112748Y-80467500D01*
X108112741Y-80467501D01*
X108052655Y-80473960D01*
X107916738Y-80524655D01*
X107916730Y-80524660D01*
X107800595Y-80611595D01*
X107713660Y-80727730D01*
X107713658Y-80727733D01*
X107662960Y-80863658D01*
X107662959Y-80863662D01*
X107656500Y-80923728D01*
X107656500Y-81695251D01*
X107656501Y-81695257D01*
X107662960Y-81755344D01*
X107713655Y-81891261D01*
X107713656Y-81891264D01*
X107713658Y-81891267D01*
X107737157Y-81922658D01*
X107800595Y-82007404D01*
X107853113Y-82046717D01*
X107916733Y-82094342D01*
X107916736Y-82094343D01*
X107932412Y-82100190D01*
X107988345Y-82142062D01*
X108012761Y-82207526D01*
X107997909Y-82275799D01*
X107948503Y-82325204D01*
X107928082Y-82334077D01*
X107841878Y-82362642D01*
X107841875Y-82362643D01*
X107692654Y-82454684D01*
X107568684Y-82578654D01*
X107476643Y-82727875D01*
X107476641Y-82727880D01*
X107421494Y-82894302D01*
X107421493Y-82894309D01*
X107411000Y-82997013D01*
X100500500Y-82997013D01*
X100500500Y-73383718D01*
X102022500Y-73383718D01*
X102022500Y-73616281D01*
X102058881Y-73845983D01*
X102058881Y-73845986D01*
X102130745Y-74067160D01*
X102191330Y-74186065D01*
X102236328Y-74274379D01*
X102373026Y-74462527D01*
X102537473Y-74626974D01*
X102725621Y-74763672D01*
X102932837Y-74869253D01*
X102932839Y-74869254D01*
X103154014Y-74941118D01*
X103154015Y-74941118D01*
X103154018Y-74941119D01*
X103383718Y-74977500D01*
X103383719Y-74977500D01*
X103616281Y-74977500D01*
X103616282Y-74977500D01*
X103845982Y-74941119D01*
X103845985Y-74941118D01*
X103845986Y-74941118D01*
X104067160Y-74869254D01*
X104067160Y-74869253D01*
X104067163Y-74869253D01*
X104274379Y-74763672D01*
X104462527Y-74626974D01*
X104626974Y-74462527D01*
X104763672Y-74274379D01*
X104869253Y-74067163D01*
X104871672Y-74059717D01*
X104941118Y-73845986D01*
X104941118Y-73845985D01*
X104941119Y-73845982D01*
X104977500Y-73616282D01*
X104977500Y-73383718D01*
X104941119Y-73154018D01*
X104941118Y-73154014D01*
X104941118Y-73154013D01*
X104869254Y-72932839D01*
X104860766Y-72916181D01*
X104763672Y-72725621D01*
X104626974Y-72537473D01*
X104462527Y-72373026D01*
X104274379Y-72236328D01*
X104261957Y-72229999D01*
X107260768Y-72229999D01*
X107260768Y-72230000D01*
X107279654Y-72433816D01*
X107279654Y-72433818D01*
X107279655Y-72433821D01*
X107335672Y-72630701D01*
X107335673Y-72630704D01*
X107426912Y-72813935D01*
X107550269Y-72977287D01*
X107701537Y-73115185D01*
X107701539Y-73115187D01*
X107875569Y-73222942D01*
X107875575Y-73222945D01*
X107913737Y-73237729D01*
X108066444Y-73296888D01*
X108267653Y-73334500D01*
X108267656Y-73334500D01*
X108472344Y-73334500D01*
X108472347Y-73334500D01*
X108673556Y-73296888D01*
X108864427Y-73222944D01*
X109038462Y-73115186D01*
X109189732Y-72977285D01*
X109313088Y-72813935D01*
X109404328Y-72630701D01*
X109460345Y-72433821D01*
X109479232Y-72230000D01*
X109460345Y-72026179D01*
X109404328Y-71829299D01*
X109313088Y-71646065D01*
X109253904Y-71567693D01*
X109189730Y-71482712D01*
X109038462Y-71344814D01*
X109038460Y-71344812D01*
X108864430Y-71237057D01*
X108864424Y-71237054D01*
X108713993Y-71178777D01*
X108673556Y-71163112D01*
X108472347Y-71125500D01*
X108267653Y-71125500D01*
X108066444Y-71163112D01*
X108066441Y-71163112D01*
X108066441Y-71163113D01*
X107875575Y-71237054D01*
X107875569Y-71237057D01*
X107701539Y-71344812D01*
X107701537Y-71344814D01*
X107550269Y-71482712D01*
X107426912Y-71646064D01*
X107335673Y-71829295D01*
X107279654Y-72026183D01*
X107260768Y-72229999D01*
X104261957Y-72229999D01*
X104223325Y-72210315D01*
X104067160Y-72130745D01*
X103845985Y-72058881D01*
X103639510Y-72026179D01*
X103616282Y-72022500D01*
X103383718Y-72022500D01*
X103360490Y-72026179D01*
X103154016Y-72058881D01*
X103154013Y-72058881D01*
X102932839Y-72130745D01*
X102725620Y-72236328D01*
X102643729Y-72295826D01*
X102537473Y-72373026D01*
X102537471Y-72373028D01*
X102537470Y-72373028D01*
X102373028Y-72537470D01*
X102373028Y-72537471D01*
X102373026Y-72537473D01*
X102323118Y-72606165D01*
X102236328Y-72725620D01*
X102130745Y-72932839D01*
X102058881Y-73154013D01*
X102058881Y-73154016D01*
X102022500Y-73383718D01*
X100500500Y-73383718D01*
X100500500Y-73003750D01*
X100500726Y-72996263D01*
X100518271Y-72706205D01*
X100520076Y-72691340D01*
X100521839Y-72681723D01*
X100571780Y-72409197D01*
X100575364Y-72394663D01*
X100582106Y-72373028D01*
X100660696Y-72120822D01*
X100665998Y-72106841D01*
X100783731Y-71845249D01*
X100790676Y-71832016D01*
X100939080Y-71586526D01*
X100947567Y-71574230D01*
X101124480Y-71348417D01*
X101134395Y-71337226D01*
X101337226Y-71134395D01*
X101348417Y-71124480D01*
X101574230Y-70947567D01*
X101586526Y-70939080D01*
X101832016Y-70790676D01*
X101845249Y-70783731D01*
X102106841Y-70665998D01*
X102120822Y-70660696D01*
X102394668Y-70575362D01*
X102409197Y-70571780D01*
X102691344Y-70520075D01*
X102706201Y-70518271D01*
X102996264Y-70500726D01*
X103003751Y-70500500D01*
X103065892Y-70500500D01*
X126035775Y-70500500D01*
X126102814Y-70520185D01*
G37*
G04 #@! TD.AperFunction*
G04 #@! TA.AperFunction,Conductor*
G36*
X150464703Y-82355005D02*
G01*
X150471181Y-82361037D01*
X150596181Y-82486037D01*
X150629666Y-82547360D01*
X150632500Y-82573718D01*
X150632500Y-86095660D01*
X150612815Y-86162699D01*
X150560011Y-86208454D01*
X150551834Y-86211841D01*
X150462290Y-86245239D01*
X150462281Y-86245244D01*
X150349026Y-86330026D01*
X150264244Y-86443281D01*
X150264241Y-86443288D01*
X150214800Y-86575839D01*
X150214800Y-86575841D01*
X150208500Y-86634426D01*
X150208500Y-87159916D01*
X150188815Y-87226955D01*
X150172181Y-87247597D01*
X150074035Y-87345743D01*
X150012712Y-87379228D01*
X149943020Y-87374244D01*
X149887087Y-87332372D01*
X149862670Y-87266908D01*
X149863064Y-87244810D01*
X149866458Y-87213243D01*
X149867499Y-87203568D01*
X149867499Y-87203562D01*
X149867500Y-87203557D01*
X149867499Y-86634444D01*
X149861200Y-86575843D01*
X149830063Y-86492361D01*
X149811760Y-86443290D01*
X149811759Y-86443288D01*
X149811758Y-86443285D01*
X149726974Y-86330026D01*
X149641709Y-86266198D01*
X149613718Y-86245244D01*
X149613717Y-86245243D01*
X149613715Y-86245242D01*
X149573232Y-86230142D01*
X149481160Y-86195800D01*
X149481158Y-86195800D01*
X149422573Y-86189500D01*
X149422557Y-86189500D01*
X149210000Y-86189500D01*
X149142961Y-86169815D01*
X149097206Y-86117011D01*
X149086000Y-86065500D01*
X149086000Y-85818645D01*
X149097439Y-85770999D01*
X149526000Y-85770999D01*
X149562640Y-85770999D01*
X149562654Y-85770998D01*
X149663652Y-85760680D01*
X149827300Y-85706453D01*
X149827311Y-85706448D01*
X149974034Y-85615947D01*
X149974038Y-85615944D01*
X150095944Y-85494038D01*
X150095947Y-85494034D01*
X150186448Y-85347311D01*
X150186453Y-85347300D01*
X150240680Y-85183652D01*
X150250999Y-85082654D01*
X150251000Y-85082641D01*
X150251000Y-84983500D01*
X149526000Y-84983500D01*
X149526000Y-85770999D01*
X149097439Y-85770999D01*
X149099515Y-85762351D01*
X149157498Y-85648555D01*
X149177542Y-85522000D01*
X149177542Y-85521996D01*
X149157499Y-85395448D01*
X149157498Y-85395446D01*
X149157498Y-85395445D01*
X149099326Y-85281277D01*
X149099322Y-85281273D01*
X149099321Y-85281271D01*
X149062319Y-85244269D01*
X149028834Y-85182946D01*
X149026000Y-85156588D01*
X149026000Y-84857500D01*
X149045685Y-84790461D01*
X149098489Y-84744706D01*
X149150000Y-84733500D01*
X149276000Y-84733500D01*
X149276000Y-84607500D01*
X149295685Y-84540461D01*
X149348489Y-84494706D01*
X149400000Y-84483500D01*
X150250999Y-84483500D01*
X150250999Y-84384360D01*
X150250998Y-84384345D01*
X150240680Y-84283347D01*
X150186453Y-84119699D01*
X150186448Y-84119688D01*
X150121595Y-84014546D01*
X150103154Y-83947154D01*
X150124076Y-83880490D01*
X150139447Y-83861772D01*
X150195963Y-83805257D01*
X150237829Y-83732744D01*
X150259500Y-83651865D01*
X150259500Y-83568135D01*
X150259500Y-82448718D01*
X150279185Y-82381679D01*
X150331989Y-82335924D01*
X150401147Y-82325980D01*
X150464703Y-82355005D01*
G37*
G04 #@! TD.AperFunction*
G04 #@! TA.AperFunction,Conductor*
G36*
X118780000Y-76100633D02*
G01*
X118993483Y-76043433D01*
X118993492Y-76043429D01*
X119207579Y-75943599D01*
X119207585Y-75943595D01*
X119298876Y-75879673D01*
X119365082Y-75857345D01*
X119432849Y-75874355D01*
X119480663Y-75925302D01*
X119494000Y-75981247D01*
X119494000Y-76082135D01*
X119494000Y-76165865D01*
X119514620Y-76242820D01*
X119515672Y-76246747D01*
X119515673Y-76246749D01*
X119546810Y-76300678D01*
X119557537Y-76319257D01*
X122986537Y-79748257D01*
X123045743Y-79807463D01*
X123118257Y-79849329D01*
X123199135Y-79871000D01*
X126237918Y-79871000D01*
X126304957Y-79890685D01*
X126350712Y-79943489D01*
X126360656Y-80012647D01*
X126331631Y-80076203D01*
X126325599Y-80082681D01*
X125634749Y-80773529D01*
X125573426Y-80807014D01*
X125566468Y-80808320D01*
X125527445Y-80814502D01*
X125413277Y-80872674D01*
X125413276Y-80872675D01*
X125413271Y-80872678D01*
X125322678Y-80963271D01*
X125322675Y-80963276D01*
X125322674Y-80963277D01*
X125301055Y-81005707D01*
X125264500Y-81077448D01*
X125244458Y-81203996D01*
X125244458Y-81204003D01*
X125264500Y-81330551D01*
X125264500Y-81330552D01*
X125269674Y-81340705D01*
X125282570Y-81409374D01*
X125256294Y-81474115D01*
X125199187Y-81514372D01*
X125159189Y-81521000D01*
X123242082Y-81521000D01*
X123175043Y-81501315D01*
X123154401Y-81484681D01*
X117901672Y-76231952D01*
X117868187Y-76170629D01*
X117873171Y-76100937D01*
X117915043Y-76045004D01*
X117980507Y-76020587D01*
X118041758Y-76031889D01*
X118066507Y-76043430D01*
X118066516Y-76043433D01*
X118280000Y-76100634D01*
X118280000Y-75203012D01*
X118337007Y-75235925D01*
X118464174Y-75270000D01*
X118595826Y-75270000D01*
X118722993Y-75235925D01*
X118780000Y-75203012D01*
X118780000Y-76100633D01*
G37*
G04 #@! TD.AperFunction*
M02*
