G04 #@! TF.GenerationSoftware,KiCad,Pcbnew,8.0.8*
G04 #@! TF.CreationDate,2025-02-13T09:25:44+02:00*
G04 #@! TF.ProjectId,civic_serializer,63697669-635f-4736-9572-69616c697a65,rev?*
G04 #@! TF.SameCoordinates,Original*
G04 #@! TF.FileFunction,Soldermask,Top*
G04 #@! TF.FilePolarity,Negative*
%FSLAX46Y46*%
G04 Gerber Fmt 4.6, Leading zero omitted, Abs format (unit mm)*
G04 Created by KiCad (PCBNEW 8.0.8) date 2025-02-13 09:25:44*
%MOMM*%
%LPD*%
G01*
G04 APERTURE LIST*
G04 Aperture macros list*
%AMRoundRect*
0 Rectangle with rounded corners*
0 $1 Rounding radius*
0 $2 $3 $4 $5 $6 $7 $8 $9 X,Y pos of 4 corners*
0 Add a 4 corners polygon primitive as box body*
4,1,4,$2,$3,$4,$5,$6,$7,$8,$9,$2,$3,0*
0 Add four circle primitives for the rounded corners*
1,1,$1+$1,$2,$3*
1,1,$1+$1,$4,$5*
1,1,$1+$1,$6,$7*
1,1,$1+$1,$8,$9*
0 Add four rect primitives between the rounded corners*
20,1,$1+$1,$2,$3,$4,$5,0*
20,1,$1+$1,$4,$5,$6,$7,0*
20,1,$1+$1,$6,$7,$8,$9,0*
20,1,$1+$1,$8,$9,$2,$3,0*%
G04 Aperture macros list end*
%ADD10RoundRect,0.237500X-0.300000X-0.237500X0.300000X-0.237500X0.300000X0.237500X-0.300000X0.237500X0*%
%ADD11C,2.700000*%
%ADD12RoundRect,0.237500X-0.237500X0.250000X-0.237500X-0.250000X0.237500X-0.250000X0.237500X0.250000X0*%
%ADD13RoundRect,0.412500X0.412500X-0.412500X0.412500X0.412500X-0.412500X0.412500X-0.412500X-0.412500X0*%
%ADD14C,1.650000*%
%ADD15RoundRect,0.375000X-0.375000X0.625000X-0.375000X-0.625000X0.375000X-0.625000X0.375000X0.625000X0*%
%ADD16RoundRect,0.500000X-1.400000X0.500000X-1.400000X-0.500000X1.400000X-0.500000X1.400000X0.500000X0*%
%ADD17RoundRect,0.250001X1.099999X-1.099999X1.099999X1.099999X-1.099999X1.099999X-1.099999X-1.099999X0*%
%ADD18R,0.300000X0.900000*%
%ADD19R,0.900000X0.300000*%
%ADD20C,0.500000*%
%ADD21R,5.200000X5.200000*%
%ADD22RoundRect,0.250000X-0.325000X-0.450000X0.325000X-0.450000X0.325000X0.450000X-0.325000X0.450000X0*%
%ADD23RoundRect,0.250000X-0.350000X-0.450000X0.350000X-0.450000X0.350000X0.450000X-0.350000X0.450000X0*%
%ADD24R,1.700000X1.700000*%
%ADD25RoundRect,0.237500X0.300000X0.237500X-0.300000X0.237500X-0.300000X-0.237500X0.300000X-0.237500X0*%
%ADD26RoundRect,0.237500X0.237500X-0.250000X0.237500X0.250000X-0.237500X0.250000X-0.237500X-0.250000X0*%
%ADD27O,1.700000X1.700000*%
G04 APERTURE END LIST*
D10*
X149073900Y-89687600D03*
X150798900Y-89687600D03*
D11*
X161500000Y-73500000D03*
D12*
X117272000Y-84355500D03*
X117272000Y-86180500D03*
D10*
X152477500Y-85649000D03*
X154202500Y-85649000D03*
D13*
X126289000Y-94920000D03*
D14*
X126289000Y-92380000D03*
X126289000Y-89840000D03*
D15*
X113222000Y-79324000D03*
X110922000Y-79324000D03*
D16*
X110922000Y-85624000D03*
D15*
X108622000Y-79324000D03*
D10*
X148565900Y-91262400D03*
X150290900Y-91262400D03*
D12*
X127051000Y-84355500D03*
X127051000Y-86180500D03*
D10*
X148159500Y-94539000D03*
X149884500Y-94539000D03*
D17*
X159436000Y-89934000D03*
D11*
X159436000Y-84934000D03*
X159436000Y-79934000D03*
X103500000Y-96500000D03*
D18*
X140176000Y-91258000D03*
X140676000Y-91258000D03*
X141176000Y-91258000D03*
X141676000Y-91258000D03*
X142176000Y-91258000D03*
X142676000Y-91258000D03*
X143176000Y-91258000D03*
X143676000Y-91258000D03*
X144176000Y-91258000D03*
X144676000Y-91258000D03*
X145176000Y-91258000D03*
X145676000Y-91258000D03*
D19*
X146376000Y-90558000D03*
X146376000Y-90058000D03*
X146376000Y-89558000D03*
X146376000Y-89058000D03*
X146376000Y-88558000D03*
X146376000Y-88058000D03*
X146376000Y-87558000D03*
X146376000Y-87058000D03*
X146376000Y-86558000D03*
X146376000Y-86058000D03*
X146376000Y-85558000D03*
X146376000Y-85058000D03*
D18*
X145676000Y-84358000D03*
X145176000Y-84358000D03*
X144676000Y-84358000D03*
X144176000Y-84358000D03*
X143676000Y-84358000D03*
X143176000Y-84358000D03*
X142676000Y-84358000D03*
X142176000Y-84358000D03*
X141676000Y-84358000D03*
X141176000Y-84358000D03*
X140676000Y-84358000D03*
X140176000Y-84358000D03*
D19*
X139476000Y-85058000D03*
X139476000Y-85558000D03*
X139476000Y-86058000D03*
X139476000Y-86558000D03*
X139476000Y-87058000D03*
X139476000Y-87558000D03*
X139476000Y-88058000D03*
X139476000Y-88558000D03*
X139476000Y-89058000D03*
X139476000Y-89558000D03*
X139476000Y-90058000D03*
X139476000Y-90558000D03*
D20*
X140926000Y-88808000D03*
X142926000Y-88808000D03*
X144926000Y-88808000D03*
X141926000Y-87808000D03*
D21*
X142926000Y-87808000D03*
D20*
X143926000Y-87808000D03*
X140916000Y-86808000D03*
X144926000Y-86808000D03*
X142926000Y-86798000D03*
D11*
X103500000Y-73500000D03*
D13*
X117907000Y-94920000D03*
D14*
X117907000Y-92380000D03*
X117907000Y-89840000D03*
D22*
X102268000Y-79426000D03*
X104318000Y-79426000D03*
D23*
X102302000Y-81712000D03*
X104302000Y-81712000D03*
D24*
X132893000Y-97079000D03*
D25*
X145820500Y-79934000D03*
X144095500Y-79934000D03*
D26*
X118923000Y-86180500D03*
X118923000Y-84355500D03*
D10*
X148159500Y-92888000D03*
X149884500Y-92888000D03*
X138227000Y-80950000D03*
X139952000Y-80950000D03*
D11*
X161500000Y-96500000D03*
D26*
X125400000Y-86180500D03*
X125400000Y-84355500D03*
D10*
X152477500Y-84125000D03*
X154202500Y-84125000D03*
D24*
X142672000Y-96952000D03*
D27*
X145212000Y-96952000D03*
D24*
X111430000Y-97079000D03*
X108370000Y-74770000D03*
D27*
X108370000Y-72230000D03*
X110910000Y-74770000D03*
X110910000Y-72230000D03*
X113450000Y-74770000D03*
X113450000Y-72230000D03*
X115990000Y-74770000D03*
X115990000Y-72230000D03*
X118530000Y-74770000D03*
X118530000Y-72230000D03*
X121070000Y-74770000D03*
X121070000Y-72230000D03*
X123610000Y-74770000D03*
X123610000Y-72230000D03*
X126150000Y-74770000D03*
X126150000Y-72230000D03*
X128690000Y-74770000D03*
X128690000Y-72230000D03*
X131230000Y-74770000D03*
X131230000Y-72230000D03*
X133770000Y-74770000D03*
X133770000Y-72230000D03*
X136310000Y-74770000D03*
X136310000Y-72230000D03*
X138850000Y-74770000D03*
X138850000Y-72230000D03*
X141390000Y-74770000D03*
X141390000Y-72230000D03*
X143930000Y-74770000D03*
X143930000Y-72230000D03*
X146470000Y-74770000D03*
X146470000Y-72230000D03*
X149010000Y-74770000D03*
X149010000Y-72230000D03*
X151550000Y-74770000D03*
X151550000Y-72230000D03*
X154090000Y-74770000D03*
X154090000Y-72230000D03*
X156630000Y-74770000D03*
X156630000Y-72230000D03*
M02*
